<svg id="Group_1397" data-name="Group 1397" xmlns="http://www.w3.org/2000/svg" width="13.775" height="13.775" viewBox="0 0 13.775 13.775">
  <g id="Group_1351" data-name="Group 1351">
    <g id="Group_1350" data-name="Group 1350">
      <path id="Path_3197" data-name="Path 3197" d="M2659.4,2847.328h.725v-.725h-.725Zm2.175,0h.725v-.725h-.725Zm2.9-.725h-.725v.725h.725Zm1.45.725h.725v-.725h-.725Zm-6.525,2.9h.725v-.725h-.725Zm2.175,0h.725v-.725h-.725Zm4.35,0h.725v-.725h-.725Zm-6.525,2.9h.725v-.725h-.725Zm-2.175-2.9h.725v-.725h-.725Zm0,2.9h.725v-.725h-.725Zm4.35,0h.725v-.725h-.725Zm2.175,0h.725v-.725h-.725Zm.362-4.35a1.088,1.088,0,1,0,1.087,1.088A1.088,1.088,0,0,0,2664.115,2848.778Zm3.625-7.25h-11.6a1.091,1.091,0,0,0-1.088,1.088v11.6a1.091,1.091,0,0,0,1.088,1.087h11.6a1.09,1.09,0,0,0,1.087-1.087v-11.6A1.091,1.091,0,0,0,2667.74,2841.528Zm.362,12.688a.363.363,0,0,1-.362.362h-11.6a.363.363,0,0,1-.362-.362v-8.7a.363.363,0,0,1,.362-.362h11.6a.363.363,0,0,1,.362.362Z" transform="translate(-2655.053 -2841.528)" fill="#1378bb"/>
    </g>
  </g>
</svg>
