<svg xmlns="http://www.w3.org/2000/svg" width="24.5" height="28" viewBox="0 0 24.5 28">
  <path id="Path_5316" data-name="Path 5316" d="M4.375-17.5A2.632,2.632,0,0,0,7-20.134c0-1.122-1.333-3.178-1.905-4.01a.9.9,0,0,0-1.439,0c-.573.831-1.906,2.888-1.906,4.01A2.632,2.632,0,0,0,4.375-17.5Zm0-4.518a6.551,6.551,0,0,1,.875,1.883.877.877,0,0,1-.875.878.878.878,0,0,1-.875-.877A6.551,6.551,0,0,1,4.375-22.018ZM12.25-17.5a2.632,2.632,0,0,0,2.625-2.634c0-1.122-1.333-3.178-1.905-4.01a.9.9,0,0,0-1.439,0c-.573.831-1.906,2.888-1.906,4.01A2.632,2.632,0,0,0,12.25-17.5Zm0-4.518a6.551,6.551,0,0,1,.875,1.883.877.877,0,0,1-.875.878.878.878,0,0,1-.875-.877A6.551,6.551,0,0,1,12.25-22.018ZM20.125-17.5a2.632,2.632,0,0,0,2.625-2.634c0-1.122-1.333-3.178-1.905-4.01a.9.9,0,0,0-1.439,0c-.573.831-1.906,2.888-1.906,4.01A2.632,2.632,0,0,0,20.125-17.5Zm0-4.518A6.551,6.551,0,0,1,21-20.134a.877.877,0,0,1-.875.878.878.878,0,0,1-.875-.877A6.551,6.551,0,0,1,20.125-22.018Zm1.607,11.832L20.9-12.729a4.375,4.375,0,0,0-4.16-3.02H7.756a4.375,4.375,0,0,0-4.16,3.02l-.828,2.543A4.37,4.37,0,0,0,0-6.125v7A2.628,2.628,0,0,0,2.625,3.5H3.5A2.628,2.628,0,0,0,6.125.875V0h12.25V.875A2.628,2.628,0,0,0,21,3.5h.875A2.628,2.628,0,0,0,24.5.875v-7A4.369,4.369,0,0,0,21.732-10.186Zm-16.471-2A2.79,2.79,0,0,1,7.752-14h8.992a2.62,2.62,0,0,1,2.5,1.812l.55,1.687H4.711ZM4.375.875A.876.876,0,0,1,3.5,1.75H2.625A.876.876,0,0,1,1.75.875V0H4.375Zm18.375,0a.876.876,0,0,1-.875.875H21a.876.876,0,0,1-.875-.875V0H22.75Zm0-4.375v1.75h-21V-6.125A2.628,2.628,0,0,1,4.375-8.75h15.75A2.628,2.628,0,0,1,22.75-6.125ZM18.769-7.437c-1.318,0-3.019,1.271-3.019,2.621,0,.655.32,1.754,2.464,1.754l.555-.005a2.252,2.252,0,0,0,2.45-2.185A2.252,2.252,0,0,0,18.769-7.437Zm0,3.057c-.171,0-.363.005-.555.005-.576,0-1.152-.049-1.152-.441,0-.523,1.024-1.309,1.706-1.309s1.137.349,1.137.872S19.451-4.38,18.769-4.38ZM5.731-7.437a2.252,2.252,0,0,0-2.45,2.185,2.252,2.252,0,0,0,2.45,2.185l.555.005c2.144,0,2.464-1.1,2.464-1.754C8.75-6.166,7.049-7.437,5.731-7.437Zm.555,3.063c-.192,0-.384-.005-.555-.005-.682,0-1.137-.349-1.137-.872s.455-.872,1.137-.872,1.706.785,1.706,1.309C7.438-4.424,6.862-4.374,6.286-4.374Z" transform="translate(0 24.5)" fill="#fff"/>
</svg>
