<svg id="Group_1863" data-name="Group 1863" xmlns="http://www.w3.org/2000/svg" width="25.667" height="25.667" viewBox="0 0 25.667 25.667">
  <path id="Path_3476" data-name="Path 3476" d="M-1406.333,577.582v.456a1.115,1.115,0,0,1-1.066.477c-.634-.031-1.27-.008-1.906-.008v1.552c.7,0,1.339.023,1.978-.008a1,1,0,0,1,.994.5V581a1.014,1.014,0,0,1-1.039.522c-.64-.024-1.281-.006-1.943-.006v1.639c.668,0,1.293.023,1.915-.008a1.115,1.115,0,0,1,1.068.477v.456a1.026,1.026,0,0,1-1.076.568c-.636-.027-1.274-.007-1.91-.007v1.5c.665,0,1.29.02,1.913-.007a1.017,1.017,0,0,1,1.073.572v.456a1.122,1.122,0,0,1-1.068.475c-.633-.033-1.27-.008-1.923-.008v1.548c.689,0,1.346.02,2-.007a1,1,0,0,1,.991.5v.456a.977.977,0,0,1-.985.515c-.657-.023-1.315-.006-2-.006v1.537c.664,0,1.289.026,1.911-.009a1.17,1.17,0,0,1,1.076.472v1.027h-22.473a12.769,12.769,0,0,1-1.489-.636,3.971,3.971,0,0,1-1.7-2.558V571.194a8.056,8.056,0,0,1,1.123-2.03,8.589,8.589,0,0,1,2.071-1.164h1.141c.1.038.2.086.307.114a3.584,3.584,0,0,1,2.625,2.371.686.686,0,0,0,.8.552c5.5-.014,11-.006,16.5-.015a1.075,1.075,0,0,1,1.1.515v.456a1,1,0,0,1-.994.5c-.656-.027-1.313-.007-1.991-.007v1.546c.666,0,1.292.023,1.914-.008a1.127,1.127,0,0,1,1.071.477v.456a1.025,1.025,0,0,1-1.074.572c-.637-.028-1.276-.007-1.913-.007v1.5c.664,0,1.289.021,1.912-.007A1.022,1.022,0,0,1-1406.333,577.582Zm-18.142,11.555a3.007,3.007,0,0,0,.326.04c2.053,0,4.105.009,6.158-.015a1.031,1.031,0,0,0,.621-.308c1.075-1.048,2.141-2.106,3.184-3.186a1.184,1.184,0,0,0,.314-.729q.04-2.594,0-5.188a1.182,1.182,0,0,0-.308-.73q-1.563-1.621-3.185-3.184a1.177,1.177,0,0,0-.735-.3c-1.957-.024-3.915-.015-5.873-.013-.162,0-.324.022-.5.034a10.8,10.8,0,0,1-.009,1.191,1.058,1.058,0,0,0,.54,1.074c1.644,1.195,3.26,2.428,4.885,3.649.793.6.79,1.023-.013,1.641-1.685,1.3-3.375,2.591-5.054,3.9a.816.816,0,0,0-.333.47C-1424.5,588.023-1424.475,588.572-1424.475,589.137Zm-1.489-2.244v-.415q0-7.241,0-14.483a3.293,3.293,0,0,0-.093-.789,2.246,2.246,0,0,0-2.993-1.552,2.332,2.332,0,0,0-1.456,2.357q0,7.213,0,14.426c0,.122.014.243.027.446A3.87,3.87,0,0,1-1425.964,586.894Zm.819,5.26c.09.009.159.022.228.022,2.718,0,5.435.006,8.153-.015a1.008,1.008,0,0,0,.623-.291q2.516-2.483,4.995-5a1.166,1.166,0,0,0,.308-.733q.036-3.791,0-7.582a1.248,1.248,0,0,0-.335-.781q-2.453-2.5-4.958-4.959a1.172,1.172,0,0,0-.734-.314c-2.337-.023-4.675-.012-7.012-.012h-.559v1.547c2.3,0,4.563-.017,6.821.019a1.6,1.6,0,0,1,.986.412q1.956,1.872,3.83,3.828a1.52,1.52,0,0,1,.408.932q.054,3.078,0,6.156a1.6,1.6,0,0,1-.405.989c-1.207,1.264-2.474,2.471-3.686,3.73a1.7,1.7,0,0,1-1.357.548c-2.071-.023-4.143-.013-6.214,0a.721.721,0,0,0-.544.234A11.063,11.063,0,0,0-1425.145,592.154Zm.709-12.849v6.044l3.952-3.038c-.1-.088-.162-.156-.235-.211C-1421.932,581.186-1423.147,580.274-1424.436,579.305Zm-5.87,11.335a2.161,2.161,0,0,0,2.382,1.507,2.312,2.312,0,0,0,1.954-2.258,2.023,2.023,0,0,0-1.542-2c0,.628.01,1.251,0,1.874-.013.64-.221.855-.858.871S-1429.622,590.64-1430.307,590.64Zm19.454-1.686-3.178,3.193h3.178Zm-3.166-16.44,3.149,3.159v-3.159Zm-16.375,16.465.148.16h1.215v-1.29l-.161-.1Z" transform="translate(1432 -568)" fill="#fff"/>
</svg>
