<svg xmlns="http://www.w3.org/2000/svg" width="30.718" height="28.511" viewBox="0 0 30.718 28.511">
  <g id="Group_1902" data-name="Group 1902" transform="translate(-129.219 -523.385)">
    <g id="Group_1893" data-name="Group 1893" transform="translate(130.252 526.993)">
      <g id="Path_3531" data-name="Path 3531" transform="translate(-176.058 -551.793)" fill="none">
        <path d="M194.627,551.967a4.53,4.53,0,0,1-7.453,0l-5.164.723v23.026h17.781V552.69Z" stroke="none"/>
        <path d="M 186.7431030273438 553.037109375 L 183.0100250244141 553.5596923828125 L 183.0100250244141 574.7162475585938 L 190.9004211425781 574.7162475585938 L 198.7908172607422 574.7162475585938 L 198.7908172607422 553.5596923828125 L 195.0578765869141 553.037109375 C 194.0127716064453 554.2271118164063 192.5002288818359 554.9218139648438 190.9004211425781 554.9218139648438 C 189.3006896972656 554.9218139648438 187.7882080078125 554.2271118164063 186.7431030273438 553.037109375 M 187.1738586425781 551.967041015625 C 187.9924621582031 553.1473999023438 189.3551940917969 553.9218139648438 190.9004211425781 553.9218139648438 C 192.4456329345703 553.9218139648438 193.8085327148438 553.1473999023438 194.6271209716797 551.967041015625 L 199.7908172607422 552.68994140625 L 199.7908172607422 575.7162475585938 L 190.9004211425781 575.7162475585938 L 182.0100250244141 575.7162475585938 L 182.0100250244141 552.68994140625 L 187.1738586425781 551.967041015625 Z" stroke="none" fill="#fff"/>
      </g>
      <g id="Path_3532" data-name="Path 3532" transform="translate(-138.16 -556.534)" fill="none">
        <path d="M144.112,557.431l-5.779,4.356,3.378,4.89,2.4-1.511Z" stroke="none"/>
        <path d="M 143.1117553710938 559.4368286132813 L 139.7010955810547 562.0079956054688 L 141.9893951416016 565.3200073242188 L 143.1117553710938 564.61328125 L 143.1117553710938 559.4368286132813 M 144.1117553710938 557.4306030273438 L 144.1117553710938 565.1653442382813 L 141.7113494873047 566.6768188476563 L 138.3329925537109 561.7870483398438 L 144.1117553710938 557.4306030273438 Z" stroke="none" fill="#fff"/>
      </g>
      <g id="Path_3533" data-name="Path 3533" transform="translate(-292.667 -556.534)" fill="none">
        <path d="M316.4,557.431l5.779,4.356-3.378,4.89-2.4-1.511Z" stroke="none"/>
        <path d="M 317.4002990722656 559.436767578125 L 317.4002990722656 564.61328125 L 318.5226745605469 565.3200073242188 L 320.8109741210938 562.0079956054688 L 317.4002990722656 559.436767578125 M 316.4002990722656 557.4306030273438 L 322.1790771484375 561.7870483398438 L 318.8007202148438 566.6768188476563 L 316.4002990722656 565.1653442382813 L 316.4002990722656 557.4306030273438 Z" stroke="none" fill="#fff"/>
      </g>
      <g id="Path_3534" data-name="Path 3534" transform="translate(-137.023 -555.397)" fill="none">
        <path d="M140.575,565.713a.173.173,0,0,1-.143-.075l-3.378-4.89a.173.173,0,0,1,.038-.237l5.779-4.356a.173.173,0,0,1,.278.138v7.735a.173.173,0,0,1-.081.146l-2.4,1.511A.173.173,0,0,1,140.575,565.713Zm-3.141-5.025,3.189,4.616,2.179-1.372v-7.291Z" stroke="none"/>
        <path d="M 140.5748748779297 565.7132568359375 C 140.5198211669922 565.7132568359375 140.465576171875 565.6868286132813 140.4320831298828 565.6382446289063 L 137.0537414550781 560.74853515625 C 137.0009613037109 560.671875 137.0178680419922 560.5675048828125 137.0921173095703 560.5115356445313 L 142.8707733154297 556.1552734375 C 142.9014587402344 556.1322021484375 142.9381713867188 556.1203002929688 142.9751434326172 556.1203002929688 C 143.0015106201172 556.1203002929688 143.0280151367188 556.1263427734375 143.0525665283203 556.138671875 C 143.1113128662109 556.16796875 143.1485137939453 556.2279052734375 143.1485137939453 556.293701171875 L 143.1485137939453 564.0283203125 C 143.1485137939453 564.0880126953125 143.117919921875 564.14306640625 143.0675354003906 564.1748046875 L 140.6670684814453 565.686279296875 C 140.6383514404297 565.7042846679688 140.6064758300781 565.7132568359375 140.5748748779297 565.7132568359375 Z M 142.8018646240234 556.6415405273438 L 137.4336090087891 560.6881713867188 L 140.6228790283203 565.304443359375 L 142.8018646240234 563.9326171875 L 142.8018646240234 556.6415405273438 Z" stroke="none" fill="#fff"/>
      </g>
      <g id="Path_3535" data-name="Path 3535" transform="translate(-291.53 -555.398)" fill="none">
        <path d="M317.664,565.714a.173.173,0,0,1-.092-.027l-2.4-1.511a.173.173,0,0,1-.081-.147v-7.735a.173.173,0,0,1,.278-.138l5.779,4.356a.173.173,0,0,1,.038.237l-3.378,4.89A.173.173,0,0,1,317.664,565.714Zm-2.227-1.781,2.179,1.372,3.189-4.616-5.368-4.047Z" stroke="none"/>
        <path d="M 317.6637268066406 565.7142944335938 C 317.632080078125 565.7142944335938 317.6000671386719 565.7053833007813 317.5714416503906 565.6873779296875 L 315.1709594726563 564.1759643554688 C 315.12060546875 564.1441650390625 315.0900268554688 564.0889892578125 315.0900268554688 564.029296875 L 315.0900268554688 556.2947387695313 C 315.0900268554688 556.22900390625 315.127197265625 556.1688232421875 315.1859741210938 556.1395874023438 C 315.2103881835938 556.12744140625 315.23681640625 556.1214599609375 315.2631530761719 556.1214599609375 C 315.3002014160156 556.1214599609375 315.3370361328125 556.1332397460938 315.3677978515625 556.1563110351563 L 321.1463623046875 560.5125122070313 C 321.2206420898438 560.5685424804688 321.2375793457031 560.6730346679688 321.1847839355469 560.7495727539063 L 317.8064270019531 565.6392211914063 C 317.77294921875 565.6879272460938 317.7186889648438 565.7142944335938 317.6637268066406 565.7142944335938 Z M 315.4366760253906 556.6426391601563 L 315.4366760253906 563.9336547851563 L 317.6156616210938 565.3055419921875 L 320.804931640625 560.6892700195313 L 315.4366760253906 556.6426391601563 Z" stroke="none" fill="#fff"/>
      </g>
      <g id="Path_3536" data-name="Path 3536" transform="translate(-174.921 -550.653)" fill="none">
        <path d="M198.654,574.75H180.873a.173.173,0,0,1-.173-.173V551.55a.173.173,0,0,1,.149-.172l5.164-.723a.172.172,0,0,1,.167.073,4.356,4.356,0,0,0,7.168,0,.17.17,0,0,1,.166-.073l5.164.723a.173.173,0,0,1,.149.172v23.026A.173.173,0,0,1,198.654,574.75Zm-17.607-.347h17.434V551.7l-4.91-.687a4.7,4.7,0,0,1-7.614,0l-4.91.687Z" stroke="none"/>
        <path d="M 198.6541442871094 574.749755859375 L 180.8733520507813 574.749755859375 C 180.7775268554688 574.749755859375 180.7000122070313 574.6722412109375 180.7000122070313 574.5763549804688 L 180.7000122070313 551.550048828125 C 180.7000122070313 551.4635620117188 180.7636413574219 551.3904418945313 180.8492431640625 551.37841796875 L 186.012939453125 550.6553955078125 C 186.0212249755859 550.6542358398438 186.0294952392578 550.6536254882813 186.0376739501953 550.6536254882813 C 186.0943298339844 550.6536254882813 186.1470642089844 550.6814575195313 186.1795349121094 550.7282104492188 C 186.9959716796875 551.9055786132813 188.3359985351563 552.6085815429688 189.7637023925781 552.6085815429688 C 191.1914672851563 552.6085815429688 192.5314636230469 551.9055786132813 193.3479614257813 550.7282104492188 C 193.380126953125 550.6817626953125 193.4320526123047 550.6533203125 193.4880523681641 550.6533203125 C 193.4967498779297 550.6533203125 193.5055389404297 550.6539916992188 193.5143737792969 550.6553955078125 L 198.67822265625 551.37841796875 C 198.7638244628906 551.3904418945313 198.8274841308594 551.4635620117188 198.8274841308594 551.550048828125 L 198.8274841308594 574.5763549804688 C 198.8274841308594 574.6722412109375 198.7499084472656 574.749755859375 198.6541442871094 574.749755859375 Z M 185.9567260742188 551.0134887695313 L 181.0466613769531 551.7008666992188 L 181.0466613769531 574.40283203125 L 198.4808044433594 574.40283203125 L 198.4808044433594 551.7008666992188 L 193.5707397460938 551.0134887695313 C 192.6845397949219 552.231201171875 191.2694091796875 552.9552001953125 189.7637023925781 552.9552001953125 C 188.258056640625 552.9552001953125 186.8428955078125 552.231201171875 185.9567260742188 551.0134887695313 Z" stroke="none" fill="#fff"/>
      </g>
    </g>
    <g id="Group_1894" data-name="Group 1894" transform="translate(130.782 525.831)">
      <g id="Path_3537" data-name="Path 3537" transform="translate(-148.74 -541.876)" fill="none">
        <path d="M150.318,541.876c-.378,0-.456.477-.373.929a.44.44,0,1,0,.746,0C150.774,542.353,150.7,541.876,150.318,541.876Z" stroke="none"/>
        <path d="M 150.3184509277344 541.8759765625 C 150.6967163085938 541.8759765625 150.7741088867188 542.3526000976563 150.6916809082031 542.8052978515625 C 150.6092529296875 543.2579956054688 150.3184509277344 543.4782104492188 150.3184509277344 543.4782104492188 C 150.3184509277344 543.4782104492188 150.0276489257813 543.2579956054688 149.9452209472656 542.8052978515625 C 149.8626403808594 542.3526000976563 149.9401550292969 541.8759765625 150.3184509277344 541.8759765625 Z" stroke="none" fill="#fff"/>
      </g>
      <g id="Path_3538" data-name="Path 3538" transform="translate(-141.029 -547.799)" fill="none">
        <path d="M141.038,549c-.075.371.377.541.837.55a.44.44,0,1,0,.148-.732C141.595,548.648,141.112,548.63,141.038,549Z" stroke="none"/>
        <path d="M 141.4869842529297 548.7015380859375 C 141.6520385742188 548.7015380859375 141.8420104980469 548.7462768554688 142.0221710205078 548.8179931640625 C 142.4496612548828 548.9883422851563 142.6081390380859 549.3169555664063 142.6081390380859 549.3169555664063 C 142.6081390380859 549.3169555664063 142.3441772460938 549.5501708984375 141.8983154296875 549.5501708984375 C 141.8904724121094 549.5501708984375 141.8825836181641 549.550048828125 141.8746337890625 549.5499267578125 C 141.4146270751953 549.541259765625 140.9627990722656 549.3712768554688 141.0375366210938 549.0003051757813 C 141.0807037353516 548.7858276367188 141.2603912353516 548.7015380859375 141.4869842529297 548.7015380859375 Z" stroke="none" fill="#fff"/>
      </g>
      <g id="Path_3539" data-name="Path 3539" transform="translate(-144.068 -551.571)" fill="none">
        <path d="M144.666,554.3c.3.235.653-.091.87-.5a.44.44,0,1,0-.585-.463C144.6,553.648,144.37,554.07,144.666,554.3Z" stroke="none"/>
        <path d="M 144.8805236816406 554.3839111328125 C 144.8075256347656 554.3839111328125 144.7352600097656 554.359619140625 144.666259765625 554.304931640625 C 144.36962890625 554.0701904296875 144.6047668457031 553.6483764648438 144.9505920410156 553.3447875976563 C 145.279052734375 553.0560302734375 145.6248321533203 553.0488891601563 145.6583099365234 553.0488891601563 C 145.6600494384766 553.0488891601563 145.6609497070313 553.0488891601563 145.6609497070313 553.0488891601563 C 145.6609497070313 553.0488891601563 145.7522430419922 553.4020385742188 145.5357818603516 553.8082275390625 C 145.3697052001953 554.1197509765625 145.1211547851563 554.3839111328125 144.8805236816406 554.3839111328125 Z" stroke="none" fill="#fff"/>
      </g>
      <g id="Path_3540" data-name="Path 3540" transform="translate(-151.009 -551.571)" fill="none">
        <path d="M153.545,554.3c-.3.235-.653-.091-.87-.5a.44.44,0,1,1,.585-.463C153.606,553.648,153.841,554.07,153.545,554.3Z" stroke="none"/>
        <path d="M 153.3305816650391 554.3839111328125 C 153.0899353027344 554.3839111328125 152.8413238525391 554.1197509765625 152.6753387451172 553.8082275390625 C 152.4588775634766 553.4020385742188 152.5500335693359 553.0488891601563 152.5500335693359 553.0488891601563 C 152.5500335693359 553.0488891601563 152.5509338378906 553.0488891601563 152.5526885986328 553.0488891601563 C 152.5861511230469 553.0488891601563 152.9319152832031 553.0560302734375 153.2605590820313 553.3447875976563 C 153.6062469482422 553.6483764648438 153.8413696289063 554.0701904296875 153.5448608398438 554.304931640625 C 153.4758453369141 554.359619140625 153.4035797119141 554.3839111328125 153.3305816650391 554.3839111328125 Z" stroke="none" fill="#fff"/>
      </g>
      <g id="Path_3541" data-name="Path 3541" transform="translate(-151.383 -547.799)" fill="none">
        <path d="M154.533,549c.075.371-.377.541-.837.55a.44.44,0,1,1-.148-.732C153.976,548.648,154.458,548.63,154.533,549Z" stroke="none"/>
        <path d="M 154.0831451416016 548.7015380859375 C 154.3097381591797 548.7015380859375 154.4894104003906 548.7858276367188 154.5326538085938 549.0003051757813 C 154.6074066162109 549.3712768554688 154.1555633544922 549.541259765625 153.6954040527344 549.5499267578125 C 153.6874542236328 549.550048828125 153.6795654296875 549.5501708984375 153.6717224121094 549.5501708984375 C 153.2260131835938 549.5501708984375 152.9620208740234 549.3169555664063 152.9620208740234 549.3169555664063 C 152.9620208740234 549.3169555664063 153.1203765869141 548.9883422851563 153.5478973388672 548.8179931640625 C 153.7281188964844 548.7462768554688 153.9180908203125 548.7015380859375 154.0831451416016 548.7015380859375 Z" stroke="none" fill="#fff"/>
      </g>
      <g id="Path_3542" data-name="Path 3542" transform="translate(-148.935 -549.386)" fill="none">
        <path d="M150.887,550.9a.373.373,0,1,1-.373-.373A.373.373,0,0,1,150.887,550.9Z" stroke="none"/>
        <path d="M 150.5133819580078 551.2776489257813 C 150.3072357177734 551.2776489257813 150.1399841308594 551.1105346679688 150.1399841308594 550.9044799804688 C 150.1399841308594 550.6981811523438 150.3072357177734 550.5310668945313 150.5133819580078 550.5310668945313 C 150.7195129394531 550.5310668945313 150.8866119384766 550.6981811523438 150.8866119384766 550.9044799804688 C 150.8866119384766 551.1105346679688 150.7195129394531 551.2776489257813 150.5133819580078 551.2776489257813 Z" stroke="none" fill="#fff"/>
      </g>
    </g>
    <g id="Group_1895" data-name="Group 1895" transform="translate(155.295 537.793)">
      <g id="Path_3543" data-name="Path 3543" transform="translate(-334.016 -632.28)" fill="none">
        <path d="M335.6,632.28c-.378,0-.456.477-.373.929a.44.44,0,1,0,.747,0C336.051,632.757,335.973,632.28,335.6,632.28Z" stroke="none"/>
        <path d="M 335.5950927734375 632.2800903320313 C 335.9732971191406 632.2800903320313 336.0507507324219 632.756591796875 335.9683227539063 633.2094116210938 C 335.8858947753906 633.6620483398438 335.5950927734375 633.88232421875 335.5950927734375 633.88232421875 C 335.5950927734375 633.88232421875 335.3042297363281 633.6620483398438 335.2217407226563 633.2094116210938 C 335.1393127441406 632.756591796875 335.2168273925781 632.2800903320313 335.5950927734375 632.2800903320313 Z" stroke="none" fill="#fff"/>
      </g>
      <g id="Path_3544" data-name="Path 3544" transform="translate(-326.306 -638.202)" fill="none">
        <path d="M326.314,639.4c-.075.371.377.541.837.549a.44.44,0,1,0,.148-.732C326.871,639.051,326.389,639.033,326.314,639.4Z" stroke="none"/>
        <path d="M 326.7633056640625 639.105224609375 C 326.9283752441406 639.105224609375 327.1183471679688 639.1499633789063 327.2985229492188 639.2217407226563 C 327.7260131835938 639.39208984375 327.884521484375 639.7205810546875 327.884521484375 639.7205810546875 C 327.884521484375 639.7205810546875 327.6207275390625 639.9537963867188 327.1751403808594 639.9537963867188 C 327.1671752929688 639.9537963867188 327.1590881347656 639.9536743164063 327.1510009765625 639.9535522460938 C 326.6909484863281 639.9450073242188 326.2391357421875 639.77490234375 326.3137512207031 639.4041748046875 C 326.3569946289063 639.1895751953125 326.5367126464844 639.105224609375 326.7633056640625 639.105224609375 Z" stroke="none" fill="#fff"/>
      </g>
      <g id="Path_3545" data-name="Path 3545" transform="translate(-329.345 -641.975)" fill="none">
        <path d="M329.943,644.709c.3.235.653-.091.87-.5a.44.44,0,1,0-.585-.464C329.882,644.052,329.647,644.474,329.943,644.709Z" stroke="none"/>
        <path d="M 330.157470703125 644.787841796875 C 330.0845031738281 644.787841796875 330.01220703125 644.7634887695313 329.9432067871094 644.7088623046875 C 329.6465759277344 644.4739990234375 329.8817138671875 644.0523071289063 330.2274475097656 643.7484741210938 C 330.5557250976563 643.460205078125 330.9011840820313 643.4529418945313 330.9351806640625 643.4529418945313 C 330.9369812011719 643.4529418945313 330.9378967285156 643.4529418945313 330.9378967285156 643.4529418945313 C 330.9378967285156 643.4529418945313 331.0292053222656 643.8059692382813 330.812744140625 644.2120361328125 C 330.6466369628906 644.523681640625 330.3981323242188 644.787841796875 330.157470703125 644.787841796875 Z" stroke="none" fill="#fff"/>
      </g>
      <g id="Path_3546" data-name="Path 3546" transform="translate(-336.286 -641.975)" fill="none">
        <path d="M338.822,644.709c-.3.235-.653-.091-.87-.5a.44.44,0,1,1,.585-.464C338.883,644.052,339.118,644.474,338.822,644.709Z" stroke="none"/>
        <path d="M 338.6076049804688 644.787841796875 C 338.366943359375 644.787841796875 338.1183166503906 644.523681640625 337.9523315429688 644.2120361328125 C 337.7358703613281 643.8059692382813 337.8270263671875 643.4529418945313 337.8270263671875 643.4529418945313 C 337.8270263671875 643.4529418945313 337.8279418945313 643.4529418945313 337.8297424316406 643.4529418945313 C 337.86376953125 643.4529418945313 338.209228515625 643.460205078125 338.5375366210938 643.7484741210938 C 338.8832702636719 644.0523071289063 339.1183471679688 644.4739990234375 338.8218688964844 644.7088623046875 C 338.7528991699219 644.7634887695313 338.6805725097656 644.787841796875 338.6076049804688 644.787841796875 Z" stroke="none" fill="#fff"/>
      </g>
      <g id="Path_3547" data-name="Path 3547" transform="translate(-336.66 -638.202)" fill="none">
        <path d="M339.81,639.4c.075.371-.377.541-.837.549a.44.44,0,1,1-.148-.732C339.252,639.051,339.735,639.033,339.81,639.4Z" stroke="none"/>
        <path d="M 339.360107421875 639.105224609375 C 339.5867309570313 639.105224609375 339.7664184570313 639.1895751953125 339.8096618652344 639.4041748046875 C 339.8843994140625 639.77490234375 339.4325866699219 639.9450073242188 338.9723815917969 639.9535522460938 C 338.9642944335938 639.9536743164063 338.9562072753906 639.9537963867188 338.9482421875 639.9537963867188 C 338.5027770996094 639.9537963867188 338.239013671875 639.7205810546875 338.239013671875 639.7205810546875 C 338.239013671875 639.7205810546875 338.3973388671875 639.39208984375 338.8248596191406 639.2217407226563 C 339.0050659179688 639.1499633789063 339.1950378417969 639.105224609375 339.360107421875 639.105224609375 Z" stroke="none" fill="#fff"/>
      </g>
      <g id="Path_3548" data-name="Path 3548" transform="translate(-334.212 -639.79)" fill="none">
        <path d="M336.164,641.308a.373.373,0,1,1-.373-.373A.373.373,0,0,1,336.164,641.308Z" stroke="none"/>
        <path d="M 335.7903747558594 641.6815185546875 C 335.5842590332031 641.6815185546875 335.4170227050781 641.5144653320313 335.4170227050781 641.3082885742188 C 335.4170227050781 641.1021118164063 335.5842590332031 640.9349975585938 335.7903747558594 640.9349975585938 C 335.9965515136719 640.9349975585938 336.1636047363281 641.1021118164063 336.1636047363281 641.3082885742188 C 336.1636047363281 641.5144653320313 335.9965515136719 641.6815185546875 335.7903747558594 641.6815185546875 Z" stroke="none" fill="#fff"/>
      </g>
    </g>
    <g id="Group_1896" data-name="Group 1896" transform="translate(132.951 538.641)">
      <g id="Path_3549" data-name="Path 3549" transform="translate(-162.794 -638.693)" fill="none">
        <path d="M163.894,638.693c-.264,0-.318.332-.26.647a.307.307,0,1,0,.52,0C164.212,639.025,164.158,638.693,163.894,638.693Z" stroke="none"/>
        <path d="M 163.8944091796875 638.6930541992188 C 164.1579742431641 638.6930541992188 164.2119445800781 639.025146484375 164.1545104980469 639.3405151367188 C 164.0971069335938 639.6558837890625 163.8944091796875 639.8092651367188 163.8944091796875 639.8092651367188 C 163.8944091796875 639.8092651367188 163.6918640136719 639.6558837890625 163.6344299316406 639.3405151367188 C 163.5768890380859 639.025146484375 163.6308746337891 638.6930541992188 163.8944091796875 638.6930541992188 Z" stroke="none" fill="#fff"/>
      </g>
      <g id="Path_3550" data-name="Path 3550" transform="translate(-157.422 -642.819)" fill="none">
        <path d="M157.428,643.656c-.052.258.263.377.583.383a.307.307,0,1,0,.1-.51C157.816,643.41,157.48,643.4,157.428,643.656Z" stroke="none"/>
        <path d="M 157.7411651611328 643.4479370117188 C 157.8561401367188 643.4479370117188 157.9884490966797 643.4790649414063 158.1139984130859 643.529052734375 C 158.4117889404297 643.6477661132813 158.5221557617188 643.8767700195313 158.5221557617188 643.8767700195313 C 158.5221557617188 643.8767700195313 158.3385009765625 644.0391235351563 158.0282135009766 644.0391235351563 C 158.0225830078125 644.0391235351563 158.0169067382813 644.0390625 158.0111999511719 644.0389404296875 C 157.6905822753906 644.0330810546875 157.3758544921875 643.9144287109375 157.4278564453125 643.65625 C 157.4580078125 643.5067138671875 157.583251953125 643.4479370117188 157.7411651611328 643.4479370117188 Z" stroke="none" fill="#fff"/>
      </g>
      <g id="Path_3551" data-name="Path 3551" transform="translate(-159.54 -645.447)" fill="none">
        <path d="M159.957,647.352c.207.163.455-.063.606-.346a.307.307,0,1,0-.408-.323C159.914,646.895,159.75,647.188,159.957,647.352Z" stroke="none"/>
        <path d="M 160.10595703125 647.4071655273438 C 160.0551452636719 647.4071655273438 160.0048065185547 647.3902587890625 159.9567413330078 647.3522338867188 C 159.7502288818359 647.1884155273438 159.9140167236328 646.8945922851563 160.1548309326172 646.6830444335938 C 160.3837432861328 646.4818725585938 160.6244659423828 646.4768676757813 160.6479187011719 646.4768676757813 C 160.6491394042969 646.4768676757813 160.6497802734375 646.4768676757813 160.6497802734375 646.4768676757813 C 160.6497802734375 646.4768676757813 160.7134246826172 646.7229614257813 160.5625915527344 647.0060424804688 C 160.4468383789063 647.2230834960938 160.2736663818359 647.4071655273438 160.10595703125 647.4071655273438 Z" stroke="none" fill="#fff"/>
      </g>
      <g id="Path_3552" data-name="Path 3552" transform="translate(-164.376 -645.447)" fill="none">
        <path d="M166.143,647.352c-.207.163-.455-.063-.606-.346a.307.307,0,1,1,.408-.323C166.186,646.895,166.349,647.188,166.143,647.352Z" stroke="none"/>
        <path d="M 165.9934539794922 647.4071655273438 C 165.8257751464844 647.4071655273438 165.6525268554688 647.2230834960938 165.5367736816406 647.0060424804688 C 165.3859710693359 646.7229614257813 165.4495849609375 646.4768676757813 165.4495849609375 646.4768676757813 C 165.4495849609375 646.4768676757813 165.4502258300781 646.4768676757813 165.4514465332031 646.4768676757813 C 165.4748992919922 646.4768676757813 165.7156524658203 646.4818725585938 165.9445648193359 646.6830444335938 C 166.1855010986328 646.8945922851563 166.3492736816406 647.1884155273438 166.1426239013672 647.3522338867188 C 166.0945892333984 647.3902587890625 166.0442657470703 647.4071655273438 165.9934539794922 647.4071655273438 Z" stroke="none" fill="#fff"/>
      </g>
      <g id="Path_3553" data-name="Path 3553" transform="translate(-164.636 -642.819)" fill="none">
        <path d="M166.83,643.656c.052.258-.263.377-.583.383a.307.307,0,1,1-.1-.51C166.442,643.41,166.778,643.4,166.83,643.656Z" stroke="none"/>
        <path d="M 166.5170593261719 643.4479370117188 C 166.6750030517578 643.4479370117188 166.8002777099609 643.5067138671875 166.8304290771484 643.65625 C 166.8824462890625 643.9144287109375 166.5676727294922 644.0330810546875 166.2471008300781 644.0389404296875 C 166.2413940429688 644.0390625 166.2357177734375 644.0391235351563 166.2300872802734 644.0391235351563 C 165.9197692871094 644.0391235351563 165.7360076904297 643.8767700195313 165.7360076904297 643.8767700195313 C 165.7360076904297 643.8767700195313 165.8464813232422 643.6477661132813 166.1442718505859 643.529052734375 C 166.2697601318359 643.4790649414063 166.4020690917969 643.4479370117188 166.5170593261719 643.4479370117188 Z" stroke="none" fill="#fff"/>
      </g>
      <g id="Path_3554" data-name="Path 3554" transform="translate(-162.931 -643.925)" fill="none">
        <path d="M164.291,644.983a.26.26,0,1,1-.26-.26A.26.26,0,0,1,164.291,644.983Z" stroke="none"/>
        <path d="M 164.0309448242188 645.2432250976563 C 163.8874206542969 645.2432250976563 163.7710266113281 645.1268310546875 163.7710266113281 644.9832153320313 C 163.7710266113281 644.8395385742188 163.8874206542969 644.7230224609375 164.0309448242188 644.7230224609375 C 164.1746826171875 644.7230224609375 164.2910766601563 644.8395385742188 164.2910766601563 644.9832153320313 C 164.2910766601563 645.1268310546875 164.1746826171875 645.2432250976563 164.0309448242188 645.2432250976563 Z" stroke="none" fill="#fff"/>
      </g>
    </g>
    <g id="Group_1897" data-name="Group 1897" transform="translate(155.233 549.936)">
      <g id="Path_3555" data-name="Path 3555" transform="translate(-331.208 -724.059)" fill="none">
        <path d="M332.308,724.059c-.264,0-.318.332-.26.647a.307.307,0,1,0,.52,0C332.626,724.391,332.572,724.059,332.308,724.059Z" stroke="none"/>
        <path d="M 332.3083801269531 724.05908203125 C 332.5719909667969 724.05908203125 332.6259765625 724.3912353515625 332.5685424804688 724.70654296875 C 332.5111083984375 725.0220947265625 332.3083801269531 725.17529296875 332.3083801269531 725.17529296875 C 332.3083801269531 725.17529296875 332.1058349609375 725.0220947265625 332.0484619140625 724.70654296875 C 331.9908447265625 724.3912353515625 332.0448608398438 724.05908203125 332.3083801269531 724.05908203125 Z" stroke="none" fill="#fff"/>
      </g>
      <g id="Path_3556" data-name="Path 3556" transform="translate(-325.836 -728.185)" fill="none">
        <path d="M325.842,729.022c-.052.258.263.377.583.383a.307.307,0,1,0,.1-.51C326.23,728.777,325.894,728.764,325.842,729.022Z" stroke="none"/>
        <path d="M 326.1548461914063 728.8141479492188 C 326.2698669433594 728.8141479492188 326.4022521972656 728.8453369140625 326.52783203125 728.8953247070313 C 326.8257141113281 729.0140380859375 326.9359741210938 729.242919921875 326.9359741210938 729.242919921875 C 326.9359741210938 729.242919921875 326.7522583007813 729.4054565429688 326.4417114257813 729.4054565429688 C 326.4362182617188 729.4054565429688 326.4306335449219 729.4053955078125 326.425048828125 729.4052734375 C 326.1044311523438 729.3992919921875 325.7894897460938 729.28076171875 325.8416748046875 729.0223388671875 C 325.8717346191406 728.8729248046875 325.9969482421875 728.8141479492188 326.1548461914063 728.8141479492188 Z" stroke="none" fill="#fff"/>
      </g>
      <g id="Path_3557" data-name="Path 3557" transform="translate(-327.953 -730.814)" fill="none">
        <path d="M328.37,732.719c.207.164.455-.063.606-.346a.307.307,0,1,0-.408-.323C328.328,732.262,328.164,732.555,328.37,732.719Z" stroke="none"/>
        <path d="M 328.5196533203125 732.7739868164063 C 328.4687805175781 732.7739868164063 328.4184265136719 732.7570190429688 328.370361328125 732.7189331054688 C 328.1636962890625 732.5552368164063 328.32763671875 732.2615356445313 328.5684509277344 732.0498657226563 C 328.7974548339844 731.8487548828125 329.0383605957031 731.8438110351563 329.0615844726563 731.8438110351563 C 329.0628051757813 731.8438110351563 329.0634155273438 731.8438110351563 329.0634155273438 731.8438110351563 C 329.0634155273438 731.8438110351563 329.1270446777344 732.0897827148438 328.9761657714844 732.3727416992188 C 328.8604736328125 732.5899047851563 328.6872863769531 732.7739868164063 328.5196533203125 732.7739868164063 Z" stroke="none" fill="#fff"/>
      </g>
      <g id="Path_3558" data-name="Path 3558" transform="translate(-332.79 -730.814)" fill="none">
        <path d="M334.557,732.719c-.207.164-.455-.063-.606-.346a.307.307,0,1,1,.408-.323C334.6,732.262,334.763,732.555,334.557,732.719Z" stroke="none"/>
        <path d="M 334.4073791503906 732.7739868164063 C 334.2397155761719 732.7739868164063 334.0665283203125 732.5899047851563 333.9507751464844 732.3727416992188 C 333.7999877929688 732.0897827148438 333.8636474609375 731.8438110351563 333.8636474609375 731.8438110351563 C 333.8636474609375 731.8438110351563 333.8642578125 731.8438110351563 333.865478515625 731.8438110351563 C 333.8887023925781 731.8438110351563 334.1295776367188 731.8487548828125 334.3585815429688 732.0498657226563 C 334.5993347167969 732.2615356445313 334.7633056640625 732.5552368164063 334.5566711425781 732.7189331054688 C 334.5086059570313 732.7570190429688 334.458251953125 732.7739868164063 334.4073791503906 732.7739868164063 Z" stroke="none" fill="#fff"/>
      </g>
      <g id="Path_3559" data-name="Path 3559" transform="translate(-333.05 -728.185)" fill="none">
        <path d="M335.244,729.022c.052.258-.263.377-.583.383a.307.307,0,1,1-.1-.51C334.856,728.777,335.192,728.764,335.244,729.022Z" stroke="none"/>
        <path d="M 334.9311218261719 728.8141479492188 C 335.0890197753906 728.8141479492188 335.2142333984375 728.8729248046875 335.2443237304688 729.0223388671875 C 335.2964477539063 729.28076171875 334.9815673828125 729.3992919921875 334.6610107421875 729.4052734375 C 334.6554260253906 729.4053955078125 334.6498413085938 729.4054565429688 334.6443481445313 729.4054565429688 C 334.3338928222656 729.4054565429688 334.1500244140625 729.242919921875 334.1500244140625 729.242919921875 C 334.1500244140625 729.242919921875 334.2603759765625 729.0140380859375 334.5582885742188 728.8953247070313 C 334.6837768554688 728.8453369140625 334.8161315917969 728.8141479492188 334.9311218261719 728.8141479492188 Z" stroke="none" fill="#fff"/>
      </g>
      <g id="Path_3560" data-name="Path 3560" transform="translate(-331.345 -729.291)" fill="none">
        <path d="M332.705,730.349a.26.26,0,1,1-.26-.26A.26.26,0,0,1,332.705,730.349Z" stroke="none"/>
        <path d="M 332.4449768066406 730.0889892578125 C 332.5887145996094 730.0889892578125 332.7051391601563 730.2054443359375 332.7051391601563 730.34912109375 C 332.7051391601563 730.4927978515625 332.5887145996094 730.6092529296875 332.4449768066406 730.6092529296875 C 332.3014221191406 730.6092529296875 332.1850280761719 730.4927978515625 332.1850280761719 730.34912109375 C 332.1850280761719 730.2054443359375 332.3014221191406 730.0889892578125 332.4449768066406 730.0889892578125 Z" stroke="none" fill="#fff"/>
      </g>
    </g>
    <g id="Group_1898" data-name="Group 1898" transform="translate(129.219 544.033)">
      <g id="Path_3561" data-name="Path 3561" transform="translate(-136.85 -679.446)" fill="none">
        <path d="M138.413,679.446c-.374,0-.451.472-.369.92a1.125,1.125,0,0,0,.369.666,1.125,1.125,0,0,0,.369-.666C138.864,679.918,138.787,679.446,138.413,679.446Z" stroke="none"/>
        <path d="M 138.4127807617188 679.4459838867188 C 138.7870788574219 679.4459838867188 138.8638153076172 679.9177856445313 138.7821960449219 680.3656616210938 C 138.7005310058594 680.8137817382813 138.4127807617188 681.03173828125 138.4127807617188 681.03173828125 C 138.4127807617188 681.03173828125 138.125 680.8137817382813 138.0433654785156 680.3656616210938 C 137.9617462158203 679.9177856445313 138.0383453369141 679.4459838867188 138.4127807617188 679.4459838867188 Z" stroke="none" fill="#fff"/>
      </g>
      <g id="Path_3562" data-name="Path 3562" transform="translate(-129.219 -685.307)" fill="none">
        <path d="M129.227,686.5c-.074.367.373.535.829.544a.435.435,0,1,0,.146-.724C129.779,686.148,129.3,686.13,129.227,686.5Z" stroke="none"/>
        <path d="M 129.6720275878906 686.2009887695313 C 129.8353881835938 686.2009887695313 130.0233612060547 686.2453002929688 130.2016906738281 686.3162841796875 C 130.6248016357422 686.4848022460938 130.7815856933594 686.81005859375 130.7815856933594 686.81005859375 C 130.7815856933594 686.81005859375 130.5203247070313 687.0408935546875 130.0792236328125 687.0408935546875 C 130.0714721679688 687.0408935546875 130.0636138916016 687.040771484375 130.0557556152344 687.0406494140625 C 129.600341796875 687.0320434570313 129.1531524658203 686.86376953125 129.2271270751953 686.4967041015625 C 129.2699127197266 686.284423828125 129.4477691650391 686.2009887695313 129.6720275878906 686.2009887695313 Z" stroke="none" fill="#fff"/>
      </g>
      <g id="Path_3563" data-name="Path 3563" transform="translate(-132.227 -689.041)" fill="none">
        <path d="M132.819,691.747c.293.232.646-.09.861-.492a.435.435,0,1,0-.579-.458C132.758,691.1,132.526,691.515,132.819,691.747Z" stroke="none"/>
        <path d="M 133.0310211181641 691.8250732421875 C 132.9588012695313 691.8250122070313 132.8872528076172 691.801025390625 132.8189697265625 691.7469482421875 C 132.5255126953125 691.5145263671875 132.7582550048828 691.09716796875 133.1003875732422 690.7967529296875 C 133.4251556396484 690.5111694335938 133.7668151855469 690.50390625 133.8007202148438 690.50390625 C 133.8025360107422 690.50390625 133.803466796875 690.50390625 133.803466796875 690.50390625 C 133.803466796875 690.50390625 133.8938446044922 690.8533935546875 133.6796417236328 691.2552490234375 C 133.5152740478516 691.563720703125 133.2692260742188 691.8250732421875 133.0310211181641 691.8250732421875 Z" stroke="none" fill="#fff"/>
      </g>
      <g id="Path_3564" data-name="Path 3564" transform="translate(-139.097 -689.041)" fill="none">
        <path d="M141.606,691.747c-.293.232-.646-.09-.861-.492a.435.435,0,1,1,.579-.458C141.667,691.1,141.9,691.515,141.606,691.747Z" stroke="none"/>
        <path d="M 141.3943328857422 691.8250732421875 C 141.1561279296875 691.8250732421875 140.9100799560547 691.563720703125 140.7457275390625 691.2552490234375 C 140.5315246582031 690.8533935546875 140.6219024658203 690.50390625 140.6219024658203 690.50390625 C 140.6219024658203 690.50390625 140.6228332519531 690.50390625 140.6246490478516 690.50390625 C 140.6585540771484 690.50390625 141.0001983642578 690.5111694335938 141.3249664306641 690.7967529296875 C 141.6671295166016 691.09716796875 141.8998565673828 691.5145263671875 141.6063690185547 691.7469482421875 C 141.5380859375 691.801025390625 141.466552734375 691.8250732421875 141.3943328857422 691.8250732421875 Z" stroke="none" fill="#fff"/>
      </g>
      <g id="Path_3565" data-name="Path 3565" transform="translate(-139.466 -685.307)" fill="none">
        <path d="M142.583,686.5c.074.367-.373.535-.829.544a.435.435,0,1,1-.146-.724C142.032,686.148,142.51,686.13,142.583,686.5Z" stroke="none"/>
        <path d="M 142.1385803222656 686.2009887695313 C 142.3628387451172 686.2009887695313 142.5406799316406 686.284423828125 142.5834655761719 686.4967041015625 C 142.6574401855469 686.86376953125 142.2102661132813 687.0320434570313 141.7548522949219 687.0406494140625 C 141.7469787597656 687.040771484375 141.7391204833984 687.0408935546875 141.7313690185547 687.0408935546875 C 141.2901306152344 687.0408935546875 141.0290069580078 686.81005859375 141.0290069580078 686.81005859375 C 141.0290069580078 686.81005859375 141.1858215332031 686.4848022460938 141.6089019775391 686.3162841796875 C 141.7872314453125 686.2453002929688 141.9752197265625 686.2009887695313 142.1385803222656 686.2009887695313 Z" stroke="none" fill="#fff"/>
      </g>
      <g id="Path_3566" data-name="Path 3566" transform="translate(-137.044 -686.879)" fill="none">
        <path d="M138.976,688.381a.369.369,0,1,1-.369-.369A.369.369,0,0,1,138.976,688.381Z" stroke="none"/>
        <path d="M 138.6064147949219 688.0120849609375 C 138.8104400634766 688.0120849609375 138.9757995605469 688.1773681640625 138.9757995605469 688.3814697265625 C 138.9757995605469 688.58544921875 138.8104400634766 688.7508544921875 138.6064147949219 688.7508544921875 C 138.4023742675781 688.7508544921875 138.2370147705078 688.58544921875 138.2370147705078 688.3814697265625 C 138.2370147705078 688.1773681640625 138.4023742675781 688.0120849609375 138.6064147949219 688.0120849609375 Z" stroke="none" fill="#fff"/>
      </g>
    </g>
    <g id="Group_1899" data-name="Group 1899" transform="translate(149.867 523.385)">
      <g id="Path_3567" data-name="Path 3567" transform="translate(-292.911 -523.385)" fill="none">
        <path d="M294.474,523.385c-.374,0-.451.472-.369.92a.435.435,0,1,0,.739,0C294.925,523.857,294.848,523.385,294.474,523.385Z" stroke="none"/>
        <path d="M 294.473876953125 523.385009765625 C 294.8483276367188 523.385009765625 294.9249267578125 523.8565673828125 294.84326171875 524.3046875 C 294.7617797851563 524.7528076171875 294.473876953125 524.9707641601563 294.473876953125 524.9707641601563 C 294.473876953125 524.9707641601563 294.1861267089844 524.7528076171875 294.1044311523438 524.3046875 C 294.0227966308594 523.8565673828125 294.0995483398438 523.385009765625 294.473876953125 523.385009765625 Z" stroke="none" fill="#fff"/>
      </g>
      <g id="Path_3568" data-name="Path 3568" transform="translate(-285.28 -529.246)" fill="none">
        <path d="M285.288,530.435c-.074.367.373.535.829.544a.435.435,0,1,0,.146-.724C285.84,530.086,285.362,530.068,285.288,530.435Z" stroke="none"/>
        <path d="M 285.7329711914063 530.1392211914063 C 285.8963317871094 530.1392822265625 286.0843505859375 530.1835327148438 286.2626953125 530.2545776367188 C 286.685791015625 530.4231567382813 286.8426513671875 530.7484130859375 286.8426513671875 530.7484130859375 C 286.8426513671875 530.7484130859375 286.5816955566406 530.97900390625 286.140869140625 530.97900390625 C 286.1329040527344 530.97900390625 286.1247863769531 530.9789428710938 286.11669921875 530.978759765625 C 285.661376953125 530.9703979492188 285.2141723632813 530.802001953125 285.2880859375 530.43505859375 C 285.3308715820313 530.2227172851563 285.5086975097656 530.1392211914063 285.7329711914063 530.1392211914063 Z" stroke="none" fill="#fff"/>
      </g>
      <g id="Path_3569" data-name="Path 3569" transform="translate(-288.288 -532.98)" fill="none">
        <path d="M288.88,535.686c.293.232.646-.09.861-.492a.435.435,0,1,0-.579-.459C288.819,535.036,288.587,535.454,288.88,535.686Z" stroke="none"/>
        <path d="M 289.092041015625 535.76416015625 C 289.0198059082031 535.76416015625 288.9482421875 535.7400512695313 288.8799438476563 535.6859741210938 C 288.5865478515625 535.4536743164063 288.8192749023438 535.0361328125 289.161376953125 534.7355346679688 C 289.486328125 534.4500122070313 289.8283081054688 534.44287109375 289.8617553710938 534.44287109375 C 289.863525390625 534.44287109375 289.8644409179688 534.44287109375 289.8644409179688 534.44287109375 C 289.8644409179688 534.44287109375 289.9548034667969 534.7924194335938 289.7406616210938 535.1943969726563 C 289.5762939453125 535.5027465820313 289.3302307128906 535.76416015625 289.092041015625 535.76416015625 Z" stroke="none" fill="#fff"/>
      </g>
      <g id="Path_3570" data-name="Path 3570" transform="translate(-295.158 -532.98)" fill="none">
        <path d="M297.667,535.686c-.293.232-.646-.09-.861-.492a.435.435,0,1,1,.579-.459C297.728,535.036,297.961,535.454,297.667,535.686Z" stroke="none"/>
        <path d="M 297.455322265625 535.76416015625 C 297.2171630859375 535.76416015625 296.9711303710938 535.5027465820313 296.8067321777344 535.1943969726563 C 296.592529296875 534.7924194335938 296.6828918457031 534.44287109375 296.6828918457031 534.44287109375 C 296.6828918457031 534.44287109375 296.6838073730469 534.44287109375 296.6855773925781 534.44287109375 C 296.7190246582031 534.44287109375 297.0610046386719 534.4500122070313 297.385986328125 534.7355346679688 C 297.7281188964844 535.0361328125 297.9608459472656 535.4536743164063 297.6673889160156 535.6859741210938 C 297.5990905761719 535.7400512695313 297.5275573730469 535.76416015625 297.455322265625 535.76416015625 Z" stroke="none" fill="#fff"/>
      </g>
      <g id="Path_3571" data-name="Path 3571" transform="translate(-295.527 -529.246)" fill="none">
        <path d="M298.645,530.435c.074.367-.373.535-.829.544a.435.435,0,1,1-.146-.724C298.093,530.086,298.571,530.068,298.645,530.435Z" stroke="none"/>
        <path d="M 298.1996459960938 530.1392211914063 C 298.4239196777344 530.1392211914063 298.6017456054688 530.2227172851563 298.64453125 530.43505859375 C 298.7184753417969 530.802001953125 298.271240234375 530.9703979492188 297.8158264160156 530.978759765625 C 297.8077392578125 530.9789428710938 297.7996520996094 530.97900390625 297.7916870117188 530.97900390625 C 297.3510131835938 530.97900390625 297.0900268554688 530.7484130859375 297.0900268554688 530.7484130859375 C 297.0900268554688 530.7484130859375 297.2467956542969 530.4231567382813 297.669921875 530.2545776367188 C 297.8482360839844 530.1835327148438 298.0362854003906 530.1392211914063 298.1996459960938 530.1392211914063 Z" stroke="none" fill="#fff"/>
      </g>
      <g id="Path_3572" data-name="Path 3572" transform="translate(-293.105 -530.818)" fill="none">
        <path d="M295.037,532.32a.369.369,0,1,1-.369-.369A.369.369,0,0,1,295.037,532.32Z" stroke="none"/>
        <path d="M 294.6674194335938 531.9509887695313 C 294.8714599609375 531.9509887695313 295.0368041992188 532.1163940429688 295.0368041992188 532.3203125 C 295.0368041992188 532.5244750976563 294.8714599609375 532.6898803710938 294.6674194335938 532.6898803710938 C 294.4634399414063 532.6898803710938 294.2980346679688 532.5244750976563 294.2980346679688 532.3203125 C 294.2980346679688 532.1163940429688 294.4634399414063 531.9509887695313 294.6674194335938 531.9509887695313 Z" stroke="none" fill="#fff"/>
      </g>
    </g>
    <g id="Group_1900" data-name="Group 1900" transform="translate(137.959 547.64)">
      <g id="Path_3573" data-name="Path 3573" transform="translate(-201.001 -706.708)" fill="none">
        <path d="M202.173,706.708c-.281,0-.338.354-.277.69a.327.327,0,1,0,.554,0C202.511,707.062,202.454,706.708,202.173,706.708Z" stroke="none"/>
        <path d="M 202.1728057861328 706.7080078125 C 202.4535522460938 706.7080078125 202.5111083984375 707.0618286132813 202.4498596191406 707.39794921875 C 202.3885955810547 707.7340087890625 202.1728057861328 707.8973388671875 202.1728057861328 707.8973388671875 C 202.1728057861328 707.8973388671875 201.9568786621094 707.7340087890625 201.895751953125 707.39794921875 C 201.8345031738281 707.0618286132813 201.8920288085938 706.7080078125 202.1728057861328 706.7080078125 Z" stroke="none" fill="#fff"/>
      </g>
      <g id="Path_3574" data-name="Path 3574" transform="translate(-195.277 -711.104)" fill="none">
        <path d="M195.283,712c-.055.275.28.4.621.408a.327.327,0,1,0,.109-.543C195.7,711.735,195.339,711.721,195.283,712Z" stroke="none"/>
        <path d="M 195.6170806884766 711.7745361328125 C 195.7395935058594 711.7745361328125 195.8805541992188 711.8077392578125 196.0142517089844 711.8610229492188 C 196.3316650390625 711.9873657226563 196.4492797851563 712.2313232421875 196.4492797851563 712.2313232421875 C 196.4492797851563 712.2313232421875 196.2534484863281 712.4043579101563 195.9228668212891 712.4043579101563 C 195.9169006347656 712.4043579101563 195.910888671875 712.404296875 195.9048461914063 712.4041748046875 C 195.5633544921875 712.3978881835938 195.2279663085938 712.2715454101563 195.2833862304688 711.9964599609375 C 195.3154602050781 711.837158203125 195.4488677978516 711.7745361328125 195.6170806884766 711.7745361328125 Z" stroke="none" fill="#fff"/>
      </g>
      <g id="Path_3575" data-name="Path 3575" transform="translate(-197.533 -713.905)" fill="none">
        <path d="M197.977,715.934c.22.174.485-.067.646-.369a.327.327,0,1,0-.434-.344C197.932,715.447,197.757,715.76,197.977,715.934Z" stroke="none"/>
        <path d="M 198.1361846923828 715.9927368164063 C 198.0819854736328 715.9927368164063 198.0283050537109 715.9746704101563 197.97705078125 715.93408203125 C 197.7569122314453 715.7599487304688 197.9315643310547 715.4468994140625 198.1881103515625 715.2213745117188 C 198.4318389892578 715.0072631835938 198.6882629394531 715.0018920898438 198.7134704589844 715.0018920898438 C 198.7148132324219 715.0018920898438 198.7154998779297 715.0018920898438 198.7154998779297 715.0018920898438 C 198.7154998779297 715.0018920898438 198.7832336425781 715.2640380859375 198.6226043701172 715.5654296875 C 198.4992828369141 715.7966918945313 198.3148193359375 715.9927368164063 198.1361846923828 715.9927368164063 Z" stroke="none" fill="#fff"/>
      </g>
      <g id="Path_3576" data-name="Path 3576" transform="translate(-202.685 -713.905)" fill="none">
        <path d="M204.568,715.934c-.22.174-.485-.067-.645-.369a.327.327,0,1,1,.434-.344C204.613,715.447,204.788,715.76,204.568,715.934Z" stroke="none"/>
        <path d="M 204.4083709716797 715.9927368164063 C 204.2297515869141 715.9927368164063 204.0453338623047 715.7966918945313 203.9220886230469 715.5654296875 C 203.7613220214844 715.2640380859375 203.8290863037109 715.0018920898438 203.8290863037109 715.0018920898438 C 203.8290863037109 715.0018920898438 203.8297729492188 715.0018920898438 203.8311157226563 715.0018920898438 C 203.8563079833984 715.0018920898438 204.1126861572266 715.0072631835938 204.3564453125 715.2213745117188 C 204.6131286621094 715.4468994140625 204.7876586914063 715.7599487304688 204.5675048828125 715.93408203125 C 204.5162506103516 715.9746704101563 204.4625701904297 715.9927368164063 204.4083709716797 715.9927368164063 Z" stroke="none" fill="#fff"/>
      </g>
      <g id="Path_3577" data-name="Path 3577" transform="translate(-202.963 -711.104)" fill="none">
        <path d="M205.3,712c.055.275-.28.4-.622.408a.327.327,0,1,1-.109-.543C204.887,711.735,205.245,711.721,205.3,712Z" stroke="none"/>
        <path d="M 204.9671325683594 711.7745361328125 C 205.1353454589844 711.7745361328125 205.2687225341797 711.837158203125 205.3008728027344 711.9964599609375 C 205.3563537597656 712.2715454101563 205.0209655761719 712.3978881835938 204.6793365478516 712.4041748046875 C 204.6732940673828 712.404296875 204.6672668457031 712.4043579101563 204.6613159179688 712.4043579101563 C 204.3306732177734 712.4043579101563 204.1349792480469 712.2313232421875 204.1349792480469 712.2313232421875 C 204.1349792480469 712.2313232421875 204.2526245117188 711.9873657226563 204.5699005126953 711.8610229492188 C 204.7036590576172 711.8077392578125 204.8446350097656 711.7745361328125 204.9671325683594 711.7745361328125 Z" stroke="none" fill="#fff"/>
      </g>
      <g id="Ellipse_32" data-name="Ellipse 32" transform="translate(0.895 0.85)" fill="none" stroke="#fff" stroke-width="1">
        <circle cx="0.277" cy="0.277" r="0.277" stroke="none"/>
        <circle cx="0.277" cy="0.277" r="0.223" fill="none"/>
      </g>
    </g>
    <g id="Group_1901" data-name="Group 1901" transform="translate(149.474 542.989)">
      <g id="Path_3578" data-name="Path 3578" transform="translate(-286.905 -671.554)" fill="none">
        <path d="M287.846,671.554c-.225,0-.272.284-.223.554a.262.262,0,1,0,.445,0C288.118,671.838,288.072,671.554,287.846,671.554Z" stroke="none"/>
        <path d="M 287.8462524414063 671.5540161132813 C 288.0716552734375 671.5540161132813 288.1178894042969 671.838134765625 288.0687561035156 672.1080322265625 C 288.0195617675781 672.3778686523438 287.8462524414063 672.5092163085938 287.8462524414063 672.5092163085938 C 287.8462524414063 672.5092163085938 287.6729431152344 672.3778686523438 287.6236877441406 672.1080322265625 C 287.5746154785156 671.838134765625 287.6208190917969 671.5540161132813 287.8462524414063 671.5540161132813 Z" stroke="none" fill="#fff"/>
      </g>
      <g id="Path_3579" data-name="Path 3579" transform="translate(-282.309 -675.084)" fill="none">
        <path d="M282.314,675.8c-.045.221.225.322.5.328a.262.262,0,1,0,.088-.436C282.646,675.59,282.359,675.58,282.314,675.8Z" stroke="none"/>
        <path d="M 282.5821838378906 675.6226196289063 C 282.6805419921875 675.6226196289063 282.793701171875 675.6492309570313 282.9010009765625 675.6920166015625 C 283.1558532714844 675.7935791015625 283.2502746582031 675.9893798828125 283.2502746582031 675.9893798828125 C 283.2502746582031 675.9893798828125 283.0931091308594 676.12841796875 282.8274230957031 676.12841796875 C 282.8227233886719 676.12841796875 282.8179626464844 676.12841796875 282.8131713867188 676.1282958984375 C 282.5389404296875 676.123046875 282.2695922851563 676.021728515625 282.3141174316406 675.80078125 C 282.3398132324219 675.6729125976563 282.447021484375 675.6226196289063 282.5821838378906 675.6226196289063 Z" stroke="none" fill="#fff"/>
      </g>
      <g id="Path_3580" data-name="Path 3580" transform="translate(-284.121 -677.333)" fill="none">
        <path d="M284.478,678.963c.177.14.389-.054.518-.3a.262.262,0,1,0-.349-.276C284.441,678.571,284.3,678.823,284.478,678.963Z" stroke="none"/>
        <path d="M 284.6052856445313 679.009765625 C 284.561767578125 679.009765625 284.5187072753906 678.9952392578125 284.4776000976563 678.9627075195313 C 284.3008422851563 678.82275390625 284.4409790039063 678.5712890625 284.6469421386719 678.3903198242188 C 284.8430786132813 678.2182006835938 285.04931640625 678.2139892578125 285.0689697265625 678.2139892578125 C 285.0699768066406 678.2139892578125 285.0704956054688 678.2139892578125 285.0704956054688 678.2139892578125 C 285.0704956054688 678.2139892578125 285.1248779296875 678.424560546875 284.9958190917969 678.6666870117188 C 284.8968505859375 678.8524169921875 284.7486877441406 679.009765625 284.6052856445313 679.009765625 Z" stroke="none" fill="#fff"/>
      </g>
      <g id="Path_3581" data-name="Path 3581" transform="translate(-288.258 -677.333)" fill="none">
        <path d="M289.769,678.963c-.177.14-.389-.054-.518-.3a.262.262,0,1,1,.349-.276C289.806,678.571,289.946,678.823,289.769,678.963Z" stroke="none"/>
        <path d="M 289.6416320800781 679.009765625 C 289.4981689453125 679.009765625 289.3500061035156 678.8524169921875 289.2510070800781 678.6666870117188 C 289.1220092773438 678.424560546875 289.1763916015625 678.2139892578125 289.1763916015625 678.2139892578125 C 289.1763916015625 678.2139892578125 289.1769104003906 678.2139892578125 289.1779174804688 678.2139892578125 C 289.1975708007813 678.2139892578125 289.4037780761719 678.2182006835938 289.5998840332031 678.3903198242188 C 289.8059997558594 678.5712890625 289.9461364746094 678.82275390625 289.7693786621094 678.9627075195313 C 289.7282409667969 678.9952392578125 289.6851501464844 679.009765625 289.6416320800781 679.009765625 Z" stroke="none" fill="#fff"/>
      </g>
      <g id="Path_3582" data-name="Path 3582" transform="translate(-288.481 -675.084)" fill="none">
        <path d="M290.358,675.8c.045.221-.225.322-.5.328a.262.262,0,1,1-.088-.436C290.026,675.59,290.314,675.58,290.358,675.8Z" stroke="none"/>
        <path d="M 290.0901489257813 675.6226196289063 C 290.2252807617188 675.6226196289063 290.3324584960938 675.6729125976563 290.3582153320313 675.80078125 C 290.4028015136719 676.021728515625 290.1334533691406 676.123046875 289.859130859375 676.1282958984375 C 289.8543395996094 676.12841796875 289.8495788574219 676.12841796875 289.8448791503906 676.12841796875 C 289.5792236328125 676.12841796875 289.4219970703125 675.9893798828125 289.4219970703125 675.9893798828125 C 289.4219970703125 675.9893798828125 289.5164794921875 675.7935791015625 289.7713012695313 675.6920166015625 C 289.8786315917969 675.6492309570313 289.9917907714844 675.6226196289063 290.0901489257813 675.6226196289063 Z" stroke="none" fill="#fff"/>
      </g>
      <g id="Ellipse_33" data-name="Ellipse 33" transform="translate(0.719 0.683)" fill="none" stroke="#fff" stroke-width="1">
        <circle cx="0.223" cy="0.223" r="0.223" stroke="none"/>
        <circle cx="0.223" cy="0.223" r="0.277" fill="none"/>
      </g>
    </g>
  </g>
</svg>
