<svg xmlns="http://www.w3.org/2000/svg" xmlns:xlink="http://www.w3.org/1999/xlink" width="300.237" height="150.354" viewBox="0 0 300.237 150.354">
  <defs>
    <clipPath id="clip-path">
      <circle id="Ellipse_45" data-name="Ellipse 45" cx="18.74" cy="18.74" r="18.74" fill="none"/>
    </clipPath>
    <linearGradient id="linear-gradient" x1="0.5" y1="1" x2="0.5" gradientUnits="objectBoundingBox">
      <stop offset="0.174" stop-color="#fff" stop-opacity="0"/>
      <stop offset="0.756" stop-color="#fff" stop-opacity="0.302"/>
    </linearGradient>
  </defs>
  <g id="Group_2197" data-name="Group 2197" transform="translate(-44.615 -106.646)">
    <path id="Rectangle_1813" data-name="Rectangle 1813" d="M.559,0H288.5a.559.559,0,0,1,.559.559v0a.559.559,0,0,1-.559.559H.559A.559.559,0,0,1,0,.559v0A.559.559,0,0,1,.559,0Z" transform="translate(48.705 247.688)" fill="#283250"/>
    <g id="Group_2060" data-name="Group 2060" transform="translate(14.252 -15.144)">
      <g id="Group_2038" data-name="Group 2038" transform="translate(30.363 122.286)">
        <path id="Path_3686" data-name="Path 3686" d="M328.138,267.892c-3.726-11.14-15.781-17.058-27.08-20.271s-23.582-5.222-32.394-12.99c-7.147-6.3-10.908-15.466-15.249-23.947s-10.109-17.1-19.052-20.383c-7.589-2.788-16.239-1.233-23.843-3.981-13.911-5.027-18.952-21.592-27.625-33.574A55.345,55.345,0,0,0,141.8,130.28c-4.336-.245-8.816.059-12.758,1.882-7.238,3.347-11.267,10.994-15.143,17.962-5.585,10.04-12.141,19.953-21.646,26.4-5.54,3.761-11.319,5.258-17.373,7.884A67.185,67.185,0,0,0,58.39,194.607c-4.162,3.5-7.952,7.593-10.265,12.515-4.523,9.626-3.071,21.6-9.078,30.379-2.425,3.544-5.218,6.907-7.009,10.841-1.724,3.788-2.526,8.45-.386,12.235,1.907,3.373,5.416,5.522,8.656,7.442" transform="translate(-30.363 -126.717)" fill="#e6ecff" opacity="0.45" style="mix-blend-mode: multiply;isolation: isolate"/>
        <path id="Path_3687" data-name="Path 3687" d="M332.582,263.587c-1.808-13.885-16.759-20.674-28.058-23.887s-23.582-5.222-32.394-12.99c-7.147-6.3-10.908-15.466-15.249-23.947s-10.109-17.1-19.052-20.383c-7.589-2.788-16.239-1.233-23.843-3.981-13.911-5.027-18.952-21.591-27.625-33.574a55.346,55.346,0,0,0-41.095-22.467c-4.336-.245-8.816.059-12.758,1.882-7.238,3.346-11.267,10.994-15.143,17.962-5.585,10.039-12.141,19.952-21.646,26.4-5.54,3.76-12.166,4.557-18.22,7.183-12.47,5.408-25.811,15.541-29.151,29.52a121.32,121.32,0,0,0-2.244,16.246c-1.082,10.8-10.807,17.5-8.467,27.676,1.314,5.717,5.794,12.258,11.454,14.354" transform="translate(-34.23 -122.286)" fill="none" stroke="#e6ecff" stroke-miterlimit="10" stroke-width="1" opacity="0.45" style="mix-blend-mode: multiply;isolation: isolate"/>
        <g id="Group_2037" data-name="Group 2037" transform="translate(3.44 141.081)">
          <rect id="Rectangle_1821" data-name="Rectangle 1821" width="296.797" height="0.441" fill="#8f98d8"/>
        </g>
      </g>
      <g id="Group_2050" data-name="Group 2050" transform="translate(71.292 158.716)">
        <path id="Rectangle_1822" data-name="Rectangle 1822" d="M3.8,0H83.522a3.8,3.8,0,0,1,3.8,3.8V105.092a0,0,0,0,1,0,0H0a0,0,0,0,1,0,0V3.8A3.8,3.8,0,0,1,3.8,0Z" transform="translate(0 0)" fill="#fff"/>
        <path id="Rectangle_1823" data-name="Rectangle 1823" d="M3.8,0H21.537a3.8,3.8,0,0,1,3.8,3.8V105.092a0,0,0,0,1,0,0H0a0,0,0,0,1,0,0V3.8A3.8,3.8,0,0,1,3.8,0Z" transform="translate(0 0)" fill="#c9d0f4"/>
        <line id="Line_6" data-name="Line 6" x2="3.095" transform="translate(19.891 3.369)" fill="none" stroke="#8f98d8" stroke-miterlimit="10" stroke-width="1"/>
        <line id="Line_7" data-name="Line 7" x2="3.095" transform="translate(19.891 5.528)" fill="none" stroke="#8f98d8" stroke-miterlimit="10" stroke-width="1"/>
        <line id="Line_8" data-name="Line 8" x2="3.095" transform="translate(19.891 7.687)" fill="none" stroke="#8f98d8" stroke-miterlimit="10" stroke-width="1"/>
        <line id="Line_9" data-name="Line 9" x1="25.335" transform="translate(0 14.622)" fill="none" stroke="#8f98d8" stroke-miterlimit="10" stroke-width="1"/>
        <line id="Line_10" data-name="Line 10" x1="61.985" transform="translate(25.335 14.622)" fill="none" stroke="#cbd6f4" stroke-miterlimit="10" stroke-width="1"/>
        <line id="Line_11" data-name="Line 11" x1="25.335" transform="translate(0 96.212)" fill="none" stroke="#8f98d8" stroke-miterlimit="10" stroke-width="1"/>
        <line id="Line_12" data-name="Line 12" x1="61.985" transform="translate(25.335 96.212)" fill="none" stroke="#cbd6f4" stroke-miterlimit="10" stroke-width="1"/>
        <path id="Path_3688" data-name="Path 3688" d="M264.873,218.843a1.323,1.323,0,1,1-1.323-1.323A1.324,1.324,0,0,1,264.873,218.843Z" transform="translate(-201.002 -211.992)" fill="#dce4f9"/>
        <line id="Line_13" data-name="Line 13" x2="3.99" transform="translate(60.552 10.654)" fill="none" stroke="#dce4f9" stroke-miterlimit="10" stroke-width="1"/>
        <path id="Path_3689" data-name="Path 3689" d="M285.985,218.843a1.323,1.323,0,1,1-1.323-1.323A1.324,1.324,0,0,1,285.985,218.843Z" transform="translate(-212.813 -211.992)" fill="#dce4f9"/>
        <line id="Line_14" data-name="Line 14" x2="3.99" transform="translate(69.854 10.654)" fill="none" stroke="#dce4f9" stroke-miterlimit="10" stroke-width="1"/>
        <path id="Path_3690" data-name="Path 3690" d="M307.1,218.843a1.323,1.323,0,1,1-1.323-1.323A1.324,1.324,0,0,1,307.1,218.843Z" transform="translate(-224.623 -211.992)" fill="#dce4f9"/>
        <line id="Line_15" data-name="Line 15" x2="3.991" transform="translate(79.155 10.654)" fill="none" stroke="#dce4f9" stroke-miterlimit="10" stroke-width="1"/>
        <circle id="Ellipse_40" data-name="Ellipse 40" cx="2.675" cy="2.675" r="2.675" transform="translate(32.838 4.71)" fill="#dce4f9"/>
        <line id="Line_16" data-name="Line 16" x2="7.345" transform="translate(31.841 11.435)" fill="none" stroke="#dce4f9" stroke-miterlimit="10" stroke-width="1"/>
        <line id="Line_17" data-name="Line 17" y2="14.622" transform="translate(45.065 0)" fill="none" stroke="#cbd6f4" stroke-miterlimit="10" stroke-width="1"/>
        <path id="Path_3691" data-name="Path 3691" d="M234.622,214.158h-1.841a.77.77,0,0,1-.77-.77h0a.77.77,0,0,1,.77-.769h1.841a.77.77,0,0,1,.77.769h0A.77.77,0,0,1,234.622,214.158Z" transform="translate(-184.1 -209.25)" fill="#dce4f9"/>
        <path id="Path_3692" data-name="Path 3692" d="M234.622,221.36h-1.841a.77.77,0,0,1-.77-.769h0a.77.77,0,0,1,.77-.77h1.841a.77.77,0,0,1,.77.77h0A.77.77,0,0,1,234.622,221.36Z" transform="translate(-184.1 -213.279)" fill="#dce4f9"/>
        <path id="Path_3693" data-name="Path 3693" d="M234.622,228.563h-1.841a.769.769,0,0,1-.77-.769h0a.77.77,0,0,1,.77-.769h1.841a.77.77,0,0,1,.77.769h0A.769.769,0,0,1,234.622,228.563Z" transform="translate(-184.1 -217.309)" fill="#dce4f9"/>
        <path id="Path_3694" data-name="Path 3694" d="M245.152,214.158H245a.77.77,0,0,1-.77-.77h0a.769.769,0,0,1,.77-.769h.151a.769.769,0,0,1,.769.769h0A.77.77,0,0,1,245.152,214.158Z" transform="translate(-190.935 -209.25)" fill="#dce4f9"/>
        <path id="Path_3695" data-name="Path 3695" d="M245.152,221.36H245a.77.77,0,0,1-.77-.769h0a.77.77,0,0,1,.77-.77h.151a.77.77,0,0,1,.769.77h0A.769.769,0,0,1,245.152,221.36Z" transform="translate(-190.935 -213.279)" fill="#dce4f9"/>
        <path id="Path_3696" data-name="Path 3696" d="M245.152,228.563H245a.769.769,0,0,1-.77-.769h0a.769.769,0,0,1,.77-.769h.151a.769.769,0,0,1,.769.769h0A.769.769,0,0,1,245.152,228.563Z" transform="translate(-190.935 -217.309)" fill="#dce4f9"/>
        <path id="Path_3697" data-name="Path 3697" d="M159.895,321.418h0a1.019,1.019,0,0,1-1.02-1.019v-63.63a1.019,1.019,0,0,1,1.02-1.02h0a1.019,1.019,0,0,1,1.019,1.02V320.4A1.019,1.019,0,0,1,159.895,321.418Z" transform="translate(-143.185 -233.378)" fill="#8f98d8" opacity="0.35"/>
        <path id="Path_3698" data-name="Path 3698" d="M139.575,321.418h0a1.019,1.019,0,0,1-1.019-1.019v-63.63a1.019,1.019,0,0,1,1.019-1.02h0a1.019,1.019,0,0,1,1.02,1.02V320.4A1.019,1.019,0,0,1,139.575,321.418Z" transform="translate(-131.818 -233.378)" fill="#8f98d8" opacity="0.35"/>
        <g id="Group_2049" data-name="Group 2049" transform="translate(24.951 21.207)">
          <g id="Group_2047" data-name="Group 2047">
            <circle id="Ellipse_41" data-name="Ellipse 41" cx="23.728" cy="23.728" r="23.728" transform="matrix(0.545, -0.838, 0.838, 0.545, 0, 39.788)" fill="#c5cef9"/>
            <g id="Group_2043" data-name="Group 2043" transform="translate(11.432 11.489)">
              <g id="Group_2039" data-name="Group 2039" transform="translate(20.937)">
                <path id="Path_3699" data-name="Path 3699" d="M254.277,279.642a.457.457,0,1,1-.457-.456A.457.457,0,0,1,254.277,279.642Z" transform="translate(-253.364 -279.186)" fill="#8e9fdd"/>
                <path id="Path_3700" data-name="Path 3700" d="M254.277,374.685a.457.457,0,1,1-.457-.457A.457.457,0,0,1,254.277,374.685Z" transform="translate(-253.364 -332.355)" fill="#8e9fdd"/>
              </g>
              <g id="Group_2040" data-name="Group 2040" transform="translate(6.132 6.132)">
                <path id="Path_3701" data-name="Path 3701" d="M287.746,293.884a.457.457,0,1,1,0-.645A.457.457,0,0,1,287.746,293.884Z" transform="translate(-257.358 -293.104)" fill="#8e9fdd"/>
                <circle id="Ellipse_42" data-name="Ellipse 42" cx="0.457" cy="0.457" r="0.457" transform="translate(0 29.609)" fill="#8e9fdd"/>
              </g>
              <g id="Group_2041" data-name="Group 2041" transform="translate(0 20.937)">
                <path id="Path_3702" data-name="Path 3702" d="M301.342,327.62a.457.457,0,1,1,.456-.457A.457.457,0,0,1,301.342,327.62Z" transform="translate(-259.012 -326.707)" fill="#8e9fdd"/>
                <path id="Path_3703" data-name="Path 3703" d="M206.3,327.62a.457.457,0,1,1,.456-.457A.457.457,0,0,1,206.3,327.62Z" transform="translate(-205.843 -326.707)" fill="#8e9fdd"/>
              </g>
              <g id="Group_2042" data-name="Group 2042" transform="translate(6.132 6.132)">
                <circle id="Ellipse_43" data-name="Ellipse 43" cx="0.457" cy="0.457" r="0.457" fill="#8e9fdd"/>
                <path id="Path_3704" data-name="Path 3704" d="M287.746,360.443a.457.457,0,1,1-.646,0A.457.457,0,0,1,287.746,360.443Z" transform="translate(-257.358 -330.701)" fill="#8e9fdd"/>
              </g>
            </g>
            <path id="Path_3705" data-name="Path 3705" d="M233.508,319.349a23.73,23.73,0,1,1-9.236-45.59" transform="translate(-191.447 -264.661)" fill="none" stroke="#8e9fdd" stroke-miterlimit="10" stroke-width="1"/>
            <path id="Path_3706" data-name="Path 3706" d="M295.164,340.3a23.748,23.748,0,0,1-9.129,13.618" transform="translate(-239.272 -301.883)" fill="none" stroke="#8e9fdd" stroke-miterlimit="10" stroke-width="1"/>
            <circle id="Ellipse_44" data-name="Ellipse 44" cx="18.74" cy="18.74" r="18.74" transform="translate(14.085 14.085)" fill="#8389ed"/>
            <g id="Group_2046" data-name="Group 2046" transform="translate(14.085 14.085)">
              <g id="Group_2045" data-name="Group 2045" clip-path="url(#clip-path)">
                <g id="Group_2044" data-name="Group 2044" transform="translate(-12.045 11.798)">
                  <path id="Path_3707" data-name="Path 3707" d="M184.525,314.719c2.238-1.9,5.338-2.358,8.267-2.542,5.125-.322,11.54-.756,16.469.718,5.343,1.6,10.389,5.714,14.9,8.859a9.38,9.38,0,0,1,4.782,7.4c.378,1.657-3.527,2.811-4.68,2.932a21.471,21.471,0,0,1-6.16-.6,60.263,60.263,0,0,0-10.963-1.055" transform="translate(-184.525 -311.858)" fill="#c0caf2"/>
                  <path id="Path_3708" data-name="Path 3708" d="M198.154,317.614a34.57,34.57,0,0,1,7.169,2.907c2.378,1.108,5,1.544,7.488,2.31,6.133,1.885,11.475,5.71,16.419,9.8a3.27,3.27,0,0,1,1.114,1.328,2.265,2.265,0,0,1-1.331,2.588,13.651,13.651,0,0,1-5.026.867c-2.486.022-4.981-.137-7.46-.3-4.974-.323-9.939-.812-14.924-.924a20.582,20.582,0,0,0-6.795.684" transform="translate(-190.278 -315.078)" fill="#9eaeef"/>
                </g>
              </g>
            </g>
          </g>
          <path id="Path_3709" data-name="Path 3709" d="M245.986,349.648H218.021a18.591,18.591,0,0,0,8.121,7.33v1.031h0v18.119a1.125,1.125,0,0,0,1.125,1.125h21.815a1.125,1.125,0,0,0,1.125-1.125V353.87A4.223,4.223,0,0,0,245.986,349.648Z" transform="translate(-201.223 -307.115)" fill="#e6eaff"/>
          <line id="Line_18" data-name="Line 18" x2="24.031" transform="translate(24.92 62.43)" fill="none" stroke="#92a3dd" stroke-miterlimit="10" stroke-width="5" opacity="0.35"/>
          <line id="Line_19" data-name="Line 19" x2="24.031" transform="translate(24.92 65.604)" fill="none" stroke="#92a3dd" stroke-miterlimit="10" stroke-width="3" opacity="0.35"/>
          <path id="Path_3710" data-name="Path 3710" d="M229.807,360.723v-2.858a1.522,1.522,0,0,0-1.523-1.522H224.6" transform="translate(-204.903 -310.86)" fill="none" stroke="#bbc4f2" stroke-miterlimit="10" stroke-width="1"/>
          <path id="Path_3711" data-name="Path 3711" d="M277.988,279.186a23.8,23.8,0,0,1,12.1,13.756" transform="translate(-234.77 -267.697)" fill="none" stroke="#8e9fdd" stroke-miterlimit="10" stroke-width="1"/>
          <g id="Group_2048" data-name="Group 2048" transform="translate(56.553 9.098)">
            <ellipse id="Ellipse_46" data-name="Ellipse 46" cx="15.175" cy="19.831" rx="15.175" ry="19.831" transform="translate(3.896 3.896)" fill="url(#linear-gradient)"/>
            <path id="Path_3712" data-name="Path 3712" d="M327.327,273.759c-10.532,0-19.071,10.623-19.071,23.728s8.539,23.728,19.071,23.728S346.4,310.591,346.4,297.487,337.86,273.759,327.327,273.759Zm0,43.559c-8.367,0-15.175-8.9-15.175-19.832s6.807-19.831,15.175-19.831,15.175,8.9,15.175,19.831S335.7,317.318,327.327,317.318Z" transform="translate(-308.256 -273.759)" fill="#c5cef9"/>
            <path id="Path_3713" data-name="Path 3713" d="M347.45,302.434c0,10.935-6.807,19.832-15.175,19.832s-15.175-8.9-15.175-19.832,6.807-19.831,15.175-19.831" transform="translate(-313.204 -278.707)" fill="none" stroke="#8e9fdd" stroke-miterlimit="10" stroke-width="1"/>
            <line id="Line_20" data-name="Line 20" y1="20.494" x2="10.332" transform="translate(8.74 9.808)" fill="none" stroke="#8e9fdd" stroke-miterlimit="10" stroke-width="1"/>
            <line id="Line_21" data-name="Line 21" y1="4.799" x2="2.419" transform="translate(20.721 13.993)" fill="none" stroke="#8e9fdd" stroke-miterlimit="10" stroke-width="1"/>
            <line id="Line_22" data-name="Line 22" y1="12.283" x2="6.192" transform="translate(12.808 22.205)" fill="none" stroke="#8e9fdd" stroke-miterlimit="10" stroke-width="1"/>
            <line id="Line_23" data-name="Line 23" y1="14.173" x2="7.145" transform="translate(21.082 21.438)" fill="none" stroke="#8e9fdd" stroke-miterlimit="10" stroke-width="1"/>
          </g>
        </g>
      </g>
      <g id="Group_2051" data-name="Group 2051" transform="translate(34.118 167.073)">
        <path id="Path_3714" data-name="Path 3714" d="M122.052,321.415c-.181-10.534,1.125-19.645,7.252-28.766a92.811,92.811,0,0,1,10.324-12.95,60.334,60.334,0,0,1-3.464,16.7c-1.758,4.569-3.588,8.3-5.311,12.87a42.054,42.054,0,0,1-6.447,11.189" transform="translate(-85.403 -255.134)" fill="#d7def9"/>
        <path id="Path_3715" data-name="Path 3715" d="M138.248,280.306q-3.785,5.783-7.347,11.681a77.318,77.318,0,0,0-6.223,11.556,74,74,0,0,0-4.43,17.674" transform="translate(-84.403 -255.474)" fill="none" stroke="#9eaeef" stroke-miterlimit="10" stroke-width="1"/>
        <path id="Path_3716" data-name="Path 3716" d="M138.248,280.306c-2.115,4.853-3.814,9.212-6.2,13.139a92.756,92.756,0,0,0-6.095,13.057c-2.241,5.7-4.8,10.678-5.708,14.714" transform="translate(-84.403 -255.474)" fill="none" stroke="#9eaeef" stroke-miterlimit="10" stroke-width="1"/>
        <path id="Path_3717" data-name="Path 3717" d="M140.595,280.306c-1.717,9.5-6.818,19.82-10.625,29.018-1.168,2.821-2.377,5.628-3.588,8.434l-1.938,4.494" transform="translate(-86.75 -255.474)" fill="none" stroke="#9eaeef" stroke-miterlimit="10" stroke-width="1"/>
        <path id="Path_3718" data-name="Path 3718" d="M109.927,303.455s-1.049-15.4,1.233-22.548c2.868-8.99,5.029-33.849,7.37-38.569,2.735,6.235,5.179,23.457,3.943,33.8-1.264,10.587-3.936,18.491-11.107,26.563" transform="translate(-78.494 -234.233)" fill="#abb8ef"/>
        <path id="Path_3719" data-name="Path 3719" d="M119.788,242.338c-.743,8.016-1.914,17.2-2.644,26.019-.137,1.649-.273,3.3-.518,4.938-.294,1.966-.744,3.9-1.112,5.857-.866,4.593-1.28,9.26-2,13.877q-.63,4.018-1.572,7.979" transform="translate(-79.752 -234.233)" fill="none" stroke="#7281ce" stroke-miterlimit="10" stroke-width="1"/>
        <path id="Path_3720" data-name="Path 3720" d="M122.28,242.338c1.448,5.136,1.41,8.925,1.94,14.235a90.716,90.716,0,0,1-.057,11.415c-.147,3.314-.587,6.606-1.057,9.89a50.589,50.589,0,0,1-1.862,8.95c-.689,2.057-1.627,4.021-2.418,6.041a44.87,44.87,0,0,0-2.436,8.734" transform="translate(-82.245 -234.233)" fill="none" stroke="#7281ce" stroke-miterlimit="10" stroke-width="1"/>
        <path id="Path_3721" data-name="Path 3721" d="M119.665,242.338c2.128,19.173-.339,39.948-7.949,58.152" transform="translate(-79.629 -234.233)" fill="none" stroke="#7281ce" stroke-miterlimit="10" stroke-width="1"/>
        <path id="Path_3722" data-name="Path 3722" d="M100.076,288.958c-.182-5.259-1.761-10.274-2.825-15.377-3.39-16.242-1.526-33.6,3.242-49.347a.356.356,0,0,1,.7.022,111.49,111.49,0,0,1,3.229,15.676,123.123,123.123,0,0,1,.5,13.782c-.013,12.348-.03,24.755-1.621,36.952" transform="translate(-70.57 -223.942)" fill="#c3d2f4"/>
        <path id="Path_3723" data-name="Path 3723" d="M104.785,226.521q-.773,6.424-1.452,12.86c-.682,6.455-.432,13.637-.327,20.127.119,7.334,1.074,17.372.911,24.706" transform="translate(-74.683 -225.385)" fill="none" stroke="#9eaeef" stroke-miterlimit="10" stroke-width="1"/>
        <path id="Path_3724" data-name="Path 3724" d="M108.03,227.311c.714,20.659,2.521,42.327,1.208,62.957" transform="translate(-77.567 -225.827)" fill="none" stroke="#9eaeef" stroke-miterlimit="10" stroke-width="1"/>
        <path id="Path_3725" data-name="Path 3725" d="M61.148,319.547c-3.288-5.557-6.526-11.141-8.7-17.239a49.476,49.476,0,0,0-6.68-12.363c-2.409-3.318-5.367-6.606-6.878-10.71a19.131,19.131,0,0,1,13.708,5.576c3.16,3.181,5.09,7.385,6.458,11.655a172.015,172.015,0,0,1,5.941,24.39" transform="translate(-38.887 -254.873)" fill="#c3d2f4"/>
        <path id="Path_3726" data-name="Path 3726" d="M38.887,279.238c4.445,4.039,9.248,8.689,14.277,19.61,2.6,5.649,6.615,15.169,9.744,20.971" transform="translate(-38.887 -254.876)" fill="none" stroke="#9eaeef" stroke-miterlimit="10" stroke-width="1"/>
        <path id="Path_3727" data-name="Path 3727" d="M38.887,279.238c4.094,1.286,10.612,8.342,13.222,12.225,5.121,7.617,7.2,18.726,12.982,28.881" transform="translate(-38.887 -254.876)" fill="none" stroke="#9eaeef" stroke-miterlimit="10" stroke-width="1"/>
        <path id="Path_3728" data-name="Path 3728" d="M38.887,279.238c9.021,1.588,16.356,11.114,19.952,18.519,2.717,5.594,4.407,11.7,6.745,17.5" transform="translate(-38.887 -254.876)" fill="none" stroke="#9eaeef" stroke-miterlimit="10" stroke-width="1"/>
        <path id="Path_3729" data-name="Path 3729" d="M82.235,302.609s-4.619-10.62-5.459-13.089c-1.638-4.812-3.18-10.135-4.4-15.075-4.441-17.994-4.063-29.756-3.249-29.756s4.16,3.955,7.625,11.547a92.117,92.117,0,0,1,5.4,15.085c2.616,10.076,4.563,17.006,5.213,30.766" transform="translate(-55.521 -235.548)" fill="#abb8ef"/>
        <path id="Path_3730" data-name="Path 3730" d="M69.246,245.348A225.862,225.862,0,0,0,77.7,284.153q.176.566.352,1.132c1.629,5.264,2.611,10.718,4.834,15.8" transform="translate(-55.871 -235.917)" fill="none" stroke="#7281ce" stroke-miterlimit="10" stroke-width="1"/>
        <path id="Path_3731" data-name="Path 3731" d="M69.771,244.689c4.274,15.759,11.345,36.6,15.3,57.088" transform="translate(-56.164 -235.548)" fill="none" stroke="#7281ce" stroke-miterlimit="10" stroke-width="1"/>
        <path id="Path_3732" data-name="Path 3732" d="M69.771,244.689c6.588,9.738,14.716,40.986,16.688,57.088" transform="translate(-56.164 -235.548)" fill="none" stroke="#7281ce" stroke-miterlimit="10" stroke-width="1"/>
        <rect id="Rectangle_1824" data-name="Rectangle 1824" width="28.82" height="33.795" transform="translate(16.026 62.939)" fill="#fff"/>
        <line id="Line_24" data-name="Line 24" x2="28.82" transform="translate(16.026 84.807)" fill="none" stroke="#d7ddf4" stroke-miterlimit="10" stroke-width="1" opacity="0.25"/>
        <line id="Line_25" data-name="Line 25" x2="28.82" transform="translate(16.026 87.372)" fill="none" stroke="#d7ddf4" stroke-miterlimit="10" stroke-width="3" opacity="0.25"/>
        <line id="Line_26" data-name="Line 26" x2="28.82" transform="translate(16.026 91.143)" fill="none" stroke="#d7ddf4" stroke-miterlimit="10" stroke-width="5" opacity="0.25"/>
      </g>
      <g id="Group_2053" data-name="Group 2053" transform="translate(77.728 223.679)">
        <path id="Path_3733" data-name="Path 3733" d="M157.57,369.578l-8.084-6.732v-8.989h-6.806v8.989l-2.462,3.721a14.145,14.145,0,0,0-2.349,7.806V396.5a1.707,1.707,0,0,0,1.708,1.708h19.2a1.708,1.708,0,0,0,1.708-1.708V375.136A6.755,6.755,0,0,0,157.57,369.578Zm-.387,15.11a1.728,1.728,0,0,1-3.455,0v-9.266a1.728,1.728,0,1,1,3.455,0Z" transform="translate(-137.87 -353.226)" fill="#726cea"/>
        <rect id="Rectangle_1825" data-name="Rectangle 1825" width="8.02" height="4.859" transform="translate(4.116)" fill="#e26e20"/>
        <line id="Line_27" data-name="Line 27" y2="4.841" transform="translate(5.379 0.018)" fill="none" stroke="#c13a3a" stroke-miterlimit="10" stroke-width="1"/>
        <line id="Line_28" data-name="Line 28" y2="4.841" transform="translate(11.375 0.018)" fill="none" stroke="#c13a3a" stroke-miterlimit="10" stroke-width="1"/>
        <line id="Line_29" data-name="Line 29" y2="4.841" transform="translate(9.393 0.018)" fill="none" stroke="#c13a3a" stroke-miterlimit="10" stroke-width="1"/>
        <line id="Line_30" data-name="Line 30" y2="4.841" transform="translate(7.282 0.018)" fill="none" stroke="#c13a3a" stroke-miterlimit="10" stroke-width="1"/>
        <path id="Path_3734" data-name="Path 3734" d="M145.729,389.284l-.882,1.654a11.867,11.867,0,0,0-1.4,5.586v13a1.653,1.653,0,0,0,1.653,1.654h7.921a1.654,1.654,0,0,0,1.653-1.654V393.509a2.009,2.009,0,0,0-.893-1.67l-4.979-3.326A2.139,2.139,0,0,0,145.729,389.284Z" transform="translate(-140.991 -372.411)" fill="#9eaeef" opacity="0.25" style="mix-blend-mode: screen;isolation: isolate"/>
        <g id="Group_2052" data-name="Group 2052" transform="translate(4.725 20.43)">
          <line id="Line_31" data-name="Line 31" x2="3.855" transform="translate(1.419)" fill="none" stroke="#9eaeef" stroke-miterlimit="10" stroke-width="1"/>
          <line id="Line_32" data-name="Line 32" x2="6.693" transform="translate(0 2.274)" fill="none" stroke="#9eaeef" stroke-miterlimit="10" stroke-width="1"/>
          <line id="Line_33" data-name="Line 33" x2="6.693" transform="translate(0 4.18)" fill="none" stroke="#9eaeef" stroke-miterlimit="10" stroke-width="1"/>
          <line id="Line_34" data-name="Line 34" x2="6.693" transform="translate(0 6.087)" fill="none" stroke="#9eaeef" stroke-miterlimit="10" stroke-width="1"/>
          <line id="Line_35" data-name="Line 35" x2="6.693" transform="translate(0 7.994)" fill="none" stroke="#9eaeef" stroke-miterlimit="10" stroke-width="1"/>
          <line id="Line_36" data-name="Line 36" x2="6.693" transform="translate(0 9.901)" fill="none" stroke="#9eaeef" stroke-miterlimit="10" stroke-width="1"/>
          <line id="Line_37" data-name="Line 37" x2="6.693" transform="translate(0 11.808)" fill="none" stroke="#9eaeef" stroke-miterlimit="10" stroke-width="1"/>
          <line id="Line_38" data-name="Line 38" x2="6.693" transform="translate(0 13.714)" fill="none" stroke="#9eaeef" stroke-miterlimit="10" stroke-width="1"/>
          <line id="Line_39" data-name="Line 39" x2="6.693" transform="translate(0 15.621)" fill="none" stroke="#9eaeef" stroke-miterlimit="10" stroke-width="1"/>
        </g>
      </g>
      <g id="Group_2055" data-name="Group 2055" transform="translate(77.388 139.687)">
        <path id="Path_3735" data-name="Path 3735" d="M195.509,192.892H138.6a1.5,1.5,0,0,1-1.5-1.5v-1.761a1.5,1.5,0,0,1,1.5-1.5h0a1.5,1.5,0,0,1-1.5-1.5v-1.761a1.5,1.5,0,0,1,1.5-1.5h56.912a3.074,3.074,0,0,1,3.074,3.074v3.367A3.074,3.074,0,0,1,195.509,192.892Z" transform="translate(-137.098 -173.862)" fill="#e88432"/>
        <line id="Line_40" data-name="Line 40" x2="13.826" transform="translate(1.499 14.272)" fill="none" stroke="#d88845" stroke-miterlimit="10" stroke-width="1"/>
        <path id="Path_3736" data-name="Path 3736" d="M228.708,192.892H171.8a1.5,1.5,0,0,1-1.5-1.5v-1.761a1.5,1.5,0,0,1,1.5-1.5h0a1.5,1.5,0,0,1-1.5-1.5v-1.761a1.5,1.5,0,0,1,1.5-1.5h56.912a3.074,3.074,0,0,1,3.074,3.074v3.367A3.074,3.074,0,0,1,228.708,192.892Z" transform="translate(-155.67 -173.862)" fill="#f99746"/>
        <line id="Line_41" data-name="Line 41" x1="56.168" transform="translate(15.325 14.272)" fill="none" stroke="#e8b577" stroke-miterlimit="10" stroke-width="1"/>
        <g id="Group_2054" data-name="Group 2054" transform="translate(3.721)">
          <path id="Path_3737" data-name="Path 3737" d="M148.617,161.781h46.315a1.5,1.5,0,0,1,1.5,1.5v1.761a1.5,1.5,0,0,1-1.5,1.5h0a1.5,1.5,0,0,1,1.5,1.5V169.8a1.5,1.5,0,0,1-1.5,1.5H148.617a3.074,3.074,0,0,1-3.074-3.074v-3.367A3.074,3.074,0,0,1,148.617,161.781Z" transform="translate(-145.543 -161.781)" fill="#f7dcb5"/>
          <path id="Path_3738" data-name="Path 3738" d="M186.407,161.781h46.315a1.5,1.5,0,0,1,1.5,1.5v1.761a1.5,1.5,0,0,1-1.5,1.5h0a1.5,1.5,0,0,1,1.5,1.5V169.8a1.5,1.5,0,0,1-1.5,1.5H186.407a3.074,3.074,0,0,1-3.074-3.074v-3.367A3.073,3.073,0,0,1,186.407,161.781Z" transform="translate(-166.684 -161.781)" fill="#fff2d7"/>
          <line id="Line_42" data-name="Line 42" x1="12.768" transform="translate(3.881 4.757)" fill="none" stroke="#d88845" stroke-miterlimit="10" stroke-width="1"/>
          <line id="Line_43" data-name="Line 43" x1="45.597" transform="translate(21.122 4.757)" fill="none" stroke="#e8b577" stroke-miterlimit="10" stroke-width="1"/>
          <line id="Line_44" data-name="Line 44" x2="16.069" transform="translate(2.449 9.451)" fill="none" stroke="#d88845" stroke-miterlimit="10" stroke-width="1"/>
          <line id="Line_45" data-name="Line 45" x2="47.521" transform="translate(18.517 9.451)" fill="none" stroke="#e8b577" stroke-miterlimit="10" stroke-width="1"/>
        </g>
      </g>
      <g id="Group_2059" data-name="Group 2059" transform="translate(136.661 245.386)">
        <g id="Group_2056" data-name="Group 2056" transform="translate(3.974 26.318)">
          <rect id="Rectangle_1826" data-name="Rectangle 1826" width="30.83" height="0.441" fill="#8f98d8"/>
        </g>
        <g id="Group_2057" data-name="Group 2057" transform="translate(0 26.318)">
          <rect id="Rectangle_1827" data-name="Rectangle 1827" width="2.9" height="0.441" fill="#8f98d8"/>
        </g>
        <path id="Path_3739" data-name="Path 3739" d="M300.856,418.377c-2.134-.254-4.3-.029-6.441-.188a8.576,8.576,0,0,1-5.824-2.374c-1.034-1.144-1.579-3.012-.515-4.32a5.481,5.481,0,0,1,3.069-1.607c6.13-1.52,12.537-.886,18.807-1.5,5.638-.549,11.268-2.11,16.89-1.4,2.795.354,5.064,5.171,2.48,7.256-.282.227-.649.505-.565.869a.85.85,0,0,0,.17.308c.867,1.156,1.828,2.1,1.79,3.685a9.459,9.459,0,0,1-.6,2.284c-.257.913-.371,2.018-1.147,2.5a1.844,1.844,0,0,1-2.1-.344,9.658,9.658,0,0,1-1.441-1.831,9.844,9.844,0,0,0-3.2-2.852c-1.588-.879-3.485-.939-5.245-1.134-1.963-.217-3.933-.355-5.9-.468-3.948-.226-7.9-.351-11.838-.8" transform="translate(-280.509 -404.555)" fill="#fff2d7"/>
        <path id="Path_3740" data-name="Path 3740" d="M335.426,422.416a6.984,6.984,0,0,0-4.564-2.46c-2.729-.381-5.409.433-8.063.942-3.5.672-17.656-.146-21.176.047a3.2,3.2,0,0,0-2.2.7" transform="translate(-287.177 -411.855)" fill="none" stroke="#f7dcb5" stroke-miterlimit="10" stroke-width="1"/>
        <path id="Path_3741" data-name="Path 3741" d="M307.372,442.019l-16.839.12a7.526,7.526,0,0,1-2.34-.23c-1.965-.625-2.891-2.576-3.782-4.276a16.275,16.275,0,0,1-1.384-5q-.164-1-.328-2a3.357,3.357,0,0,1,.058-1.906,2.9,2.9,0,0,1,1.882-1.391,13.87,13.87,0,0,1,4.04-.453c3.255-.025,6.51.087,9.764.2,6.879.237,13.8.478,20.536,1.822,1.753.349,3.485,1.083,4.278,2.835a6.966,6.966,0,0,0,.537,1.151c.4.575,1.081.884,1.53,1.42a4.258,4.258,0,0,1,.753,1.805c.308,1.322.477,2.863-.382,3.9-.825,1-2.265,1.136-3.548,1.172q-1.593.044-3.188.036a17.173,17.173,0,0,0-2.283.333,51.449,51.449,0,0,1-6.569.145" transform="translate(-277.762 -415.785)" fill="#d7dcff"/>
        <path id="Path_3742" data-name="Path 3742" d="M295.428,435.867c1.185,1.938,3.444,2.936,5.655,3.37a35.558,35.558,0,0,0,9.522.092c4.966-.374,9.957-.2,14.914-.6,1.833-.148,4.579-.951,6.38-.336" transform="translate(-284.945 -420.811)" fill="none" stroke="#f3f5ff" stroke-miterlimit="10" stroke-width="1"/>
        <g id="Group_2058" data-name="Group 2058" transform="translate(1.779 1.149)">
          <line id="Line_46" data-name="Line 46" x1="5.108" y1="23.913" fill="none" stroke="#6d6dc6" stroke-miterlimit="10" stroke-width="1"/>
          <line id="Line_47" data-name="Line 47" y1="23.913" x2="5.108" transform="translate(46.097)" fill="none" stroke="#6d6dc6" stroke-miterlimit="10" stroke-width="1"/>
          <line id="Line_48" data-name="Line 48" x1="10.488" y1="24.056" fill="none" stroke="#6d6dc6" stroke-miterlimit="10" stroke-width="1"/>
          <line id="Line_49" data-name="Line 49" y1="16.146" x2="7.039" transform="translate(3.449)" fill="none" stroke="#6d6dc6" stroke-miterlimit="10" stroke-width="1"/>
          <line id="Line_50" data-name="Line 50" x1="10.488" y1="24.056" transform="translate(6.786)" fill="none" stroke="#6d6dc6" stroke-miterlimit="10" stroke-width="1"/>
          <line id="Line_51" data-name="Line 51" y1="24.056" x2="10.488" transform="translate(6.786)" fill="none" stroke="#6d6dc6" stroke-miterlimit="10" stroke-width="1"/>
          <line id="Line_52" data-name="Line 52" x1="10.488" y1="24.056" transform="translate(13.572)" fill="none" stroke="#6d6dc6" stroke-miterlimit="10" stroke-width="1"/>
          <line id="Line_53" data-name="Line 53" y1="24.056" x2="10.488" transform="translate(13.572)" fill="none" stroke="#6d6dc6" stroke-miterlimit="10" stroke-width="1"/>
          <line id="Line_54" data-name="Line 54" x1="10.488" y1="24.056" transform="translate(20.359)" fill="none" stroke="#6d6dc6" stroke-miterlimit="10" stroke-width="1"/>
          <line id="Line_55" data-name="Line 55" y1="24.056" x2="10.488" transform="translate(20.359)" fill="none" stroke="#6d6dc6" stroke-miterlimit="10" stroke-width="1"/>
          <line id="Line_56" data-name="Line 56" x1="10.488" y1="24.056" transform="translate(27.145)" fill="none" stroke="#6d6dc6" stroke-miterlimit="10" stroke-width="1"/>
          <line id="Line_57" data-name="Line 57" y1="24.056" x2="10.488" transform="translate(27.145)" fill="none" stroke="#6d6dc6" stroke-miterlimit="10" stroke-width="1"/>
          <line id="Line_58" data-name="Line 58" x1="10.488" y1="24.056" transform="translate(33.931)" fill="none" stroke="#6d6dc6" stroke-miterlimit="10" stroke-width="1"/>
          <line id="Line_59" data-name="Line 59" y1="24.056" x2="10.488" transform="translate(33.931)" fill="none" stroke="#6d6dc6" stroke-miterlimit="10" stroke-width="1"/>
          <line id="Line_60" data-name="Line 60" x1="7.039" y1="16.146" transform="translate(40.717)" fill="none" stroke="#6d6dc6" stroke-miterlimit="10" stroke-width="1"/>
          <line id="Line_61" data-name="Line 61" y1="24.056" x2="10.488" transform="translate(40.717)" fill="none" stroke="#6d6dc6" stroke-miterlimit="10" stroke-width="1"/>
        </g>
        <rect id="Rectangle_1828" data-name="Rectangle 1828" width="41.729" height="1.696" transform="translate(6.517 25.062)" fill="#9eaeef"/>
        <rect id="Rectangle_1829" data-name="Rectangle 1829" width="54.381" height="1.149" transform="translate(0.191)" fill="#9eaeef"/>
      </g>
    </g>
  </g>
</svg>
