<svg xmlns="http://www.w3.org/2000/svg" width="300.237" height="142.266" viewBox="0 0 300.237 142.266">
  <g id="Group_2198" data-name="Group 2198" transform="translate(-44.615 -106.646)">
    <path id="Rectangle_1813" data-name="Rectangle 1813" d="M.559,0H288.5a.559.559,0,0,1,.559.559v0a.559.559,0,0,1-.559.559H.559A.559.559,0,0,1,0,.559v0A.559.559,0,0,1,.559,0Z" transform="translate(48.705 247.688)" fill="#283250"/>
    <g id="Group_2060" data-name="Group 2060" transform="translate(14.252 -15.144)">
      <g id="Group_2038" data-name="Group 2038" transform="translate(30.363 122.286)">
        <path id="Path_3686" data-name="Path 3686" d="M328.138,267.892c-3.726-11.14-15.781-17.058-27.08-20.271s-23.582-5.222-32.394-12.99c-7.147-6.3-10.908-15.466-15.249-23.947s-10.109-17.1-19.052-20.383c-7.589-2.788-16.239-1.233-23.843-3.981-13.911-5.027-18.952-21.592-27.625-33.574A55.345,55.345,0,0,0,141.8,130.28c-4.336-.245-8.816.059-12.758,1.882-7.238,3.347-11.267,10.994-15.143,17.962-5.585,10.04-12.141,19.953-21.646,26.4-5.54,3.761-11.319,5.258-17.373,7.884A67.185,67.185,0,0,0,58.39,194.607c-4.162,3.5-7.952,7.593-10.265,12.515-4.523,9.626-3.071,21.6-9.078,30.379-2.425,3.544-5.218,6.907-7.009,10.841-1.724,3.788-2.526,8.45-.386,12.235,1.907,3.373,5.416,5.522,8.656,7.442" transform="translate(-30.363 -126.717)" fill="#e6ecff" opacity="0.45" style="mix-blend-mode: multiply;isolation: isolate"/>
        <path id="Path_3687" data-name="Path 3687" d="M332.582,263.587c-1.808-13.885-16.759-20.674-28.058-23.887s-23.582-5.222-32.394-12.99c-7.147-6.3-10.908-15.466-15.249-23.947s-10.109-17.1-19.052-20.383c-7.589-2.788-16.239-1.233-23.843-3.981-13.911-5.027-18.952-21.591-27.625-33.574a55.346,55.346,0,0,0-41.095-22.467c-4.336-.245-8.816.059-12.758,1.882-7.238,3.346-11.267,10.994-15.143,17.962-5.585,10.039-12.141,19.952-21.646,26.4-5.54,3.76-12.166,4.557-18.22,7.183-12.47,5.408-25.811,15.541-29.151,29.52a121.32,121.32,0,0,0-2.244,16.246c-1.082,10.8-10.807,17.5-8.467,27.676,1.314,5.717,5.794,12.258,11.454,14.354" transform="translate(-34.23 -122.286)" fill="none" stroke="#e6ecff" stroke-miterlimit="10" stroke-width="1" opacity="0.45" style="mix-blend-mode: multiply;isolation: isolate"/>
        <g id="Group_2037" data-name="Group 2037" transform="translate(3.44 141.081)">
          <rect id="Rectangle_1821" data-name="Rectangle 1821" width="296.797" height="0.441" fill="#8f98d8"/>
        </g>
      </g>
      <g id="Group_2051" data-name="Group 2051" transform="translate(34.118 167.073)">
        <path id="Path_3714" data-name="Path 3714" d="M122.052,321.415c-.181-10.534,1.125-19.645,7.252-28.766a92.811,92.811,0,0,1,10.324-12.95,60.334,60.334,0,0,1-3.464,16.7c-1.758,4.569-3.588,8.3-5.311,12.87a42.054,42.054,0,0,1-6.447,11.189" transform="translate(-85.403 -255.134)" fill="#d7def9"/>
        <path id="Path_3715" data-name="Path 3715" d="M138.248,280.306q-3.785,5.783-7.347,11.681a77.318,77.318,0,0,0-6.223,11.556,74,74,0,0,0-4.43,17.674" transform="translate(-84.403 -255.474)" fill="none" stroke="#9eaeef" stroke-miterlimit="10" stroke-width="1"/>
        <path id="Path_3716" data-name="Path 3716" d="M138.248,280.306c-2.115,4.853-3.814,9.212-6.2,13.139a92.756,92.756,0,0,0-6.095,13.057c-2.241,5.7-4.8,10.678-5.708,14.714" transform="translate(-84.403 -255.474)" fill="none" stroke="#9eaeef" stroke-miterlimit="10" stroke-width="1"/>
        <path id="Path_3717" data-name="Path 3717" d="M140.595,280.306c-1.717,9.5-6.818,19.82-10.625,29.018-1.168,2.821-2.377,5.628-3.588,8.434l-1.938,4.494" transform="translate(-86.75 -255.474)" fill="none" stroke="#9eaeef" stroke-miterlimit="10" stroke-width="1"/>
        <path id="Path_3718" data-name="Path 3718" d="M109.927,303.455s-1.049-15.4,1.233-22.548c2.868-8.99,5.029-33.849,7.37-38.569,2.735,6.235,5.179,23.457,3.943,33.8-1.264,10.587-3.936,18.491-11.107,26.563" transform="translate(-78.494 -234.233)" fill="#abb8ef"/>
        <path id="Path_3719" data-name="Path 3719" d="M119.788,242.338c-.743,8.016-1.914,17.2-2.644,26.019-.137,1.649-.273,3.3-.518,4.938-.294,1.966-.744,3.9-1.112,5.857-.866,4.593-1.28,9.26-2,13.877q-.63,4.018-1.572,7.979" transform="translate(-79.752 -234.233)" fill="none" stroke="#7281ce" stroke-miterlimit="10" stroke-width="1"/>
        <path id="Path_3720" data-name="Path 3720" d="M122.28,242.338c1.448,5.136,1.41,8.925,1.94,14.235a90.716,90.716,0,0,1-.057,11.415c-.147,3.314-.587,6.606-1.057,9.89a50.589,50.589,0,0,1-1.862,8.95c-.689,2.057-1.627,4.021-2.418,6.041a44.87,44.87,0,0,0-2.436,8.734" transform="translate(-82.245 -234.233)" fill="none" stroke="#7281ce" stroke-miterlimit="10" stroke-width="1"/>
        <path id="Path_3721" data-name="Path 3721" d="M119.665,242.338c2.128,19.173-.339,39.948-7.949,58.152" transform="translate(-79.629 -234.233)" fill="none" stroke="#7281ce" stroke-miterlimit="10" stroke-width="1"/>
        <path id="Path_3722" data-name="Path 3722" d="M100.076,288.958c-.182-5.259-1.761-10.274-2.825-15.377-3.39-16.242-1.526-33.6,3.242-49.347a.356.356,0,0,1,.7.022,111.49,111.49,0,0,1,3.229,15.676,123.123,123.123,0,0,1,.5,13.782c-.013,12.348-.03,24.755-1.621,36.952" transform="translate(-70.57 -223.942)" fill="#c3d2f4"/>
        <path id="Path_3723" data-name="Path 3723" d="M104.785,226.521q-.773,6.424-1.452,12.86c-.682,6.455-.432,13.637-.327,20.127.119,7.334,1.074,17.372.911,24.706" transform="translate(-74.683 -225.385)" fill="none" stroke="#9eaeef" stroke-miterlimit="10" stroke-width="1"/>
        <path id="Path_3724" data-name="Path 3724" d="M108.03,227.311c.714,20.659,2.521,42.327,1.208,62.957" transform="translate(-77.567 -225.827)" fill="none" stroke="#9eaeef" stroke-miterlimit="10" stroke-width="1"/>
        <path id="Path_3725" data-name="Path 3725" d="M61.148,319.547c-3.288-5.557-6.526-11.141-8.7-17.239a49.476,49.476,0,0,0-6.68-12.363c-2.409-3.318-5.367-6.606-6.878-10.71a19.131,19.131,0,0,1,13.708,5.576c3.16,3.181,5.09,7.385,6.458,11.655a172.015,172.015,0,0,1,5.941,24.39" transform="translate(-38.887 -254.873)" fill="#c3d2f4"/>
        <path id="Path_3726" data-name="Path 3726" d="M38.887,279.238c4.445,4.039,9.248,8.689,14.277,19.61,2.6,5.649,6.615,15.169,9.744,20.971" transform="translate(-38.887 -254.876)" fill="none" stroke="#9eaeef" stroke-miterlimit="10" stroke-width="1"/>
        <path id="Path_3727" data-name="Path 3727" d="M38.887,279.238c4.094,1.286,10.612,8.342,13.222,12.225,5.121,7.617,7.2,18.726,12.982,28.881" transform="translate(-38.887 -254.876)" fill="none" stroke="#9eaeef" stroke-miterlimit="10" stroke-width="1"/>
        <path id="Path_3728" data-name="Path 3728" d="M38.887,279.238c9.021,1.588,16.356,11.114,19.952,18.519,2.717,5.594,4.407,11.7,6.745,17.5" transform="translate(-38.887 -254.876)" fill="none" stroke="#9eaeef" stroke-miterlimit="10" stroke-width="1"/>
        <path id="Path_3729" data-name="Path 3729" d="M82.235,302.609s-4.619-10.62-5.459-13.089c-1.638-4.812-3.18-10.135-4.4-15.075-4.441-17.994-4.063-29.756-3.249-29.756s4.16,3.955,7.625,11.547a92.117,92.117,0,0,1,5.4,15.085c2.616,10.076,4.563,17.006,5.213,30.766" transform="translate(-55.521 -235.548)" fill="#abb8ef"/>
        <path id="Path_3730" data-name="Path 3730" d="M69.246,245.348A225.862,225.862,0,0,0,77.7,284.153q.176.566.352,1.132c1.629,5.264,2.611,10.718,4.834,15.8" transform="translate(-55.871 -235.917)" fill="none" stroke="#7281ce" stroke-miterlimit="10" stroke-width="1"/>
        <path id="Path_3731" data-name="Path 3731" d="M69.771,244.689c4.274,15.759,11.345,36.6,15.3,57.088" transform="translate(-56.164 -235.548)" fill="none" stroke="#7281ce" stroke-miterlimit="10" stroke-width="1"/>
        <path id="Path_3732" data-name="Path 3732" d="M69.771,244.689c6.588,9.738,14.716,40.986,16.688,57.088" transform="translate(-56.164 -235.548)" fill="none" stroke="#7281ce" stroke-miterlimit="10" stroke-width="1"/>
        <rect id="Rectangle_1824" data-name="Rectangle 1824" width="28.82" height="33.795" transform="translate(16.026 62.939)" fill="#fff"/>
        <line id="Line_24" data-name="Line 24" x2="28.82" transform="translate(16.026 84.807)" fill="none" stroke="#d7ddf4" stroke-miterlimit="10" stroke-width="1" opacity="0.25"/>
        <line id="Line_25" data-name="Line 25" x2="28.82" transform="translate(16.026 87.372)" fill="none" stroke="#d7ddf4" stroke-miterlimit="10" stroke-width="3" opacity="0.25"/>
        <line id="Line_26" data-name="Line 26" x2="28.82" transform="translate(16.026 91.143)" fill="none" stroke="#d7ddf4" stroke-miterlimit="10" stroke-width="5" opacity="0.25"/>
      </g>
      <g id="Group_2055" data-name="Group 2055" transform="translate(109.388 229.373)">
        <path id="Path_3735" data-name="Path 3735" d="M242.514,200.548H139.8a2.7,2.7,0,0,1-2.7-2.7v-3.177a2.7,2.7,0,0,1,2.7-2.7h0a2.7,2.7,0,0,1-2.7-2.7v-3.177a2.7,2.7,0,0,1,2.7-2.7H242.514a5.548,5.548,0,0,1,5.548,5.548V195A5.547,5.547,0,0,1,242.514,200.548Z" transform="translate(-137.098 -166.206)" fill="#e88432"/>
        <line id="Line_40" data-name="Line 40" x2="24.952" transform="translate(2.705 25.757)" fill="none" stroke="#d88845" stroke-miterlimit="10" stroke-width="1"/>
        <path id="Path_3736" data-name="Path 3736" d="M275.713,200.548H173a2.7,2.7,0,0,1-2.705-2.7v-3.177a2.7,2.7,0,0,1,2.705-2.7h0a2.7,2.7,0,0,1-2.705-2.7v-3.177a2.7,2.7,0,0,1,2.705-2.7H275.713a5.548,5.548,0,0,1,5.548,5.548V195A5.547,5.547,0,0,1,275.713,200.548Z" transform="translate(-143.9 -166.206)" fill="#f99746"/>
        <line id="Line_41" data-name="Line 41" x1="101.369" transform="translate(27.657 25.757)" fill="none" stroke="#e8b577" stroke-miterlimit="10" stroke-width="1"/>
        <g id="Group_2054" data-name="Group 2054" transform="translate(6.715)">
          <path id="Path_3737" data-name="Path 3737" d="M151.091,161.781h83.587a2.7,2.7,0,0,1,2.7,2.7v3.177a2.7,2.7,0,0,1-2.7,2.7h0a2.7,2.7,0,0,1,2.7,2.7v3.177a2.7,2.7,0,0,1-2.7,2.7H151.091a5.548,5.548,0,0,1-5.548-5.548v-6.076A5.547,5.547,0,0,1,151.091,161.781Z" transform="translate(-145.543 -161.781)" fill="#f7dcb5"/>
          <path id="Path_3738" data-name="Path 3738" d="M188.881,161.781h83.586a2.7,2.7,0,0,1,2.705,2.7v3.177a2.7,2.7,0,0,1-2.705,2.7h0a2.7,2.7,0,0,1,2.705,2.7v3.177a2.7,2.7,0,0,1-2.705,2.7H188.881a5.547,5.547,0,0,1-5.548-5.548v-6.076A5.547,5.547,0,0,1,188.881,161.781Z" transform="translate(-153.285 -161.781)" fill="#fff2d7"/>
          <line id="Line_42" data-name="Line 42" x1="23.044" transform="translate(7.004 8.586)" fill="none" stroke="#d88845" stroke-miterlimit="10" stroke-width="1"/>
          <line id="Line_43" data-name="Line 43" x1="82.291" transform="translate(38.12 8.586)" fill="none" stroke="#e8b577" stroke-miterlimit="10" stroke-width="1"/>
          <line id="Line_44" data-name="Line 44" x2="29" transform="translate(4.419 17.056)" fill="none" stroke="#d88845" stroke-miterlimit="10" stroke-width="1"/>
          <line id="Line_45" data-name="Line 45" x2="85.763" transform="translate(33.419 17.056)" fill="none" stroke="#e8b577" stroke-miterlimit="10" stroke-width="1"/>
        </g>
      </g>
    </g>
    <g id="Group_2070" data-name="Group 2070" transform="translate(-545.019 -79.081)">
      <g id="Group_2063" data-name="Group 2063" transform="translate(716.651 308.615)">
        <path id="Rectangle_1832" data-name="Rectangle 1832" d="M0,0H104.04a9.247,9.247,0,0,1,9.247,9.247v0a9.247,9.247,0,0,1-9.247,9.247H0a0,0,0,0,1,0,0V0A0,0,0,0,1,0,0Z" transform="translate(31.013 0)" fill="#e77aa8"/>
        <g id="Group_2061" data-name="Group 2061" transform="translate(78.63 0.256)">
          <path id="Path_3743" data-name="Path 3743" d="M1067.609,406.3c-5.5,6.255-17.841,14.879-44.72,17.225q-7.664.669-14.411,1.014h57.127c4.718,0,8.543-4.14,8.543-9.247h0A9.134,9.134,0,0,0,1067.609,406.3Z" transform="translate(-1008.478 -406.297)" fill="#cf6d96"/>
        </g>
        <path id="Path_3744" data-name="Path 3744" d="M795.2,405.366H736.433a8.888,8.888,0,0,0-8.888,8.888v.718a8.852,8.852,0,0,0,1.006,4.11q-.878-.095-1.749-.192a4.752,4.752,0,0,0-4.523,4.925v.045h74.608l0-.007c4.9-.005,7.194-3.976,7.194-8.881v-.718A8.888,8.888,0,0,0,795.2,405.366Z" transform="translate(-722.278 -405.366)" fill="#e7a4c0"/>
        <path id="Path_3745" data-name="Path 3745" d="M811.424,414.5c-57.255.033-54.354-.158-56.234.474a5.613,5.613,0,0,0-3.5,4.2c-1.4,4.979.526,6.905,5.294,7.373,17.034,1.673,34.19,1.61,51.3,1.269,3.167-.063,6.489-.177,9.227-1.77,4.808-2.8,5.248-9.331-.894-11.071A18.967,18.967,0,0,0,811.424,414.5Z" transform="translate(-743.284 -411.991)" fill="#e78db3"/>
        <g id="Group_2062" data-name="Group 2062" transform="translate(12.824 4.054)">
          <path id="Path_3746" data-name="Path 3746" d="M804.181,428.607c-3.857,0-7.848-.055-11.706-.169-4.446-.132-25.819-.678-23.315-3.893.44-.564,1.778-2.282,29.226-3.57,13.461-.631,26.771-.852,26.9-.854a.417.417,0,1,1,.017.827c-.137,0-13.9.23-27.587.887-26.03,1.249-27.731,2.894-27.808,3.211,1.408,3.214,55.009,3.4,57.85,1.374-.112-3.633-34.975-1.992-39.063-1.75a.417.417,0,1,1-.063-.825c5.629-.332,40.679-2.218,40.053,2.733-.056.446-.438.915-4.358,1.325C819.985,428.357,812.392,428.607,804.181,428.607Z" transform="translate(-768.957 -420.12)" fill="#d36c9b"/>
        </g>
      </g>
      <g id="Group_2066" data-name="Group 2066" transform="translate(721.718 290.374)">
        <path id="Rectangle_1833" data-name="Rectangle 1833" d="M0,0H104.04a9.247,9.247,0,0,1,9.247,9.247v0a9.247,9.247,0,0,1-9.247,9.247H0a0,0,0,0,1,0,0V0A0,0,0,0,1,0,0Z" transform="translate(31.013 0)" fill="#2bbfad"/>
        <g id="Group_2064" data-name="Group 2064" transform="translate(78.629 0.256)" opacity="0.35" style="mix-blend-mode: multiply;isolation: isolate">
          <path id="Path_3747" data-name="Path 3747" d="M1086.051,339.9c-5.505,6.255-17.841,14.878-44.72,17.225q-7.664.669-14.411,1.013h57.127c4.718,0,8.544-4.14,8.544-9.247h0A9.134,9.134,0,0,0,1086.051,339.9Z" transform="translate(-1026.92 -339.904)" fill="#2bbfad"/>
        </g>
        <path id="Path_3748" data-name="Path 3748" d="M829.222,357.468H768.778a8.888,8.888,0,0,1-8.888-8.888v-.718a8.888,8.888,0,0,1,8.888-8.888H827.54a8.888,8.888,0,0,1,8.888,8.888v.718C836.428,353.488,834.131,357.468,829.222,357.468Z" transform="translate(-754.624 -338.973)" fill="#2fd1bd"/>
        <path id="Path_3749" data-name="Path 3749" d="M815.329,391.853H740.721v-.044a4.752,4.752,0,0,1,4.523-4.926s23.5,1.6,31.055,1.55c10.445-.069,27.151,2.407,40.961-2.027C818.552,385.992,815.329,391.853,815.329,391.853Z" transform="translate(-740.721 -373.36)" fill="#2fd1bd"/>
        <path id="Path_3750" data-name="Path 3750" d="M774.43,361.621c-3.32,0-6.021-3.011-6.021-6.714s2.7-6.713,6.021-6.713H832.14c3.32,0,6.021,3.012,6.021,6.713s-2.7,6.714-6.021,6.714Z" transform="translate(-760.803 -345.661)" fill="#2bbfad"/>
        <g id="Group_2065" data-name="Group 2065" transform="translate(12.824 4.053)">
          <path id="Path_3751" data-name="Path 3751" d="M822.624,362.214c-3.857,0-7.848-.055-11.706-.17-4.446-.132-25.819-.678-23.314-3.893.44-.565,1.778-2.283,29.225-3.57,13.461-.632,26.771-.852,26.9-.854a.417.417,0,1,1,.017.827c-.138,0-13.9.23-27.587.887-26.03,1.249-27.731,2.894-27.808,3.211,1.408,3.214,55.01,3.4,57.85,1.374-.112-3.633-34.975-1.992-39.064-1.75a.417.417,0,1,1-.062-.825c5.629-.332,40.679-2.218,40.053,2.733-.056.445-.439.915-4.358,1.325C838.428,361.964,830.835,362.214,822.624,362.214Z" transform="translate(-787.4 -353.727)" fill="#24a192"/>
        </g>
        <path id="Path_3752" data-name="Path 3752" d="M771.734,338.973l-17.386,2.533c-3.32,0-9.1,10.991-9.1,10.991a4.752,4.752,0,0,0-4.523,4.926v.044h6.972a8.907,8.907,0,0,0-5.847,4.682l3.661,7.481s20.106-20.615,38.346-24.5c11.55-2.46,21.61-4.784,27.437-6.158Z" transform="translate(-740.721 -338.973)" fill="#196e63" opacity="0.18" style="mix-blend-mode: multiply;isolation: isolate"/>
      </g>
      <g id="Group_2069" data-name="Group 2069" transform="translate(714.519 271.965)">
        <path id="Rectangle_1834" data-name="Rectangle 1834" d="M0,0H104.04a9.247,9.247,0,0,1,9.247,9.247v0a9.247,9.247,0,0,1-9.247,9.247H0a0,0,0,0,1,0,0V0A0,0,0,0,1,0,0Z" transform="translate(35.932)" fill="#bf1d5f"/>
        <g id="Group_2067" data-name="Group 2067" transform="translate(83.548 0.256)" opacity="0.29" style="mix-blend-mode: multiply;isolation: isolate">
          <path id="Path_3753" data-name="Path 3753" d="M1077.752,272.9c-5.505,6.255-17.841,14.878-44.721,17.225q-7.663.669-14.41,1.014h57.127c4.718,0,8.543-4.14,8.543-9.247h0A9.135,9.135,0,0,0,1077.752,272.9Z" transform="translate(-1018.621 -272.896)" fill="#7a0e21"/>
        </g>
        <rect id="Rectangle_1835" data-name="Rectangle 1835" width="76.539" height="18.494" rx="9.247" transform="translate(10.185)" fill="#e7a4c0"/>
        <path id="Path_3754" data-name="Path 3754" d="M792.354,271.965H733.592a8.888,8.888,0,0,0-8.888,8.888v.718a8.849,8.849,0,0,0,.965,4.032l-1.709-.114c-7.415.572-9.442,3.691-9.442,6.4l2.533,25.208s32.322-20.192,44.588-22.42c7.743-1.407,12.287-3.547,24.041-4.216h6.673a8.888,8.888,0,0,0,8.888-8.888v-.718A8.888,8.888,0,0,0,792.354,271.965Z" transform="translate(-714.519 -271.965)" fill="#e776a5"/>
        <path id="Path_3755" data-name="Path 3755" d="M766.132,294.613c-3.32,0-6.021-3.012-6.021-6.714s2.7-6.714,6.021-6.714h57.709c3.32,0,6.021,3.012,6.021,6.714s-2.7,6.714-6.021,6.714Z" transform="translate(-747.585 -278.653)" fill="#e75f98"/>
        <g id="Group_2068" data-name="Group 2068" transform="translate(17.743 4.053)">
          <path id="Path_3756" data-name="Path 3756" d="M814.325,295.205c-3.857,0-7.848-.055-11.706-.169-4.446-.132-25.819-.679-23.314-3.893.44-.565,1.778-2.282,29.225-3.57,13.461-.632,26.771-.852,26.9-.855a.417.417,0,1,1,.017.828c-.138,0-13.9.23-27.587.887-26.03,1.249-27.731,2.894-27.808,3.211,1.408,3.213,55.009,3.4,57.85,1.374-.112-3.633-34.975-1.992-39.064-1.75a.417.417,0,1,1-.063-.825c5.629-.332,40.679-2.218,40.053,2.733-.056.445-.439.915-4.359,1.325C830.129,294.955,822.536,295.205,814.325,295.205Z" transform="translate(-779.101 -286.718)" fill="#bf1d5f"/>
        </g>
      </g>
      <path id="Path_3757" data-name="Path 3757" d="M729.747,331.572s-6.334.887-7.347,4.56-.633,16.087,2.28,16.594,25.5-16.889,31.836-18.536S729.747,331.572,729.747,331.572Z" transform="translate(-5.348 -43.231)" fill="#e7a4c0" opacity="0.28"/>
    </g>
    <g id="Group_2071" data-name="Group 2071" transform="translate(-515.787 -122.712)">
      <g id="Group_2063-2" data-name="Group 2063" transform="translate(718.541 301.059)">
        <path id="Rectangle_1832-2" data-name="Rectangle 1832" d="M7.341,0H81.934a0,0,0,0,1,0,0V14.681a0,0,0,0,1,0,0H7.341A7.341,7.341,0,0,1,0,7.341v0A7.341,7.341,0,0,1,7.341,0Z" transform="translate(0 0)" fill="#f5883f"/>
        <g id="Group_2061-2" data-name="Group 2061" transform="translate(0 0.203)">
          <path id="Path_3743-2" data-name="Path 3743" d="M1013.67,406.3c4.37,4.966,14.162,11.811,35.5,13.674q6.084.531,11.439.8h-45.35a7.078,7.078,0,0,1-6.782-7.341h0A7.251,7.251,0,0,1,1013.67,406.3Z" transform="translate(-1008.478 -406.297)" fill="#d2824c"/>
        </g>
        <path id="Path_3744-2" data-name="Path 3744" d="M729.334,405.366h46.648a7.056,7.056,0,0,1,7.056,7.056v.57a7.028,7.028,0,0,1-.8,3.263l1.388-.152a3.772,3.772,0,0,1,3.591,3.91v.035H727.992l0-.005c-3.891,0-5.711-3.156-5.711-7.05v-.57A7.056,7.056,0,0,1,729.334,405.366Z" transform="translate(-680.665 -405.366)" fill="#e7cca4"/>
        <path id="Path_3745-2" data-name="Path 3745" d="M758.979,414.5c45.451.026,43.148-.126,44.641.376a4.456,4.456,0,0,1,2.781,3.335c1.109,3.952-.418,5.482-4.2,5.853-13.523,1.328-27.141,1.278-40.726,1.007-2.514-.05-5.151-.141-7.325-1.405-3.817-2.22-4.166-7.407.71-8.788A15.055,15.055,0,0,1,758.979,414.5Z" transform="translate(-706.518 -412.508)" fill="#fe9b70"/>
        <g id="Group_2062-2" data-name="Group 2062" transform="translate(48.949 3.218)">
          <path id="Path_3746-2" data-name="Path 3746" d="M788.419,426.857c3.062,0,6.23-.044,9.293-.135,3.529-.105,20.5-.538,18.508-3.09-.349-.448-1.412-1.812-23.2-2.834-10.686-.5-21.252-.677-21.357-.678a.331.331,0,1,0-.013.657c.109,0,11.034.183,21.9.7,20.663.991,22.014,2.3,22.075,2.549-1.117,2.551-43.669,2.7-45.923,1.091.089-2.884,27.765-1.581,31.01-1.389a.331.331,0,1,0,.05-.655c-4.468-.263-32.292-1.761-31.8,2.17.044.354.348.726,3.46,1.052C775.873,426.659,781.9,426.857,788.419,426.857Z" transform="translate(-768.957 -420.12)" fill="#e15e36"/>
        </g>
      </g>
      <g id="Group_2066-2" data-name="Group 2066" transform="translate(714.519 286.579)">
        <path id="Rectangle_1833-2" data-name="Rectangle 1833" d="M7.341,0H89.931a0,0,0,0,1,0,0V14.681a0,0,0,0,1,0,0H7.341A7.341,7.341,0,0,1,0,7.341v0A7.341,7.341,0,0,1,7.341,0Z" transform="translate(0 0)" fill="#2bbfad"/>
        <g id="Group_2064-2" data-name="Group 2064" transform="translate(0 0.203)" opacity="0.35" style="mix-blend-mode: multiply;isolation: isolate">
          <path id="Path_3747-2" data-name="Path 3747" d="M1032.112,339.9c4.37,4.965,14.163,11.811,35.5,13.674q6.084.531,11.44.8H1033.7a7.078,7.078,0,0,1-6.782-7.341h0A7.251,7.251,0,0,1,1032.112,339.9Z" transform="translate(-1026.92 -339.904)" fill="#2bbfad"/>
        </g>
        <path id="Path_3748-2" data-name="Path 3748" d="M765.611,353.655h47.983a7.056,7.056,0,0,0,7.056-7.056v-.57a7.056,7.056,0,0,0-7.056-7.056H766.946a7.056,7.056,0,0,0-7.056,7.056v.57C759.89,350.5,761.714,353.655,765.611,353.655Z" transform="translate(-718.276 -338.973)" fill="#2fd1bd"/>
        <path id="Path_3749-2" data-name="Path 3749" d="M742.5,390.726h59.226v-.035a3.772,3.772,0,0,0-3.591-3.91s-18.652,1.27-24.652,1.23c-8.292-.055-21.554,1.911-32.516-1.609C739.938,386.073,742.5,390.726,742.5,390.726Z" transform="translate(-695.17 -376.045)" fill="#2fd1bd"/>
        <path id="Path_3750-2" data-name="Path 3750" d="M819,358.853a5.361,5.361,0,0,0,0-10.659H773.19a5.361,5.361,0,0,0,0,10.659Z" transform="translate(-723.266 -346.183)" fill="#2bbfad"/>
        <g id="Group_2065-2" data-name="Group 2065" transform="translate(48.949 3.218)">
          <path id="Path_3751-2" data-name="Path 3751" d="M806.862,360.464c3.062,0,6.23-.044,9.293-.135,3.529-.105,20.5-.538,18.508-3.09-.349-.448-1.412-1.812-23.2-2.834-10.686-.5-21.252-.677-21.357-.678a.331.331,0,1,0-.014.657c.109,0,11.034.183,21.9.7,20.663.991,22.014,2.3,22.075,2.549-1.118,2.551-43.669,2.7-45.924,1.091.089-2.884,27.765-1.581,31.01-1.389a.331.331,0,1,0,.049-.655c-4.468-.263-32.292-1.761-31.8,2.17.044.354.348.726,3.46,1.052C794.316,360.266,800.344,360.464,806.862,360.464Z" transform="translate(-787.4 -353.727)" fill="#24a192"/>
        </g>
        <path id="Path_3752-2" data-name="Path 3752" d="M772.121,338.973l13.8,2.011c2.635,0,7.228,8.725,7.228,8.725a3.772,3.772,0,0,1,3.591,3.91v.035h-5.535a7.071,7.071,0,0,1,4.642,3.717l-2.906,5.939s-15.961-16.365-30.441-19.448c-9.169-1.953-17.155-3.8-21.78-4.888Z" transform="translate(-690.188 -338.973)" fill="#196e63" opacity="0.18" style="mix-blend-mode: multiply;isolation: isolate"/>
      </g>
    </g>
  </g>
</svg>
