<svg xmlns="http://www.w3.org/2000/svg" width="24" height="28.914" viewBox="0 0 24 28.914">
  <path id="Path_3475" data-name="Path 3475" d="M-963.149,516c4.688,1.094,8.878,2.894,11.131,8.619a24.455,24.455,0,0,0,.272-2.541c-.052-1.738.453-3.156,2.424-3.159,1.993,0,2.382,1.492,2.438,3.177.123,3.715.292,7.429.463,11.143.1,2.095.245,4.187.348,6.282.174,3.564-1.469,5.333-5.024,5.365-3.718.032-7.437.022-11.155.026-3.931.005-3.931,0-4.4-4.04-3.307.464-3.294-1.619-3.383-4.14A38.953,38.953,0,0,1-964.868,516Zm-.917,2.118c-4.358,6.676-4.76,13.71-4.138,21.227,2.869,0,5.527.122,8.159-.085a2.593,2.593,0,0,0,1.784-1.777A30.012,30.012,0,0,0-964.066,518.118Zm7.229,21,3.506.428-.876,3.736c6.182.652,6.711.209,6.545-5.337q-.232-7.718-.605-15.43a9.233,9.233,0,0,0-.744-2.3l-1.022.131c-1.041,5.891.026,11.9-.287,17.889-2.311-6.564-.731-14.636-8.216-19.285,4.852,12.741,5.389,15.4,3.655,18.2-.629-3.411-.917-6.847-1.95-10.041-1.027-3.177-2.8-6.111-4.252-9.152l-1.04.423C-957.908,524.627-956.425,531.566-956.836,539.118Zm1.2,4.44-.184-2.726h-8.9c-.632,1.907-.234,2.836,1.835,2.748C-960.625,543.484-958.361,543.558-955.634,543.558Z" transform="translate(970.062 -516)" fill="#fff"/>
</svg>
