<svg xmlns="http://www.w3.org/2000/svg" width="25.918" height="22.724" viewBox="0 0 25.918 22.724">
  <g id="Group_2109" data-name="Group 2109" transform="translate(-229.811 -264.828)">
    <g id="Group_1349" data-name="Group 1349" transform="translate(229.811 264.828)">
      <g id="Group_1348" data-name="Group 1348" transform="translate(0 0)">
        <path id="Path_3196" data-name="Path 3196" d="M-1171.189,863.751l-.039.014Z" transform="translate(1182.684 -860.883)" fill="#2699fb"/>
        <path id="Path_3197" data-name="Path 3197" d="M-1179.651,864.733l-.033,0Z" transform="translate(1190.904 -861.834)" fill="#2699fb"/>
        <path id="Path_3198" data-name="Path 3198" d="M-1168.056,862.145c-.012.008-.024.016-.037.022C-1168.08,862.161-1168.068,862.153-1168.056,862.145Z" transform="translate(1179.637 -859.322)" fill="#2699fb"/>
        <path id="Path_3199" data-name="Path 3199" d="M-1172.756,864.311l-.037.009Z" transform="translate(1184.205 -861.428)" fill="#2699fb"/>
        <path id="Path_3200" data-name="Path 3200" d="M-1174.5,864.685l-.042.006Z" transform="translate(1185.901 -861.791)" fill="#2699fb"/>
        <path id="Path_3201" data-name="Path 3201" d="M-1177.974,864.927h0l-.044,0Z" transform="translate(1189.284 -862.024)" fill="#2699fb"/>
        <path id="Path_3202" data-name="Path 3202" d="M-1166.456,861l-.035.027Z" transform="translate(1178.08 -858.209)" fill="#2699fb"/>
        <path id="Path_3203" data-name="Path 3203" d="M-1176.343,864.921l-.042,0Z" transform="translate(1187.697 -862.021)" fill="#2699fb"/>
        <path id="Path_3204" data-name="Path 3204" d="M-1169.471,862.963l-.039.018Z" transform="translate(1181.014 -860.117)" fill="#2699fb"/>
        <path id="Path_3205" data-name="Path 3205" d="M-1165.006,859.8l-.03.028Z" transform="translate(1176.666 -857.042)" fill="#2699fb"/>
        <path id="Path_3206" data-name="Path 3206" d="M-1152.713,830.911l-.007.018Z" transform="translate(1164.694 -828.961)" fill="#2699fb"/>
        <path id="Path_3207" data-name="Path 3207" d="M-1152.083,829.289l-.008.018Z" transform="translate(1164.083 -827.385)" fill="#2699fb"/>
        <path id="Path_3208" data-name="Path 3208" d="M-1151.417,827.735l-.008.018Z" transform="translate(1163.435 -825.874)" fill="#2699fb"/>
        <path id="Path_3209" data-name="Path 3209" d="M-1153.307,832.643l-.005.015Z" transform="translate(1165.269 -830.645)" fill="#2699fb"/>
        <path id="Path_3210" data-name="Path 3210" d="M-1163.726,858.326c-.01.013-.02.025-.031.036C-1163.746,858.351-1163.736,858.339-1163.726,858.326Z" transform="translate(1175.422 -855.61)" fill="#2699fb"/>
        <path id="Path_3211" data-name="Path 3211" d="M-1159.928,851.561c-.01.025-.021.049-.033.072C-1159.949,851.609-1159.938,851.585-1159.928,851.561Z" transform="translate(1171.732 -849.034)" fill="#2699fb"/>
        <path id="Path_3212" data-name="Path 3212" d="M-1162.381,856.544c-.01.014-.02.028-.03.041C-1162.4,856.572-1162.391,856.559-1162.381,856.544Z" transform="translate(1174.114 -853.878)" fill="#2699fb"/>
        <path id="Path_3213" data-name="Path 3213" d="M-1121.461,761.232h0Z" transform="translate(1134.309 -761.23)" fill="#2699fb"/>
        <path id="Path_3214" data-name="Path 3214" d="M-1107.328,761.865l.055.008Z" transform="translate(1120.571 -761.846)" fill="#2699fb"/>
        <path id="Path_3215" data-name="Path 3215" d="M-1181.709,864.334l-.044-.009Z" transform="translate(1192.915 -861.441)" fill="#2699fb"/>
        <path id="Path_3216" data-name="Path 3216" d="M-1104.127,762.34l.053.01Z" transform="translate(1117.459 -762.308)" fill="#2699fb"/>
        <path id="Path_3217" data-name="Path 3217" d="M-1114.839,761.236l.089.005Z" transform="translate(1127.872 -761.235)" fill="#2699fb"/>
        <path id="Path_3218" data-name="Path 3218" d="M-1091.636,765.46l.076.027Z" transform="translate(1105.318 -765.341)" fill="#2699fb"/>
        <path id="Path_3219" data-name="Path 3219" d="M-1117.993,761.183h0Z" transform="translate(1130.945 -761.183)" fill="#2699fb"/>
        <path id="Path_3220" data-name="Path 3220" d="M-1094.889,764.444l.084.026Z" transform="translate(1108.48 -764.353)" fill="#2699fb"/>
        <path id="Path_3221" data-name="Path 3221" d="M-1101,762.928l.054.012Z" transform="translate(1114.423 -762.879)" fill="#2699fb"/>
        <path id="Path_3222" data-name="Path 3222" d="M-1097.924,763.63l.06.016Z" transform="translate(1111.43 -763.562)" fill="#2699fb"/>
        <path id="Path_3223" data-name="Path 3223" d="M-1110.7,761.5l.061.006Z" transform="translate(1123.847 -761.493)" fill="#2699fb"/>
        <path id="Path_3224" data-name="Path 3224" d="M-1150.712,826.231l-.009.018Z" transform="translate(1162.751 -824.412)" fill="#2699fb"/>
        <path id="Path_3225" data-name="Path 3225" d="M-1185.068,863.269l-.034-.012Z" transform="translate(1196.17 -860.403)" fill="#2699fb"/>
        <path id="Path_3226" data-name="Path 3226" d="M-1187.155,862.381l-.045-.02Z" transform="translate(1198.21 -859.532)" fill="#2699fb"/>
        <path id="Path_3227" data-name="Path 3227" d="M-1183.37,863.866l-.046-.013Z" transform="translate(1194.531 -860.982)" fill="#2699fb"/>
        <path id="Path_3228" data-name="Path 3228" d="M-1168.3,773.037a2.394,2.394,0,0,1,.229-.153A2.394,2.394,0,0,0-1168.3,773.037Z" transform="translate(1179.834 -772.556)" fill="#2699fb"/>
        <path id="Path_3229" data-name="Path 3229" d="M-1124.932,761.411l.039,0Z" transform="translate(1137.683 -761.402)" fill="#2699fb"/>
        <path id="Path_3230" data-name="Path 3230" d="M-1157.232,767.163a2.423,2.423,0,0,1,.253-.118A2.423,2.423,0,0,0-1157.232,767.163Z" transform="translate(1169.08 -766.881)" fill="#2699fb"/>
        <path id="Path_3231" data-name="Path 3231" d="M-1087.985,766.785l.055.022Z" transform="translate(1101.769 -766.628)" fill="#2699fb"/>
        <path id="Path_3232" data-name="Path 3232" d="M-1128.412,761.763l.032,0Z" transform="translate(1141.065 -761.744)" fill="#2699fb"/>
        <path id="Path_3233" data-name="Path 3233" d="M-1099.171,811.354c-.024-.016-.049-.031-.074-.045C-1099.22,811.323-1099.2,811.338-1099.171,811.354Z" transform="translate(1112.715 -809.908)" fill="#2699fb"/>
        <path id="Path_3234" data-name="Path 3234" d="M-1089.929,862.433a.841.841,0,0,0,.1-.145A.841.841,0,0,1-1089.929,862.433Z" transform="translate(1103.658 -859.461)" fill="#2699fb"/>
        <path id="Path_3235" data-name="Path 3235" d="M-1086.469,858.034a.98.98,0,0,0,.055-.122A.98.98,0,0,1-1086.469,858.034Z" transform="translate(1100.295 -855.208)" fill="#2699fb"/>
        <path id="Path_3236" data-name="Path 3236" d="M-1122.725,806.463h0Z" transform="translate(1135.556 -805.197)" fill="#2699fb"/>
        <path id="Path_3237" data-name="Path 3237" d="M-1101.087,873.662a.9.9,0,0,0,.118-.063A.9.9,0,0,1-1101.087,873.662Z" transform="translate(1114.504 -870.456)" fill="#2699fb"/>
        <path id="Path_3238" data-name="Path 3238" d="M-1121.064,806.4h0Z" transform="translate(1133.943 -805.14)" fill="#2699fb"/>
        <path id="Path_3239" data-name="Path 3239" d="M-1104.986,808.827a1.023,1.023,0,0,0-.165-.071A1.023,1.023,0,0,1-1104.986,808.827Z" transform="translate(1118.455 -807.426)" fill="#2699fb"/>
        <path id="Path_3240" data-name="Path 3240" d="M-1117.375,806.468l-.058,0Z" transform="translate(1130.393 -805.198)" fill="#2699fb"/>
        <path id="Path_3241" data-name="Path 3241" d="M-1109.964,807.455q-.045-.013-.093-.023Q-1110.008,807.442-1109.964,807.455Z" transform="translate(1123.223 -806.139)" fill="#2699fb"/>
        <path id="Path_3242" data-name="Path 3242" d="M-1096.866,870.863a.83.83,0,0,0,.1-.079A.83.83,0,0,1-1096.866,870.863Z" transform="translate(1110.401 -867.72)" fill="#2699fb"/>
        <path id="Path_3243" data-name="Path 3243" d="M-1140.261,926.053c.005-.034.008-.069.01-.1C-1140.253,925.985-1140.256,926.02-1140.261,926.053Z" transform="translate(1152.583 -921.342)" fill="#2699fb"/>
        <path id="Path_3244" data-name="Path 3244" d="M-1105.788,875.909a.979.979,0,0,0,.132-.047A.979.979,0,0,1-1105.788,875.909Z" transform="translate(1119.074 -872.656)" fill="#2699fb"/>
        <path id="Path_3245" data-name="Path 3245" d="M-1141.049,898.3a.962.962,0,0,1,.035-.275A.962.962,0,0,0-1141.049,898.3Z" transform="translate(1153.349 -894.203)" fill="#2699fb"/>
        <path id="Path_3246" data-name="Path 3246" d="M-1510.656,1017.426c2.392-1.413,4.781-2.833,7.177-4.24C-1505.875,1014.592-1508.264,1016.012-1510.656,1017.426Z" transform="translate(1512.622 -1006.139)" fill="#2699fb"/>
        <path id="Path_3247" data-name="Path 3247" d="M-1139.8,893.962a.705.705,0,0,1,.046-.117A.705.705,0,0,0-1139.8,893.962Z" transform="translate(1152.134 -890.136)" fill="#2699fb"/>
        <path id="Path_3248" data-name="Path 3248" d="M-1137.469,890.217a.676.676,0,0,1,.045-.067A.676.676,0,0,0-1137.469,890.217Z" transform="translate(1149.869 -886.544)" fill="#2699fb"/>
        <path id="Path_3249" data-name="Path 3249" d="M-1119.223,879.31c.036-.01.072-.018.111-.026C-1119.151,879.292-1119.187,879.3-1119.223,879.31Z" transform="translate(1132.133 -875.982)" fill="#2699fb"/>
        <path id="Path_3250" data-name="Path 3250" d="M-1133.892,884.318a.717.717,0,0,1,.136-.1A.717.717,0,0,0-1133.892,884.318Z" transform="translate(1146.392 -880.773)" fill="#2699fb"/>
        <path id="Path_3251" data-name="Path 3251" d="M-1137.649,811.028l-.014.009Z" transform="translate(1150.058 -809.634)" fill="#2699fb"/>
        <path id="Path_3252" data-name="Path 3252" d="M-1142.262,814.631l-.01.009Z" transform="translate(1154.538 -813.136)" fill="#2699fb"/>
        <path id="Path_3253" data-name="Path 3253" d="M-1141.167,813.625l-.012.01Z" transform="translate(1153.475 -812.159)" fill="#2699fb"/>
        <path id="Path_3254" data-name="Path 3254" d="M-1140.034,812.693l-.012.009Z" transform="translate(1152.374 -811.253)" fill="#2699fb"/>
        <path id="Path_3255" data-name="Path 3255" d="M-1145.576,818.262l-.007.009Z" transform="translate(1157.756 -816.666)" fill="#2699fb"/>
        <path id="Path_3256" data-name="Path 3256" d="M-1149.191,823.373l-.009.016Z" transform="translate(1161.272 -821.634)" fill="#2699fb"/>
        <path id="Path_3257" data-name="Path 3257" d="M-1138.862,811.828l-.013.009Z" transform="translate(1151.236 -810.412)" fill="#2699fb"/>
        <path id="Path_3258" data-name="Path 3258" d="M-1147.5,820.717l-.009.014Z" transform="translate(1159.632 -819.052)" fill="#2699fb"/>
        <path id="Path_3259" data-name="Path 3259" d="M-1146.583,819.464l-.009.012Z" transform="translate(1158.737 -817.834)" fill="#2699fb"/>
        <path id="Path_3260" data-name="Path 3260" d="M-1124.344,806.594l-.018,0Z" transform="translate(1137.129 -805.324)" fill="#2699fb"/>
        <path id="Path_3261" data-name="Path 3261" d="M-1130.831,807.957l-.011,0Z" transform="translate(1143.427 -806.649)" fill="#2699fb"/>
        <path id="Path_3262" data-name="Path 3262" d="M-1127.464,807.1l-.011,0Z" transform="translate(1140.155 -805.815)" fill="#2699fb"/>
        <path id="Path_3263" data-name="Path 3263" d="M-1125.924,806.8l-.016,0Z" transform="translate(1138.662 -805.524)" fill="#2699fb"/>
        <path id="Path_3264" data-name="Path 3264" d="M-1132.34,808.445l-.013.005Z" transform="translate(1144.897 -807.124)" fill="#2699fb"/>
        <path id="Path_3265" data-name="Path 3265" d="M-1133.747,809l-.014.006Z" transform="translate(1146.265 -807.661)" fill="#2699fb"/>
        <path id="Path_3266" data-name="Path 3266" d="M-1149.971,824.778l-.009.017Z" transform="translate(1162.031 -823)" fill="#2699fb"/>
        <path id="Path_3267" data-name="Path 3267" d="M-1136.394,810.289l-.014.008Z" transform="translate(1148.838 -808.916)" fill="#2699fb"/>
        <path id="Path_3268" data-name="Path 3268" d="M-1135.1,809.612l-.014.007Z" transform="translate(1147.576 -808.258)" fill="#2699fb"/>
        <path id="Path_3269" data-name="Path 3269" d="M-1148.369,822.02l-.01.016Z" transform="translate(1160.474 -820.319)" fill="#2699fb"/>
        <path id="Path_3270" data-name="Path 3270" d="M-1070.654,775.968l.057.04Z" transform="translate(1084.922 -775.555)" fill="#2699fb"/>
        <path id="Path_3271" data-name="Path 3271" d="M-1036,841.38c0,.031,0,.063,0,.094C-1036,841.442-1036,841.411-1036,841.38Z" transform="translate(1051.236 -839.138)" fill="#2699fb"/>
        <path id="Path_3272" data-name="Path 3272" d="M-1044.724,805.552c.014.027.027.053.039.081C-1044.7,805.605-1044.71,805.579-1044.724,805.552Z" transform="translate(1059.717 -804.312)" fill="#2699fb"/>
        <path id="Path_3273" data-name="Path 3273" d="M-1060.49,784.28l.041.041Z" transform="translate(1075.043 -783.634)" fill="#2699fb"/>
        <path id="Path_3274" data-name="Path 3274" d="M-1046.231,802.727l.029.053Z" transform="translate(1061.182 -801.565)" fill="#2699fb"/>
        <path id="Path_3275" data-name="Path 3275" d="M-1094.881,928.053a.5.5,0,0,0-.04.073A.5.5,0,0,1-1094.881,928.053Z" transform="translate(1108.511 -923.387)" fill="#2699fb"/>
        <path id="Path_3276" data-name="Path 3276" d="M-1095.987,933.239a.316.316,0,0,0-.006.072A.316.316,0,0,1-1095.987,933.239Z" transform="translate(1109.553 -928.428)" fill="#2699fb"/>
        <path id="Path_3277" data-name="Path 3277" d="M-1073.8,773.887l.073.048Z" transform="translate(1087.977 -773.532)" fill="#2699fb"/>
        <path id="Path_3278" data-name="Path 3278" d="M-1038.813,858c-.011.061-.025.122-.041.181C-1038.838,858.125-1038.824,858.064-1038.813,858Z" transform="translate(1054.011 -855.296)" fill="#2699fb"/>
        <path id="Path_3279" data-name="Path 3279" d="M-1037.35,848.073a2.325,2.325,0,0,1-.034.277A2.325,2.325,0,0,0-1037.35,848.073Z" transform="translate(1052.583 -845.644)" fill="#2699fb"/>
        <path id="Path_3280" data-name="Path 3280" d="M-1062.8,782.142l.04.037Z" transform="translate(1077.292 -781.556)" fill="#2699fb"/>
        <path id="Path_3281" data-name="Path 3281" d="M-1047.852,799.968l.028.047Z" transform="translate(1062.758 -798.884)" fill="#2699fb"/>
        <path id="Path_3282" data-name="Path 3282" d="M-1056.138,788.8l.057.067Z" transform="translate(1070.812 -788.026)" fill="#2699fb"/>
        <path id="Path_3283" data-name="Path 3283" d="M-1058.269,786.5l.05.054Z" transform="translate(1072.884 -785.791)" fill="#2699fb"/>
        <path id="Path_3284" data-name="Path 3284" d="M-1053.552,791.877l.039.05Z" transform="translate(1068.299 -791.019)" fill="#2699fb"/>
        <path id="Path_3285" data-name="Path 3285" d="M-1065.218,780.078l.042.035Z" transform="translate(1079.638 -779.55)" fill="#2699fb"/>
        <path id="Path_3286" data-name="Path 3286" d="M-1051.46,794.6l.033.046Z" transform="translate(1066.265 -793.67)" fill="#2699fb"/>
        <path id="Path_3287" data-name="Path 3287" d="M-1049.59,797.267l.03.045Z" transform="translate(1064.447 -796.258)" fill="#2699fb"/>
        <path id="Path_3288" data-name="Path 3288" d="M-1067.767,778.064l.045.035Z" transform="translate(1082.116 -777.592)" fill="#2699fb"/>
        <path id="Path_3289" data-name="Path 3289" d="M-1082.032,769.359l.049.024Z" transform="translate(1095.982 -769.13)" fill="#2699fb"/>
        <path id="Path_3290" data-name="Path 3290" d="M-1139.9,923.993c0,.018,0,.037,0,.055C-1139.9,924.03-1139.9,924.012-1139.9,923.993Z" transform="translate(1152.233 -919.441)" fill="#2699fb"/>
        <path id="Path_3291" data-name="Path 3291" d="M-1093.052,867.457a.839.839,0,0,1-.09.093A.839.839,0,0,0-1093.052,867.457Z" transform="translate(1106.781 -864.486)" fill="#2699fb"/>
        <path id="Path_3292" data-name="Path 3292" d="M-654.516,1253.535q.006.049.009.1h0Q-654.511,1253.584-654.516,1253.535Z" transform="translate(680.42 -1239.769)" fill="#2699fb"/>
        <path id="Path_3293" data-name="Path 3293" d="M-1084.446,842.622a1.181,1.181,0,0,1-.067.427A1.181,1.181,0,0,0-1084.446,842.622Z" transform="translate(1098.394 -840.345)" fill="#2699fb"/>
        <path id="Path_3295" data-name="Path 3295" d="M-1084.937,768.035l.05.022Z" transform="translate(1098.806 -767.844)" fill="#2699fb"/>
        <path id="Path_3296" data-name="Path 3296" d="M-793.522,1123.716q.385.225.77.452Q-793.137,1123.941-793.522,1123.716Z" transform="translate(815.539 -1113.58)" fill="#2699fb"/>
        <path id="Path_3297" data-name="Path 3297" d="M-1119.481,806.4h0Z" transform="translate(1132.384 -805.138)" fill="#2699fb"/>
        <path id="Path_3298" data-name="Path 3298" d="M-762.886,1142.954q.008.05.013.1-.006-.048-.013-.1a3.092,3.092,0,0,0-1.576-2.156c-.5-.316-1.015-.621-1.527-.924.513.3,1.023.608,1.527.924A3.092,3.092,0,0,1-762.886,1142.954Z" transform="translate(788.777 -1129.286)" fill="#2699fb"/>
        <path id="Path_3299" data-name="Path 3299" d="M-1068.222,899.274c-.026.021-.053.041-.08.061.028-.02.055-.04.08-.061a2.1,2.1,0,0,0,.208-.192A2.1,2.1,0,0,1-1068.222,899.274Z" transform="translate(1082.636 -895.226)" fill="#2699fb"/>
        <path id="Path_3300" data-name="Path 3300" d="M-1076.472,772.282l.057.034Z" transform="translate(1090.578 -771.972)" fill="#2699fb"/>
        <path id="Path_3301" data-name="Path 3301" d="M-1079.219,770.771l.05.027Z" transform="translate(1093.248 -770.503)" fill="#2699fb"/>
        <path id="Path_3302" data-name="Path 3302" d="M-1143.326,815.77l.006-.006Z" transform="translate(1155.562 -814.237)" fill="#2699fb"/>
        <path id="Path_3303" data-name="Path 3303" d="M-1198.943,778.373a2.173,2.173,0,0,0-.871,1.513c-.006.064-.01.127-.01.189,0-.062,0-.125.01-.189A2.173,2.173,0,0,1-1198.943,778.373Z" transform="translate(1210.482 -777.893)" fill="#2699fb"/>
        <path id="Path_3304" data-name="Path 3304" d="M-1580.965,1257.121l.005,0-.005,0Z" transform="translate(1580.965 -1243.251)" fill="#2699fb"/>
        <path id="Path_3306" data-name="Path 3306" d="M-734.692,1211.154a3.321,3.321,0,0,0-.344-.251Z" transform="translate(758.688 -1198.329)" fill="#2699fb"/>
        <path id="Path_3307" data-name="Path 3307" d="M-1555.067,774.856a3.093,3.093,0,0,0-1.576-2.156c-.5-.316-1.015-.621-1.527-.924l-.77-.452-.77-.452q-3.564-2.1-7.129-4.2c-.046-.027-.089-.054-.13-.081-.061-.04-.115-.078-.162-.117q-.048-.038-.086-.075a.965.965,0,0,1-.07-.074.564.564,0,0,1-.073-.109c-.006-.012-.011-.024-.016-.036a.338.338,0,0,1-.019-.072c0-.012,0-.024,0-.036a.3.3,0,0,1,.007-.072.363.363,0,0,1,.023-.072.49.49,0,0,1,.04-.073,1.506,1.506,0,0,1,.45-.389c.085-.055.172-.108.254-.167.028-.02.054-.04.081-.061a2.119,2.119,0,0,0,.208-.192,2.253,2.253,0,0,0,.535-.967c.016-.06.03-.12.041-.182a2.3,2.3,0,0,0,.034-.278c0-.031,0-.062,0-.093s0-.062,0-.094a2.365,2.365,0,0,0-.021-.281q-.013-.094-.033-.186a2.387,2.387,0,0,0-.079-.275q-.032-.09-.073-.179c-.012-.027-.025-.054-.039-.081l-.014-.026q-.014-.027-.029-.053l-.017-.03-.028-.047-.019-.03-.03-.045-.02-.029-.032-.046-.02-.026-.039-.05-.015-.019-.057-.067-.01-.01-.05-.054-.021-.021-.041-.041-.024-.023-.04-.037-.026-.023-.042-.035-.026-.021-.045-.035-.024-.018-.057-.04-.014-.01-.073-.048-.017-.01-.058-.034-.027-.015-.05-.027-.03-.015-.049-.024-.031-.015-.051-.022-.03-.013-.055-.022-.027-.01-.075-.027-.007,0-.084-.026-.025-.007-.06-.016-.032-.008-.054-.012-.034-.007-.053-.01-.034-.006-.055-.008-.033,0-.061-.006-.027,0-.089-.005h-.185l-.059,0-.039,0-.065.007-.032,0-.1.015a2.361,2.361,0,0,0-.455.129,2.343,2.343,0,0,0-.253.118l-.08.045a2.4,2.4,0,0,0-.229.154,2.175,2.175,0,0,0-.871,1.513c-.006.064-.01.127-.01.189a.63.63,0,0,0,.353.646h0l.045.02.014.005.034.012.013,0,.046.013h0l.044.009.013,0,.033,0h.013l.045,0h0l.042,0h.009l.042-.006.007,0,.037-.009.007,0,.039-.014.009,0,.039-.018h0l.037-.022.008-.005c.012-.008.024-.017.035-.027l.006-.005a.384.384,0,0,0,.031-.029l.005-.005c.011-.011.021-.023.031-.036l.007-.008c.01-.013.02-.027.03-.041a.774.774,0,0,0,.039-.068c.012-.023.023-.047.032-.072a1.626,1.626,0,0,0,.063-.191c.025-.092.047-.186.075-.275l.015-.047.006-.015.011-.031.007-.018.011-.027.008-.018.011-.026.008-.018.011-.025.009-.018.012-.024.009-.017.013-.023.009-.016.014-.022.009-.015.015-.022.009-.014.016-.023.009-.012.019-.025.007-.009c.018-.022.037-.043.056-.063l.007-.006.023-.023.01-.009.021-.019.011-.009.021-.017.012-.009.02-.015.013-.009.021-.014.014-.009.021-.013.014-.008.022-.012.014-.007.023-.011.014-.006.025-.01.013-.005.029-.01.011,0c.027-.008.055-.016.083-.022l.01,0,.032-.006.016,0,.028,0,.018,0,.027,0h.149l.058,0a1.453,1.453,0,0,1,.148.023c.032.007.063.014.093.023l.044.014a1.024,1.024,0,0,1,.165.071c.026.014.051.029.074.045a.872.872,0,0,1,.338.44,1.157,1.157,0,0,1,.039.137,1.3,1.3,0,0,1,.026.2c0,.018,0,.035,0,.052a1.186,1.186,0,0,1-.068.427.934.934,0,0,1-.055.122.849.849,0,0,1-.1.144.8.8,0,0,1-.09.093.849.849,0,0,1-.1.079.892.892,0,0,1-.118.063.966.966,0,0,1-.132.047,1.087,1.087,0,0,1-.145.029c-.042.005-.082.012-.121.02s-.075.016-.111.026a1.077,1.077,0,0,0-.274.112.725.725,0,0,0-.136.1.616.616,0,0,0-.054.061.684.684,0,0,0-.045.067l-.02.036a.676.676,0,0,0-.046.117.952.952,0,0,0-.035.275,1.564,1.564,0,0,0,.017.214q.009.063.013.122c0,.039,0,.078,0,.115,0,.018,0,.037,0,.055,0,.036,0,.071-.01.1s-.011.067-.019.1a.977.977,0,0,1-.044.137.935.935,0,0,1-.04.085l-.023.041c-.016.027-.033.053-.051.078s-.038.05-.059.074a1.355,1.355,0,0,1-.1.105c-.024.023-.05.045-.076.067s-.054.043-.083.064l-.089.062c-.061.041-.126.081-.2.121q-1.2.7-2.4,1.4c-2.4,1.407-4.784,2.827-7.177,4.24l-.123.074a4.294,4.294,0,0,0-1.357,1.218q-.081.119-.152.248a2.528,2.528,0,0,0-.328,1.04,1.789,1.789,0,0,0,1.982,1.884c.324.006.649,0,.974,0,.46,0,.922-.023,1.38.006.621.039.5-.414.55-.766.058-.424-.188-.494-.536-.489-.758.01-1.516.014-2.273,0-.778-.016-1-.423-.616-1.1a2.754,2.754,0,0,1,1.064-.974c3.308-1.952,6.619-3.9,9.911-5.875a.855.855,0,0,1,1.022.017q4.991,2.956,10,5.89.1.058.193.119a3.352,3.352,0,0,1,.344.251,1.951,1.951,0,0,1,.5.625c.339.683.145,1.03-.619,1.05s-1.515.01-2.273.008c-.322,0-.622.021-.562.468.047.351-.064.8.549.778.892-.026,1.788.021,2.678-.023a1.668,1.668,0,0,0,1.64-1.869c0-.032-.005-.064-.009-.1S-1555.062,774.888-1555.067,774.856Z" transform="translate(1580.957 -761.188)" fill="#2699fb"/>
        <path id="Path_3308" data-name="Path 3308" d="M-1077.434,771.744l.027.015Z" transform="translate(1091.513 -771.449)" fill="#2699fb"/>
        <path id="Path_3309" data-name="Path 3309" d="M-1111.668,761.414l.027,0Z" transform="translate(1124.79 -761.408)" fill="#2699fb"/>
        <path id="Path_3310" data-name="Path 3310" d="M-1127.06,806.883l-.032.006Z" transform="translate(1139.782 -805.605)" fill="#2699fb"/>
        <path id="Path_3311" data-name="Path 3311" d="M-1130.37,807.172q-.043.009-.083.022Q-1130.413,807.181-1130.37,807.172Z" transform="translate(1143.049 -805.886)" fill="#2699fb"/>
        <path id="Path_3312" data-name="Path 3312" d="M-1131.842,808.089l-.029.01Z" transform="translate(1144.428 -806.777)" fill="#2699fb"/>
        <path id="Path_3313" data-name="Path 3313" d="M-1145.335,816.059c.018-.022.037-.043.056-.063C-1145.3,816.016-1145.317,816.037-1145.335,816.059Z" transform="translate(1157.515 -814.463)" fill="#2699fb"/>
        <path id="Path_3314" data-name="Path 3314" d="M-1123.688,806.505l-.027,0Z" transform="translate(1136.5 -805.238)" fill="#2699fb"/>
        <path id="Path_3315" data-name="Path 3315" d="M-1122.019,806.419h0Z" transform="translate(1134.878 -805.154)" fill="#2699fb"/>
        <path id="Path_3316" data-name="Path 3316" d="M-1199.826,839.242a.631.631,0,0,0,.353.646h0A.631.631,0,0,1-1199.826,839.242Z" transform="translate(1210.483 -837.06)" fill="#2699fb"/>
        <path id="Path_3317" data-name="Path 3317" d="M-1156.565,833.5c.025-.092.047-.186.075-.275l.016-.047-.016.047C-1156.518,833.317-1156.54,833.411-1156.565,833.5Z" transform="translate(1168.431 -831.167)" fill="#2699fb"/>
        <path id="Path_3318" data-name="Path 3318" d="M-1125.344,806.66l-.028,0Z" transform="translate(1138.111 -805.389)" fill="#2699fb"/>
        <path id="Path_3319" data-name="Path 3319" d="M-1134.572,809.225l-.023.011Z" transform="translate(1147.075 -807.882)" fill="#2699fb"/>
        <path id="Path_3320" data-name="Path 3320" d="M-1137.148,810.575l-.021.013Z" transform="translate(1149.577 -809.194)" fill="#2699fb"/>
        <path id="Path_3321" data-name="Path 3321" d="M-1089.562,947.456c.026.025.055.05.087.075C-1089.507,947.506-1089.536,947.481-1089.562,947.456Z" transform="translate(1103.302 -942.248)" fill="#2699fb"/>
        <path id="Path_3322" data-name="Path 3322" d="M-1094.649,940.922a.567.567,0,0,0,.073.109A.567.567,0,0,1-1094.649,940.922Z" transform="translate(1108.246 -935.897)" fill="#2699fb"/>
        <path id="Path_3323" data-name="Path 3323" d="M-1086.46,950.152q.071.057.162.117Q-1086.389,950.209-1086.46,950.152Z" transform="translate(1100.286 -944.868)" fill="#2699fb"/>
        <path id="Path_3324" data-name="Path 3324" d="M-1115.174,761.23h0Z" transform="translate(1128.198 -761.229)" fill="#2699fb"/>
        <path id="Path_3325" data-name="Path 3325" d="M-1138.38,811.337l-.021.014Z" transform="translate(1150.776 -809.935)" fill="#2699fb"/>
        <path id="Path_3326" data-name="Path 3326" d="M-1133.229,808.634l-.025.01Z" transform="translate(1145.772 -807.307)" fill="#2699fb"/>
        <path id="Path_3327" data-name="Path 3327" d="M-1135.879,809.871l-.022.012Z" transform="translate(1148.345 -808.51)" fill="#2699fb"/>
        <path id="Path_3328" data-name="Path 3328" d="M-1074.423,773.508l.017.011Z" transform="translate(1088.586 -773.163)" fill="#2699fb"/>
        <path id="Path_3329" data-name="Path 3329" d="M-1108.511,761.716l.033,0Z" transform="translate(1121.721 -761.701)" fill="#2699fb"/>
        <path id="Path_3330" data-name="Path 3330" d="M-1080.658,954.323q.061.04.13.081Q-1080.6,954.363-1080.658,954.323Z" transform="translate(1094.646 -948.923)" fill="#2699fb"/>
        <path id="Path_3331" data-name="Path 3331" d="M-1083.139,768.836l.031.015Z" transform="translate(1097.058 -768.622)" fill="#2699fb"/>
        <path id="Path_3332" data-name="Path 3332" d="M-1091.885,765.373l.007,0Z" transform="translate(1105.56 -765.256)" fill="#2699fb"/>
        <path id="Path_3333" data-name="Path 3333" d="M-1142.52,933.338a.947.947,0,0,0,.044-.137A.947.947,0,0,1-1142.52,933.338Z" transform="translate(1154.779 -928.391)" fill="#2699fb"/>
        <path id="Path_3334" data-name="Path 3334" d="M-1143.941,938.18c.014-.027.028-.056.04-.085C-1143.913,938.124-1143.927,938.152-1143.941,938.18Z" transform="translate(1156.16 -933.148)" fill="#2699fb"/>
        <path id="Path_3335" data-name="Path 3335" d="M-1139.581,812.157l-.02.015Z" transform="translate(1151.942 -810.732)" fill="#2699fb"/>
        <path id="Path_3336" data-name="Path 3336" d="M-1562.241,1167.494a4.293,4.293,0,0,0-1.357,1.218A4.293,4.293,0,0,1-1562.241,1167.494Z" transform="translate(1564.083 -1156.134)" fill="#2699fb"/>
        <path id="Path_3337" data-name="Path 3337" d="M-1095.788,764.2l.025.007Z" transform="translate(1109.354 -764.114)" fill="#2699fb"/>
        <path id="Path_3338" data-name="Path 3338" d="M-1086.017,767.57l.03.013Z" transform="translate(1099.856 -767.391)" fill="#2699fb"/>
        <path id="Path_3339" data-name="Path 3339" d="M-1146.595,942.661c.018-.025.035-.051.052-.078C-1146.56,942.61-1146.577,942.636-1146.595,942.661Z" transform="translate(1158.74 -937.511)" fill="#2699fb"/>
        <path id="Path_3340" data-name="Path 3340" d="M-1088.934,766.416l.027.01Z" transform="translate(1102.691 -766.27)" fill="#2699fb"/>
        <path id="Path_3341" data-name="Path 3341" d="M-1161.189,956.533c.031-.021.06-.042.089-.063C-1161.129,956.492-1161.158,956.513-1161.189,956.533Z" transform="translate(1172.926 -951.011)" fill="#2699fb"/>
        <path id="Path_3342" data-name="Path 3342" d="M-1158.011,954.236c.029-.021.056-.042.083-.064C-1157.955,954.194-1157.982,954.215-1158.011,954.236Z" transform="translate(1169.837 -948.776)" fill="#2699fb"/>
        <path id="Path_3343" data-name="Path 3343" d="M-1102.222,762.685l.034.007Z" transform="translate(1115.608 -762.643)" fill="#2699fb"/>
        <path id="Path_3344" data-name="Path 3344" d="M-1080.287,770.222l.03.015Z" transform="translate(1094.286 -769.969)" fill="#2699fb"/>
        <path id="Path_3345" data-name="Path 3345" d="M-1084.442,828.781a1.072,1.072,0,0,0-.039-.137A1.072,1.072,0,0,1-1084.442,828.781Z" transform="translate(1098.363 -826.758)" fill="#2699fb"/>
        <path id="Path_3346" data-name="Path 3346" d="M-1083.075,833.732a1.285,1.285,0,0,0-.026-.2,1.285,1.285,0,0,1,.026.2c0,.018,0,.035,0,.052C-1083.073,833.767-1083.074,833.75-1083.075,833.732Z" transform="translate(1097.022 -831.507)" fill="#2699fb"/>
        <path id="Path_3347" data-name="Path 3347" d="M-1120.348,806.393h0Z" transform="translate(1133.227 -805.129)" fill="#2699fb"/>
        <path id="Path_3348" data-name="Path 3348" d="M-1105.365,762.139l.035.006Z" transform="translate(1118.663 -762.112)" fill="#2699fb"/>
        <path id="Path_3349" data-name="Path 3349" d="M-1152.229,948.033a1.367,1.367,0,0,1-.1.105A1.367,1.367,0,0,0-1152.229,948.033Z" transform="translate(1164.316 -942.809)" fill="#2699fb"/>
        <path id="Path_3350" data-name="Path 3350" d="M-1099.06,763.362l.032.007Z" transform="translate(1112.534 -763.301)" fill="#2699fb"/>
        <path id="Path_3351" data-name="Path 3351" d="M-1139.973,919.894c0,.039,0,.078,0,.115C-1139.969,919.972-1139.97,919.934-1139.973,919.894Z" transform="translate(1152.303 -915.457)" fill="#2699fb"/>
        <path id="Path_3352" data-name="Path 3352" d="M-1141.048,907.871a1.589,1.589,0,0,0,.017.214c.006.042.01.083.013.122,0-.04-.007-.08-.013-.122A1.589,1.589,0,0,1-1141.048,907.871Z" transform="translate(1153.348 -903.77)" fill="#2699fb"/>
        <path id="Path_3353" data-name="Path 3353" d="M-1118.058,806.44h0Z" transform="translate(1131.018 -805.174)" fill="#2699fb"/>
        <path id="Path_3354" data-name="Path 3354" d="M-1150.4,825.388l-.012.024Z" transform="translate(1162.449 -823.593)" fill="#2699fb"/>
        <path id="Path_3355" data-name="Path 3355" d="M-1063.727,781.333l.026.023Z" transform="translate(1078.189 -780.77)" fill="#2699fb"/>
        <path id="Path_3356" data-name="Path 3356" d="M-1163.946,859.6l-.006.005Z" transform="translate(1175.612 -856.852)" fill="#2699fb"/>
        <path id="Path_3357" data-name="Path 3357" d="M-1165.236,860.819l-.006.005Z" transform="translate(1176.866 -858.033)" fill="#2699fb"/>
        <path id="Path_3358" data-name="Path 3358" d="M-1052.15,793.667l.019.026Z" transform="translate(1066.936 -792.759)" fill="#2699fb"/>
        <path id="Path_3359" data-name="Path 3359" d="M-1166.765,861.954l-.008.005Z" transform="translate(1178.354 -859.136)" fill="#2699fb"/>
        <path id="Path_3360" data-name="Path 3360" d="M-1050.294,796.231l.02.029Z" transform="translate(1065.132 -795.251)" fill="#2699fb"/>
        <path id="Path_3361" data-name="Path 3361" d="M-1153.109,831.538l-.011.031Z" transform="translate(1165.083 -829.571)" fill="#2699fb"/>
        <path id="Path_3362" data-name="Path 3362" d="M-1162.638,858.027l-.007.008Z" transform="translate(1174.341 -855.319)" fill="#2699fb"/>
        <path id="Path_3363" data-name="Path 3363" d="M-1181.786,864.317h0Z" transform="translate(1192.948 -861.434)" fill="#2699fb"/>
        <path id="Path_3364" data-name="Path 3364" d="M-1185.574,863.073l-.014-.005Z" transform="translate(1196.642 -860.219)" fill="#2699fb"/>
        <path id="Path_3365" data-name="Path 3365" d="M-1046.843,801.666l.017.03Z" transform="translate(1061.777 -800.534)" fill="#2699fb"/>
        <path id="Path_3366" data-name="Path 3366" d="M-1183.883,863.7l-.014,0Z" transform="translate(1194.999 -860.827)" fill="#2699fb"/>
        <path id="Path_3367" data-name="Path 3367" d="M-1048.526,798.892l.019.03Z" transform="translate(1063.413 -797.838)" fill="#2699fb"/>
        <path id="Path_3368" data-name="Path 3368" d="M-1174.857,864.893h0Z" transform="translate(1186.221 -861.993)" fill="#2699fb"/>
        <path id="Path_3369" data-name="Path 3369" d="M-1061.362,783.46l.025.023Z" transform="translate(1075.89 -782.837)" fill="#2699fb"/>
        <path id="Path_3370" data-name="Path 3370" d="M-1173.043,864.632h0Z" transform="translate(1184.455 -861.74)" fill="#2699fb"/>
        <path id="Path_3371" data-name="Path 3371" d="M-1059.018,785.741l.021.021Z" transform="translate(1073.612 -785.054)" fill="#2699fb"/>
        <path id="Path_3372" data-name="Path 3372" d="M-1176.425,864.991h0Z" transform="translate(1187.737 -862.089)" fill="#2699fb"/>
        <path id="Path_3373" data-name="Path 3373" d="M-1171.457,864.247l-.007,0Z" transform="translate(1182.914 -861.365)" fill="#2699fb"/>
        <path id="Path_3374" data-name="Path 3374" d="M-1054.095,791.193l.015.019Z" transform="translate(1068.826 -790.354)" fill="#2699fb"/>
        <path id="Path_3375" data-name="Path 3375" d="M-1056.478,788.429l.01.01Z" transform="translate(1071.143 -787.667)" fill="#2699fb"/>
        <path id="Path_3376" data-name="Path 3376" d="M-1169.809,863.623l-.009,0Z" transform="translate(1181.314 -860.759)" fill="#2699fb"/>
        <path id="Path_3377" data-name="Path 3377" d="M-1180.151,864.655l-.014,0Z" transform="translate(1191.371 -861.76)" fill="#2699fb"/>
        <path id="Path_3378" data-name="Path 3378" d="M-1168.115,862.949h0Z" transform="translate(1179.659 -860.103)" fill="#2699fb"/>
        <path id="Path_3379" data-name="Path 3379" d="M-1045.21,804.628l.014.026Z" transform="translate(1060.19 -803.413)" fill="#2699fb"/>
        <path id="Path_3380" data-name="Path 3380" d="M-1127.264,761.511l.065-.007Z" transform="translate(1139.95 -761.495)" fill="#2699fb"/>
        <path id="Path_3381" data-name="Path 3381" d="M-1146.253,818.578l-.019.025Z" transform="translate(1158.426 -816.973)" fill="#2699fb"/>
        <path id="Path_3382" data-name="Path 3382" d="M-1152.465,829.938l-.011.027Z" transform="translate(1164.457 -828.016)" fill="#2699fb"/>
        <path id="Path_3383" data-name="Path 3383" d="M-1131.89,761.9l.1-.015Z" transform="translate(1144.447 -761.868)" fill="#2699fb"/>
        <path id="Path_3384" data-name="Path 3384" d="M-1071.17,775.6l.015.01Z" transform="translate(1085.424 -775.2)" fill="#2699fb"/>
        <path id="Path_3385" data-name="Path 3385" d="M-1147.156,819.9l-.016.023Z" transform="translate(1159.302 -818.262)" fill="#2699fb"/>
        <path id="Path_3386" data-name="Path 3386" d="M-1119.975,761.189h0Z" transform="translate(1132.865 -761.188)" fill="#2699fb"/>
        <path id="Path_3387" data-name="Path 3387" d="M-1140.751,813.033l-.02.017Z" transform="translate(1153.079 -811.583)" fill="#2699fb"/>
        <path id="Path_3388" data-name="Path 3388" d="M-1143.07,814.954l-.023.023Z" transform="translate(1155.336 -813.451)" fill="#2699fb"/>
        <path id="Path_3389" data-name="Path 3389" d="M-1123.556,761.275l.059,0Z" transform="translate(1136.345 -761.269)" fill="#2699fb"/>
        <path id="Path_3390" data-name="Path 3390" d="M-1141.9,813.965l-.021.019Z" transform="translate(1154.195 -812.489)" fill="#2699fb"/>
        <path id="Path_3391" data-name="Path 3391" d="M-1148.022,821.224l-.015.022Z" transform="translate(1160.141 -819.545)" fill="#2699fb"/>
        <path id="Path_3392" data-name="Path 3392" d="M-1151.12,826.861l-.011.024Z" transform="translate(1163.15 -825.025)" fill="#2699fb"/>
        <path id="Path_3393" data-name="Path 3393" d="M-1095.881,937.078a.339.339,0,0,0,.019.072A.339.339,0,0,1-1095.881,937.078Z" transform="translate(1109.444 -932.16)" fill="#2699fb"/>
        <path id="Path_3394" data-name="Path 3394" d="M-1066.147,779.32l.026.021Z" transform="translate(1080.541 -778.813)" fill="#2699fb"/>
        <path id="Path_3395" data-name="Path 3395" d="M-1068.627,777.411l.024.018Z" transform="translate(1082.952 -776.957)" fill="#2699fb"/>
        <path id="Path_3396" data-name="Path 3396" d="M-1151.807,828.377l-.011.026Z" transform="translate(1163.817 -826.498)" fill="#2699fb"/>
        <path id="Path_3397" data-name="Path 3397" d="M-1149.642,823.959l-.013.023Z" transform="translate(1161.715 -822.204)" fill="#2699fb"/>
        <path id="Path_3398" data-name="Path 3398" d="M-1148.849,822.573l-.014.022Z" transform="translate(1160.945 -820.857)" fill="#2699fb"/>
        <path id="Path_3399" data-name="Path 3399" d="M-1178.476,864.881h0Z" transform="translate(1189.742 -861.981)" fill="#2699fb"/>
        <path id="Path_3400" data-name="Path 3400" d="M-1037.92,824.666c.014.062.025.124.033.186C-1037.9,824.79-1037.906,824.728-1037.92,824.666Z" transform="translate(1053.104 -822.891)" fill="#2699fb"/>
        <path id="Path_3401" data-name="Path 3401" d="M-1043.328,808.446q.04.088.072.179Q-1043.288,808.534-1043.328,808.446Z" transform="translate(1058.361 -807.125)" fill="#2699fb"/>
        <path id="Path_3402" data-name="Path 3402" d="M-1036.735,831.325a2.388,2.388,0,0,1,.021.281A2.388,2.388,0,0,0-1036.735,831.325Z" transform="translate(1051.952 -829.364)" fill="#2699fb"/>
      </g>
      <path id="Path_3403" data-name="Path 3403" d="M-1288.919,1292.333c.015-.215.023-.432.047-.647.046-.41.265-.509.615-.311a6.447,6.447,0,0,1,.684.435,4.309,4.309,0,0,0,4.746.311,13.079,13.079,0,0,1,2.182-.8c.97-.262,1.369.093,1.356,1.107a4.919,4.919,0,0,1-3.547,4.545,4.817,4.817,0,0,1-5.44-2.236A4.679,4.679,0,0,1-1288.919,1292.333Zm6.3,3.685a2.955,2.955,0,0,0,2.332-2.752A5.149,5.149,0,0,1-1282.617,1296.018Zm-.526-1.947c.021-.325-.148-.5-.517-.5-.314,0-.6.028-.624.434a.576.576,0,0,0,.518.672A.568.568,0,0,0-1283.143,1294.072Zm-4.009-.067c.21-.075.411-.184.427-.471a.45.45,0,0,0-.462-.523.44.44,0,0,0-.462.447C-1287.668,1293.767-1287.48,1293.938-1287.152,1294Zm5.348-1.412a.444.444,0,0,0-.463.438.454.454,0,0,0,.442.489.4.4,0,0,0,.469-.435C-1281.343,1292.792-1281.5,1292.636-1281.8,1292.592Zm-3.018,3.014c-.043-.234-.157-.4-.42-.383-.231.012-.323.166-.322.375a.344.344,0,0,0,.4.386C-1284.941,1295.972-1284.864,1295.8-1284.822,1295.606Z" transform="translate(1297.085 -1276.418)" fill="#2699fb"/>
      <path id="Path_3404" data-name="Path 3404" d="M-1253.122,1226.507l-.541-.375c1.522.327,2.754-.268,4.082-.285-.44.166-.88.33-1.319.5a8.429,8.429,0,0,0-1.824.586c-.91.576-3.032-.688-3.234-1.771a.945.945,0,0,1,.616-1.173.768.768,0,0,1,1.044.354.775.775,0,0,1-.447,1.131c-.377.165-.274.344-.067.525A1.835,1.835,0,0,0-1253.122,1226.507Z" transform="translate(1265.072 -1210.975)" fill="#2699fb"/>
      <path id="Path_3405" data-name="Path 3405" d="M-1157.589,1230.34a.739.739,0,0,1,.728.8.674.674,0,0,1-.725.7.683.683,0,0,1-.727-.78C-1158.31,1230.6-1158,1230.419-1157.589,1230.34Z" transform="translate(1170.132 -1217.222)" fill="#2699fb"/>
      <path id="Path_3406" data-name="Path 3406" d="M-1133.813,1160.121a.45.45,0,0,1-.515.478.448.448,0,0,1-.484-.516.444.444,0,0,1,.511-.486C-1133.963,1159.6-1133.821,1159.794-1133.813,1160.121Z" transform="translate(1147.286 -1148.458)" fill="#2699fb"/>
      <path id="Path_3407" data-name="Path 3407" d="M-1080.149,1212.935c.19.058.349.171.326.388a.345.345,0,0,1-.387.327.328.328,0,0,1-.326-.38A.357.357,0,0,1-1080.149,1212.935Z" transform="translate(1094.531 -1200.304)" fill="#2699fb"/>
      <path id="Path_3408" data-name="Path 3408" d="M-1358.775,1086.383a5.9,5.9,0,0,1,2.309.466,5.912,5.912,0,0,1,1.886,1.272,5.907,5.907,0,0,1,1.272,1.886,5.892,5.892,0,0,1,.466,2.309,5.892,5.892,0,0,1-.466,2.309,5.906,5.906,0,0,1-1.272,1.886,5.913,5.913,0,0,1-1.886,1.272,5.893,5.893,0,0,1-2.309.466,5.892,5.892,0,0,1-2.309-.466,5.912,5.912,0,0,1-1.886-1.272,5.908,5.908,0,0,1-1.272-1.886,5.892,5.892,0,0,1-.466-2.309,5.892,5.892,0,0,1,.466-2.309,5.909,5.909,0,0,1,1.272-1.886,5.911,5.911,0,0,1,1.886-1.272,5.9,5.9,0,0,1,2.309-.466m0-.895a6.828,6.828,0,0,0-6.828,6.828,6.828,6.828,0,0,0,6.828,6.828,6.828,6.828,0,0,0,6.828-6.828,6.828,6.828,0,0,0-6.828-6.828Z" transform="translate(1371.625 -1076.421)" fill="#2699fb"/>
    </g>
  </g>
</svg>
