<svg xmlns="http://www.w3.org/2000/svg" width="48.528" height="52.06" viewBox="0 0 48.528 52.06">
  <g id="Group_1841" data-name="Group 1841" transform="translate(-229.811 -256.865)">
    <g id="Group_1349" data-name="Group 1349" transform="translate(229.811 256.865)">
      <g id="Group_1348" data-name="Group 1348" transform="translate(0 0)">
        <path id="Path_3196" data-name="Path 3196" d="M-1171.154,863.751c-.024.01-.049.018-.074.026C-1171.2,863.769-1171.178,863.761-1171.154,863.751Z" transform="translate(1192.678 -848.868)" fill="#192d33"/>
        <path id="Path_3197" data-name="Path 3197" d="M-1179.621,864.737l-.062-.008Z" transform="translate(1200.691 -849.794)" fill="#192d33"/>
        <path id="Path_3198" data-name="Path 3198" d="M-1168.024,862.145c-.023.015-.046.029-.069.042C-1168.069,862.174-1168.047,862.16-1168.024,862.145Z" transform="translate(1189.707 -847.346)" fill="#192d33"/>
        <path id="Path_3199" data-name="Path 3199" d="M-1172.723,864.311l-.07.017Z" transform="translate(1194.161 -849.398)" fill="#192d33"/>
        <path id="Path_3200" data-name="Path 3200" d="M-1174.459,864.685c-.026,0-.052.008-.078.011C-1174.511,864.693-1174.485,864.69-1174.459,864.685Z" transform="translate(1195.814 -849.753)" fill="#192d33"/>
        <path id="Path_3201" data-name="Path 3201" d="M-1177.935,864.929h0c-.028,0-.055,0-.083,0C-1177.99,864.927-1177.962,864.929-1177.935,864.929Z" transform="translate(1199.113 -849.98)" fill="#192d33"/>
        <path id="Path_3202" data-name="Path 3202" d="M-1166.425,861c-.021.018-.043.034-.066.05C-1166.468,861.034-1166.447,861.018-1166.425,861Z" transform="translate(1188.189 -846.261)" fill="#192d33"/>
        <path id="Path_3203" data-name="Path 3203" d="M-1176.305,864.921c-.026,0-.053,0-.08,0C-1176.358,864.925-1176.332,864.923-1176.305,864.921Z" transform="translate(1197.565 -849.977)" fill="#192d33"/>
        <path id="Path_3204" data-name="Path 3204" d="M-1169.437,862.963c-.024.013-.048.024-.073.035C-1169.485,862.987-1169.461,862.976-1169.437,862.963Z" transform="translate(1191.05 -848.121)" fill="#192d33"/>
        <path id="Path_3205" data-name="Path 3205" d="M-1164.979,859.8c-.018.019-.037.037-.057.053C-1165.017,859.836-1165,859.818-1164.979,859.8Z" transform="translate(1186.81 -845.123)" fill="#192d33"/>
        <path id="Path_3206" data-name="Path 3206" d="M-1152.707,830.911l-.013.033Z" transform="translate(1175.139 -817.747)" fill="#192d33"/>
        <path id="Path_3207" data-name="Path 3207" d="M-1152.076,829.289l-.015.034Z" transform="translate(1174.543 -816.21)" fill="#192d33"/>
        <path id="Path_3208" data-name="Path 3208" d="M-1151.409,827.735l-.016.034Z" transform="translate(1173.912 -814.737)" fill="#192d33"/>
        <path id="Path_3209" data-name="Path 3209" d="M-1153.3,832.643l-.01.028Z" transform="translate(1175.7 -819.388)" fill="#192d33"/>
        <path id="Path_3210" data-name="Path 3210" d="M-1163.7,858.326c-.019.023-.038.046-.059.067C-1163.737,858.372-1163.718,858.349-1163.7,858.326Z" transform="translate(1185.598 -843.727)" fill="#192d33"/>
        <path id="Path_3211" data-name="Path 3211" d="M-1159.9,851.561c-.019.046-.039.091-.061.134C-1159.939,851.652-1159.918,851.607-1159.9,851.561Z" transform="translate(1182.001 -837.316)" fill="#192d33"/>
        <path id="Path_3212" data-name="Path 3212" d="M-1162.355,856.544c-.018.027-.036.053-.056.077C-1162.392,856.6-1162.373,856.571-1162.355,856.544Z" transform="translate(1184.323 -842.038)" fill="#192d33"/>
        <path id="Path_3213" data-name="Path 3213" d="M-1121.461,761.233l.078,0Z" transform="translate(1145.516 -751.715)" fill="#192d33"/>
        <path id="Path_3214" data-name="Path 3214" d="M-1107.328,761.865l.1.014Z" transform="translate(1132.124 -752.316)" fill="#192d33"/>
        <path id="Path_3215" data-name="Path 3215" d="M-1181.67,864.342c-.028,0-.055-.01-.083-.017C-1181.725,864.332-1181.7,864.337-1181.67,864.342Z" transform="translate(1202.652 -849.412)" fill="#192d33"/>
        <path id="Path_3216" data-name="Path 3216" d="M-1104.127,762.34l.1.018Z" transform="translate(1129.09 -752.766)" fill="#192d33"/>
        <path id="Path_3217" data-name="Path 3217" d="M-1114.839,761.236c.056,0,.111,0,.166.009C-1114.728,761.241-1114.783,761.238-1114.839,761.236Z" transform="translate(1139.241 -751.72)" fill="#192d33"/>
        <path id="Path_3218" data-name="Path 3218" d="M-1091.636,765.46c.048.016.095.032.142.05C-1091.541,765.493-1091.588,765.476-1091.636,765.46Z" transform="translate(1117.253 -755.723)" fill="#192d33"/>
        <path id="Path_3219" data-name="Path 3219" d="M-1117.987,761.183H-1118l.148,0Z" transform="translate(1142.237 -751.669)" fill="#192d33"/>
        <path id="Path_3220" data-name="Path 3220" d="M-1094.889,764.444c.053.015.105.031.157.049C-1094.784,764.475-1094.836,764.459-1094.889,764.444Z" transform="translate(1120.336 -754.76)" fill="#192d33"/>
        <path id="Path_3221" data-name="Path 3221" d="M-1101,762.928l.1.023Z" transform="translate(1126.13 -753.323)" fill="#192d33"/>
        <path id="Path_3222" data-name="Path 3222" d="M-1097.924,763.63l.112.03Z" transform="translate(1123.212 -753.988)" fill="#192d33"/>
        <path id="Path_3223" data-name="Path 3223" d="M-1110.7,761.5l.115.011Z" transform="translate(1135.317 -751.972)" fill="#192d33"/>
        <path id="Path_3224" data-name="Path 3224" d="M-1150.7,826.231l-.016.033Z" transform="translate(1173.245 -813.312)" fill="#192d33"/>
        <path id="Path_3225" data-name="Path 3225" d="M-1185.039,863.28l-.063-.023Z" transform="translate(1205.826 -848.4)" fill="#192d33"/>
        <path id="Path_3226" data-name="Path 3226" d="M-1187.115,862.4c-.028-.011-.056-.024-.084-.037C-1187.172,862.374-1187.144,862.386-1187.115,862.4Z" transform="translate(1207.814 -847.551)" fill="#192d33"/>
        <path id="Path_3227" data-name="Path 3227" d="M-1183.33,863.877c-.028-.007-.057-.015-.085-.024C-1183.387,863.862-1183.359,863.87-1183.33,863.877Z" transform="translate(1204.228 -848.964)" fill="#192d33"/>
        <path id="Path_3228" data-name="Path 3228" d="M-1168.3,773.17a4.445,4.445,0,0,1,.428-.287A4.445,4.445,0,0,0-1168.3,773.17Z" transform="translate(1189.9 -762.757)" fill="#192d33"/>
        <path id="Path_3229" data-name="Path 3229" d="M-1124.932,761.413l.072,0Z" transform="translate(1148.806 -751.883)" fill="#192d33"/>
        <path id="Path_3230" data-name="Path 3230" d="M-1157.232,767.265a4.432,4.432,0,0,1,.474-.22A4.432,4.432,0,0,0-1157.232,767.265Z" transform="translate(1179.415 -757.224)" fill="#192d33"/>
        <path id="Path_3231" data-name="Path 3231" d="M-1087.985,766.785l.1.041Z" transform="translate(1113.793 -756.978)" fill="#192d33"/>
        <path id="Path_3232" data-name="Path 3232" d="M-1128.412,761.767l.06-.007Z" transform="translate(1152.103 -752.216)" fill="#192d33"/>
        <path id="Path_3233" data-name="Path 3233" d="M-1099.106,811.393c-.045-.03-.091-.058-.14-.084C-1099.2,811.335-1099.151,811.363-1099.106,811.393Z" transform="translate(1124.464 -799.171)" fill="#192d33"/>
        <path id="Path_3234" data-name="Path 3234" d="M-1089.929,862.559a1.614,1.614,0,0,0,.181-.271A1.614,1.614,0,0,1-1089.929,862.559Z" transform="translate(1115.635 -847.481)" fill="#192d33"/>
        <path id="Path_3235" data-name="Path 3235" d="M-1086.469,858.141a1.791,1.791,0,0,0,.1-.229A1.791,1.791,0,0,1-1086.469,858.141Z" transform="translate(1112.356 -843.334)" fill="#192d33"/>
        <path id="Path_3236" data-name="Path 3236" d="M-1122.708,806.463l-.036,0Z" transform="translate(1146.732 -794.579)" fill="#192d33"/>
        <path id="Path_3237" data-name="Path 3237" d="M-1101.087,873.717a1.645,1.645,0,0,0,.221-.118A1.645,1.645,0,0,1-1101.087,873.717Z" transform="translate(1126.209 -858.2)" fill="#192d33"/>
        <path id="Path_3238" data-name="Path 3238" d="M-1121.046,806.4h0Z" transform="translate(1145.16 -794.523)" fill="#192d33"/>
        <path id="Path_3239" data-name="Path 3239" d="M-1104.842,808.89a1.927,1.927,0,0,0-.309-.134A1.927,1.927,0,0,1-1104.842,808.89Z" transform="translate(1130.06 -796.752)" fill="#192d33"/>
        <path id="Path_3240" data-name="Path 3240" d="M-1117.323,806.472c-.037,0-.073-.006-.109-.009C-1117.4,806.466-1117.36,806.468-1117.323,806.472Z" transform="translate(1141.699 -794.58)" fill="#192d33"/>
        <path id="Path_3241" data-name="Path 3241" d="M-1109.882,807.475c-.056-.016-.114-.031-.174-.043C-1110,807.444-1109.939,807.459-1109.882,807.475Z" transform="translate(1134.709 -795.497)" fill="#192d33"/>
        <path id="Path_3242" data-name="Path 3242" d="M-1096.866,870.931a1.553,1.553,0,0,0,.2-.147A1.553,1.553,0,0,1-1096.866,870.931Z" transform="translate(1122.209 -855.533)" fill="#192d33"/>
        <path id="Path_3243" data-name="Path 3243" d="M-1140.261,926.145c.01-.063.016-.129.019-.2C-1140.245,926.016-1140.251,926.081-1140.261,926.145Z" transform="translate(1163.332 -907.809)" fill="#192d33"/>
        <path id="Path_3244" data-name="Path 3244" d="M-1105.788,875.95a1.817,1.817,0,0,0,.246-.088A1.817,1.817,0,0,1-1105.788,875.95Z" transform="translate(1130.664 -860.345)" fill="#192d33"/>
        <path id="Path_3245" data-name="Path 3245" d="M-1141.049,898.544a1.793,1.793,0,0,1,.066-.515A1.793,1.793,0,0,0-1141.049,898.544Z" transform="translate(1164.079 -881.351)" fill="#192d33"/>
        <path id="Path_3246" data-name="Path 3246" d="M-1510.656,1021.124c4.479-2.646,8.952-5.305,13.438-7.939C-1501.7,1015.819-1506.176,1018.478-1510.656,1021.124Z" transform="translate(1514.336 -990.479)" fill="#192d33"/>
        <path id="Path_3247" data-name="Path 3247" d="M-1139.8,894.064a1.3,1.3,0,0,1,.085-.219A1.3,1.3,0,0,0-1139.8,894.064Z" transform="translate(1162.894 -877.386)" fill="#192d33"/>
        <path id="Path_3248" data-name="Path 3248" d="M-1137.469,890.276a1.255,1.255,0,0,1,.085-.126A1.255,1.255,0,0,0-1137.469,890.276Z" transform="translate(1160.686 -873.885)" fill="#192d33"/>
        <path id="Path_3249" data-name="Path 3249" d="M-1119.223,879.332q.1-.027.208-.048Q-1119.123,879.305-1119.223,879.332Z" transform="translate(1143.396 -863.587)" fill="#192d33"/>
        <path id="Path_3250" data-name="Path 3250" d="M-1133.892,884.409a1.326,1.326,0,0,1,.255-.2A1.326,1.326,0,0,0-1133.892,884.409Z" transform="translate(1157.297 -868.258)" fill="#192d33"/>
        <path id="Path_3251" data-name="Path 3251" d="M-1137.637,811.028l-.026.016Z" transform="translate(1160.87 -798.905)" fill="#192d33"/>
        <path id="Path_3252" data-name="Path 3252" d="M-1142.253,814.631l-.019.017Z" transform="translate(1165.238 -802.319)" fill="#192d33"/>
        <path id="Path_3253" data-name="Path 3253" d="M-1141.156,813.625l-.022.018Z" transform="translate(1164.201 -801.366)" fill="#192d33"/>
        <path id="Path_3254" data-name="Path 3254" d="M-1140.023,812.693l-.023.018Z" transform="translate(1163.129 -800.483)" fill="#192d33"/>
        <path id="Path_3255" data-name="Path 3255" d="M-1145.57,818.262l-.013.016Z" transform="translate(1168.376 -805.76)" fill="#192d33"/>
        <path id="Path_3256" data-name="Path 3256" d="M-1149.182,823.373l-.018.031Z" transform="translate(1171.803 -810.604)" fill="#192d33"/>
        <path id="Path_3257" data-name="Path 3257" d="M-1138.85,811.828l-.025.017Z" transform="translate(1162.019 -799.663)" fill="#192d33"/>
        <path id="Path_3258" data-name="Path 3258" d="M-1147.5,820.717l-.018.027Z" transform="translate(1170.205 -808.087)" fill="#192d33"/>
        <path id="Path_3259" data-name="Path 3259" d="M-1146.575,819.464l-.017.023Z" transform="translate(1169.332 -806.899)" fill="#192d33"/>
        <path id="Path_3260" data-name="Path 3260" d="M-1124.328,806.594l-.034,0Z" transform="translate(1148.266 -794.703)" fill="#192d33"/>
        <path id="Path_3261" data-name="Path 3261" d="M-1130.821,807.957l-.021.007Z" transform="translate(1154.406 -795.995)" fill="#192d33"/>
        <path id="Path_3262" data-name="Path 3262" d="M-1127.455,807.1l-.02,0Z" transform="translate(1151.216 -795.182)" fill="#192d33"/>
        <path id="Path_3263" data-name="Path 3263" d="M-1125.91,806.8l-.03,0Z" transform="translate(1149.761 -794.898)" fill="#192d33"/>
        <path id="Path_3264" data-name="Path 3264" d="M-1132.329,808.445l-.025.01Z" transform="translate(1155.839 -796.457)" fill="#192d33"/>
        <path id="Path_3265" data-name="Path 3265" d="M-1133.734,809l-.027.012Z" transform="translate(1157.172 -796.981)" fill="#192d33"/>
        <path id="Path_3266" data-name="Path 3266" d="M-1149.963,824.778l-.017.032Z" transform="translate(1172.543 -811.935)" fill="#192d33"/>
        <path id="Path_3267" data-name="Path 3267" d="M-1136.381,810.289l-.027.015Z" transform="translate(1159.681 -798.204)" fill="#192d33"/>
        <path id="Path_3268" data-name="Path 3268" d="M-1135.083,809.612l-.027.014Z" transform="translate(1158.451 -797.563)" fill="#192d33"/>
        <path id="Path_3269" data-name="Path 3269" d="M-1148.361,822.02l-.018.029Z" transform="translate(1171.026 -809.321)" fill="#192d33"/>
        <path id="Path_3270" data-name="Path 3270" d="M-1070.654,775.968l.106.075Z" transform="translate(1097.369 -765.68)" fill="#192d33"/>
        <path id="Path_3271" data-name="Path 3271" d="M-1036,841.38c0,.059,0,.117,0,.175C-1036,841.5-1036,841.438-1036,841.38Z" transform="translate(1064.529 -827.668)" fill="#192d33"/>
        <path id="Path_3272" data-name="Path 3272" d="M-1044.724,805.552c.026.05.05.1.073.151C-1044.674,805.652-1044.7,805.6-1044.724,805.552Z" transform="translate(1072.797 -793.716)" fill="#192d33"/>
        <path id="Path_3273" data-name="Path 3273" d="M-1060.49,784.28l.077.077Z" transform="translate(1087.737 -773.557)" fill="#192d33"/>
        <path id="Path_3274" data-name="Path 3274" d="M-1046.231,802.727c.019.033.036.066.053.1C-1046.195,802.793-1046.212,802.76-1046.231,802.727Z" transform="translate(1074.225 -791.038)" fill="#192d33"/>
        <path id="Path_3275" data-name="Path 3275" d="M-1094.846,928.053a.922.922,0,0,0-.075.136A.922.922,0,0,1-1094.846,928.053Z" transform="translate(1120.366 -909.803)" fill="#192d33"/>
        <path id="Path_3276" data-name="Path 3276" d="M-1095.981,933.239a.567.567,0,0,0-.012.134A.567.567,0,0,1-1095.981,933.239Z" transform="translate(1121.382 -914.718)" fill="#192d33"/>
        <path id="Path_3277" data-name="Path 3277" d="M-1073.8,773.887c.047.029.092.059.137.09C-1073.7,773.946-1073.75,773.916-1073.8,773.887Z" transform="translate(1100.347 -763.708)" fill="#192d33"/>
        <path id="Path_3278" data-name="Path 3278" d="M-1038.777,858c-.021.114-.047.228-.077.34C-1038.824,858.23-1038.8,858.117-1038.777,858Z" transform="translate(1067.234 -843.42)" fill="#192d33"/>
        <path id="Path_3279" data-name="Path 3279" d="M-1037.32,848.073a4.414,4.414,0,0,1-.065.52A4.414,4.414,0,0,0-1037.32,848.073Z" transform="translate(1065.842 -834.011)" fill="#192d33"/>
        <path id="Path_3280" data-name="Path 3280" d="M-1062.8,782.142l.075.069Z" transform="translate(1089.93 -771.531)" fill="#192d33"/>
        <path id="Path_3281" data-name="Path 3281" d="M-1047.852,799.968c.018.029.036.059.053.089C-1047.816,800.027-1047.834,800-1047.852,799.968Z" transform="translate(1075.761 -788.424)" fill="#192d33"/>
        <path id="Path_3282" data-name="Path 3282" d="M-1056.138,788.8c.037.041.072.083.107.125C-1056.066,788.881-1056.1,788.839-1056.138,788.8Z" transform="translate(1083.613 -777.838)" fill="#192d33"/>
        <path id="Path_3283" data-name="Path 3283" d="M-1058.269,786.5c.032.033.063.067.094.1C-1058.206,786.566-1058.237,786.532-1058.269,786.5Z" transform="translate(1085.633 -775.66)" fill="#192d33"/>
        <path id="Path_3284" data-name="Path 3284" d="M-1053.552,791.877c.025.031.05.062.073.094C-1053.5,791.939-1053.527,791.908-1053.552,791.877Z" transform="translate(1081.163 -780.756)" fill="#192d33"/>
        <path id="Path_3285" data-name="Path 3285" d="M-1065.218,780.078l.078.066Z" transform="translate(1092.218 -769.575)" fill="#192d33"/>
        <path id="Path_3286" data-name="Path 3286" d="M-1051.46,794.6l.061.085Z" transform="translate(1079.18 -783.341)" fill="#192d33"/>
        <path id="Path_3287" data-name="Path 3287" d="M-1049.59,797.267l.056.085Z" transform="translate(1077.408 -785.864)" fill="#192d33"/>
        <path id="Path_3288" data-name="Path 3288" d="M-1067.767,778.064l.085.066Z" transform="translate(1094.634 -767.667)" fill="#192d33"/>
        <path id="Path_3289" data-name="Path 3289" d="M-1082.032,769.359l.092.045Z" transform="translate(1108.152 -759.417)" fill="#192d33"/>
        <path id="Path_3290" data-name="Path 3290" d="M-1139.9,923.993c0,.035,0,.069,0,.1C-1139.9,924.062-1139.9,924.028-1139.9,923.993Z" transform="translate(1162.991 -905.956)" fill="#192d33"/>
        <path id="Path_3291" data-name="Path 3291" d="M-1092.973,867.457a1.566,1.566,0,0,1-.168.174A1.566,1.566,0,0,0-1092.973,867.457Z" transform="translate(1118.68 -852.38)" fill="#192d33"/>
        <path id="Path_3292" data-name="Path 3292" d="M-654.516,1253.535c.007.061.013.121.017.181h0C-654.5,1253.656-654.509,1253.6-654.516,1253.535Z" transform="translate(703.017 -1218.246)" fill="#192d33"/>
        <path id="Path_3293" data-name="Path 3293" d="M-1084.386,842.622a2.223,2.223,0,0,1-.126.8A2.223,2.223,0,0,0-1084.386,842.622Z" transform="translate(1110.503 -828.845)" fill="#192d33"/>
        <path id="Path_3294" data-name="Path 3294" d="M-1548.791,653.19c4.382-2.594,8.912-5.276,13.392-7.88a2.245,2.245,0,0,0,.726-.568c.034-.052.115-.175.062-.549a3.475,3.475,0,0,1,.1-1.565,2.311,2.311,0,0,1-.634.088,2.659,2.659,0,0,1-1.149-.27,2.634,2.634,0,0,1-1.411-2.92,5.653,5.653,0,0,1,4.654-4.881,5.626,5.626,0,0,1,.978-.086,5.639,5.639,0,0,1,5.135,3.271,5.709,5.709,0,0,1-1.539,6.727,6.785,6.785,0,0,1-.66.459l-.024.015c2.837,1.682,5.727,3.383,8.522,5.028,1.57.924,3.193,1.88,4.79,2.822.479.283.969.57,1.443.847,1.425.834,2.9,1.7,4.329,2.593a10.537,10.537,0,0,1,.92.644V629h-45.805v28a12.668,12.668,0,0,1,1.628-1.118C-1551.822,654.985-1550.281,654.073-1548.791,653.19Z" transform="translate(1556.326 -626.406)" fill="#192d33"/>
        <path id="Path_3295" data-name="Path 3295" d="M-1084.937,768.035l.094.042Z" transform="translate(1110.905 -758.163)" fill="#192d33"/>
        <path id="Path_3296" data-name="Path 3296" d="M-793.522,1123.716q.721.422,1.441.846Q-792.8,1124.137-793.522,1123.716Z" transform="translate(834.745 -1095.223)" fill="#192d33"/>
        <path id="Path_3297" data-name="Path 3297" d="M-1119.481,806.4l.074,0Z" transform="translate(1143.64 -794.521)" fill="#192d33"/>
        <path id="Path_3298" data-name="Path 3298" d="M-760.179,1145.64q.014.093.025.184-.01-.091-.025-.184a5.79,5.79,0,0,0-2.952-4.037c-.944-.591-1.9-1.164-2.859-1.729.96.566,1.915,1.138,2.859,1.729A5.79,5.79,0,0,1-760.179,1145.64Z" transform="translate(808.655 -1110.536)" fill="#192d33"/>
        <path id="Path_3299" data-name="Path 3299" d="M-1068.151,899.442c-.049.04-.1.078-.151.115.052-.037.1-.075.151-.115a3.945,3.945,0,0,0,.389-.36A3.945,3.945,0,0,1-1068.151,899.442Z" transform="translate(1095.14 -882.349)" fill="#192d33"/>
        <path id="Path_3300" data-name="Path 3300" d="M-1076.472,772.282l.107.064Z" transform="translate(1102.883 -762.187)" fill="#192d33"/>
        <path id="Path_3301" data-name="Path 3301" d="M-1079.219,770.771l.094.051Z" transform="translate(1105.486 -760.755)" fill="#192d33"/>
        <path id="Path_3302" data-name="Path 3302" d="M-1143.326,815.775l.012-.012Z" transform="translate(1166.237 -803.392)" fill="#192d33"/>
        <path id="Path_3303" data-name="Path 3303" d="M-1198.174,778.373a4.071,4.071,0,0,0-1.631,2.832c-.011.12-.019.239-.02.354,0-.116.009-.235.02-.354A4.071,4.071,0,0,1-1198.174,778.373Z" transform="translate(1219.778 -767.959)" fill="#192d33"/>
        <path id="Path_3304" data-name="Path 3304" d="M-1580.964,1257.123l.01-.006-.01.006Z" transform="translate(1580.964 -1221.641)" fill="#192d33"/>
        <rect id="Rectangle_146" data-name="Rectangle 146" width="48.528" height="1.835" fill="#192d33"/>
        <path id="Path_3305" data-name="Path 3305" d="M-1554.965,629h45.805v27.965a10.537,10.537,0,0,0-.92-.644c-1.431-.9-2.9-1.759-4.329-2.593-.474-.277-.964-.564-1.443-.847-1.6-.942-3.22-1.9-4.79-2.822-2.8-1.645-5.686-3.346-8.522-5.028l.024-.015a6.785,6.785,0,0,0,.66-.459,5.709,5.709,0,0,0,1.539-6.727,5.639,5.639,0,0,0-5.135-3.271,5.626,5.626,0,0,0-.978.086,5.653,5.653,0,0,0-4.654,4.881,2.634,2.634,0,0,0,1.411,2.92,2.659,2.659,0,0,0,1.149.27,2.311,2.311,0,0,0,.634-.088,3.475,3.475,0,0,0-.1,1.565c.053.374-.028.5-.062.549a2.245,2.245,0,0,1-.726.568c-4.479,2.6-9.01,5.286-13.392,7.88-1.49.882-3.031,1.794-4.546,2.69a12.668,12.668,0,0,0-1.628,1.118Z" transform="translate(1556.326 -626.406)" fill="#192d33"/>
        <path id="Path_3306" data-name="Path 3306" d="M-734.392,1211.373a6.277,6.277,0,0,0-.643-.47Z" transform="translate(779.321 -1177.846)" fill="#192d33"/>
        <path id="Path_3307" data-name="Path 3307" d="M-1532.482,786.779a5.789,5.789,0,0,0-2.952-4.037c-.944-.591-1.9-1.164-2.859-1.73q-.72-.424-1.442-.846t-1.441-.846q-6.673-3.937-13.348-7.871c-.087-.051-.167-.1-.243-.151q-.17-.112-.3-.218-.089-.071-.162-.141a1.715,1.715,0,0,1-.131-.138,1.062,1.062,0,0,1-.136-.2c-.011-.023-.021-.045-.03-.067a.635.635,0,0,1-.035-.134.557.557,0,0,1-.005-.067.544.544,0,0,1,.012-.134.667.667,0,0,1,.044-.135.908.908,0,0,1,.075-.136,2.824,2.824,0,0,1,.842-.729c.16-.1.323-.2.476-.313.052-.037.1-.075.151-.114a4.019,4.019,0,0,0,.389-.36,4.226,4.226,0,0,0,1-1.811q.045-.168.077-.34a4.366,4.366,0,0,0,.065-.52q.005-.088.008-.175t0-.175a4.434,4.434,0,0,0-.039-.526q-.024-.175-.062-.349a4.333,4.333,0,0,0-.148-.515q-.06-.169-.135-.335c-.024-.051-.048-.1-.073-.151l-.026-.048c-.017-.034-.035-.067-.054-.1l-.032-.056-.053-.089-.035-.056c-.018-.029-.037-.057-.056-.085l-.037-.054-.061-.085-.036-.049-.073-.094-.028-.036q-.052-.064-.107-.125l-.018-.019c-.031-.034-.062-.068-.094-.1l-.039-.04-.077-.076-.046-.043-.076-.069-.048-.042-.078-.066-.049-.04-.085-.066-.045-.034c-.035-.026-.07-.051-.106-.075l-.027-.019c-.046-.031-.091-.061-.138-.09l-.033-.02-.107-.064-.051-.028-.093-.051-.056-.029-.091-.045-.058-.027-.094-.042-.056-.024-.1-.041-.05-.019c-.047-.018-.094-.034-.141-.05l-.013,0q-.078-.026-.157-.048l-.047-.013-.112-.03-.059-.014-.1-.023-.064-.013-.1-.018-.065-.01-.1-.014-.062-.008-.115-.011-.051,0c-.055,0-.11-.007-.166-.009h-.017l-.148,0-.1,0-.078,0-.11.007-.072.005-.122.013-.06.007c-.061.008-.121.017-.182.028a4.414,4.414,0,0,0-.853.242,4.4,4.4,0,0,0-.474.22c-.051.027-.1.056-.151.085a4.521,4.521,0,0,0-.428.287,4.073,4.073,0,0,0-1.631,2.832c-.011.12-.019.238-.019.354a1.182,1.182,0,0,0,.66,1.21h0c.028.013.056.026.084.037l.025.01.063.023.025.008c.029.009.057.018.085.024h0c.028.007.056.012.083.017l.025,0,.063.008.025,0c.028,0,.055,0,.083,0h0c.027,0,.053,0,.079,0h.017c.026,0,.052-.006.078-.011l.013,0,.07-.017.012,0c.024-.008.05-.016.073-.026l.016-.007c.025-.01.049-.022.073-.035h0c.023-.013.046-.027.069-.042l.015-.01a.771.771,0,0,0,.065-.05l.011-.01c.02-.017.039-.034.057-.053l.01-.01c.02-.021.04-.043.058-.067l.012-.016c.019-.025.038-.05.056-.078a1.393,1.393,0,0,0,.073-.126c.022-.044.042-.089.061-.135a3.188,3.188,0,0,0,.117-.358c.047-.172.088-.348.141-.516.01-.03.019-.059.029-.088l.01-.028.021-.058.013-.033.02-.051.014-.034.021-.048.015-.034.022-.046.016-.033.023-.044.017-.032c.007-.015.016-.029.024-.043l.018-.031.026-.042.018-.029.028-.042.017-.027.031-.042.017-.023.036-.046.012-.016c.034-.041.069-.081.105-.119l.012-.012.043-.042.018-.017.039-.035.021-.018.038-.031.023-.018.038-.028.025-.017.038-.026.026-.016.04-.024.027-.015.042-.022.027-.013.044-.02.027-.012.047-.019.025-.01.054-.019.021-.007c.051-.016.1-.03.156-.041l.02,0,.061-.011.03,0,.053-.007.034,0,.051,0,.037,0,.05,0h.084l.074,0h.034l.109.008a2.688,2.688,0,0,1,.277.042c.059.013.117.027.174.043l.083.026a1.927,1.927,0,0,1,.309.134q.073.039.139.084a1.633,1.633,0,0,1,.634.823,2.134,2.134,0,0,1,.072.256,2.459,2.459,0,0,1,.049.378c0,.033,0,.065,0,.1a2.222,2.222,0,0,1-.126.8,1.825,1.825,0,0,1-.1.229,1.642,1.642,0,0,1-.181.27,1.59,1.59,0,0,1-.168.174,1.593,1.593,0,0,1-.195.147,1.689,1.689,0,0,1-.221.118,1.8,1.8,0,0,1-.246.088,2.027,2.027,0,0,1-.271.055c-.078.01-.153.023-.225.037s-.141.03-.208.048a2.022,2.022,0,0,0-.513.21,1.326,1.326,0,0,0-.255.2,1.146,1.146,0,0,0-.1.115,1.188,1.188,0,0,0-.085.126c-.013.022-.025.044-.037.067a1.275,1.275,0,0,0-.085.219,1.819,1.819,0,0,0-.065.515,2.916,2.916,0,0,0,.032.4c.011.078.02.155.025.229s.007.145.007.214c0,.035,0,.069,0,.1,0,.067-.01.132-.019.2s-.021.125-.036.184a1.757,1.757,0,0,1-.083.256,1.68,1.68,0,0,1-.074.159c-.014.026-.028.051-.042.076-.03.05-.062.1-.1.146s-.071.094-.11.139a2.546,2.546,0,0,1-.19.2c-.045.042-.093.084-.143.124s-.1.081-.155.12-.109.078-.167.117q-.172.115-.365.227-2.249,1.307-4.492,2.625c-4.486,2.635-8.958,5.293-13.438,7.94l-.23.139a8.037,8.037,0,0,0-2.542,2.28q-.152.223-.285.464a4.738,4.738,0,0,0-.614,1.948c-.14,1.963,1.289,3.482,3.71,3.527.607.011,1.216,0,1.824,0,.861,0,1.726-.042,2.584.011,1.162.073.941-.775,1.03-1.434.108-.793-.353-.924-1-.915-1.419.019-2.838.026-4.257,0-1.457-.03-1.878-.792-1.154-2.066a5.158,5.158,0,0,1,1.993-1.824c6.193-3.654,12.393-7.3,18.558-11a1.6,1.6,0,0,1,1.913.032q9.346,5.534,18.716,11.027.183.108.362.223a6.191,6.191,0,0,1,.643.471,3.65,3.65,0,0,1,.943,1.171c.634,1.279.271,1.929-1.159,1.966s-2.837.018-4.256.016c-.6,0-1.165.039-1.053.876.088.657-.119,1.491,1.028,1.458,1.671-.048,3.347.039,5.015-.044a3.124,3.124,0,0,0,3.071-3.5c0-.06-.01-.121-.017-.181S-1532.472,786.84-1532.482,786.779Z" transform="translate(1580.957 -751.674)" fill="#192d33"/>
        <path id="Path_3308" data-name="Path 3308" d="M-1077.434,771.744l.05.028Z" transform="translate(1103.794 -761.677)" fill="#192d33"/>
        <path id="Path_3309" data-name="Path 3309" d="M-1111.668,761.414l.051,0Z" transform="translate(1136.236 -751.888)" fill="#192d33"/>
        <path id="Path_3310" data-name="Path 3310" d="M-1127.032,806.883l-.06.011Z" transform="translate(1150.853 -794.977)" fill="#192d33"/>
        <path id="Path_3311" data-name="Path 3311" d="M-1130.3,807.172q-.08.017-.156.041Q-1130.377,807.189-1130.3,807.172Z" transform="translate(1154.038 -795.251)" fill="#192d33"/>
        <path id="Path_3312" data-name="Path 3312" d="M-1131.817,808.089l-.054.019Z" transform="translate(1155.381 -796.12)" fill="#192d33"/>
        <path id="Path_3313" data-name="Path 3313" d="M-1145.335,816.115c.034-.042.069-.081.105-.119C-1145.266,816.034-1145.3,816.073-1145.335,816.115Z" transform="translate(1168.141 -803.613)" fill="#192d33"/>
        <path id="Path_3314" data-name="Path 3314" d="M-1123.664,806.5l-.051,0Z" transform="translate(1147.652 -794.618)" fill="#192d33"/>
        <path id="Path_3315" data-name="Path 3315" d="M-1122,806.419l-.05,0Z" transform="translate(1146.071 -794.537)" fill="#192d33"/>
        <path id="Path_3316" data-name="Path 3316" d="M-1199.826,839.242a1.182,1.182,0,0,0,.661,1.21h0A1.182,1.182,0,0,1-1199.826,839.242Z" transform="translate(1219.779 -825.642)" fill="#192d33"/>
        <path id="Path_3317" data-name="Path 3317" d="M-1156.565,833.784c.047-.172.089-.348.141-.516.01-.03.02-.059.03-.088-.01.029-.02.058-.03.088C-1156.476,833.436-1156.518,833.612-1156.565,833.784Z" transform="translate(1178.783 -819.897)" fill="#192d33"/>
        <path id="Path_3318" data-name="Path 3318" d="M-1125.319,806.66l-.053.007Z" transform="translate(1149.223 -794.766)" fill="#192d33"/>
        <path id="Path_3319" data-name="Path 3319" d="M-1134.551,809.225l-.044.02Z" transform="translate(1157.963 -797.196)" fill="#192d33"/>
        <path id="Path_3320" data-name="Path 3320" d="M-1137.129,810.575l-.04.024Z" transform="translate(1160.402 -798.476)" fill="#192d33"/>
        <path id="Path_3321" data-name="Path 3321" d="M-1089.562,947.456q.073.07.162.141Q-1089.489,947.526-1089.562,947.456Z" transform="translate(1115.287 -928.19)" fill="#192d33"/>
        <path id="Path_3322" data-name="Path 3322" d="M-1094.649,940.922a1.069,1.069,0,0,0,.136.2A1.069,1.069,0,0,1-1094.649,940.922Z" transform="translate(1120.108 -921.999)" fill="#192d33"/>
        <path id="Path_3323" data-name="Path 3323" d="M-1086.46,950.152q.134.107.3.218Q-1086.326,950.259-1086.46,950.152Z" transform="translate(1112.348 -930.745)" fill="#192d33"/>
        <path id="Path_3324" data-name="Path 3324" d="M-1115.174,761.23h0Z" transform="translate(1139.559 -751.714)" fill="#192d33"/>
        <path id="Path_3325" data-name="Path 3325" d="M-1138.362,811.337l-.039.026Z" transform="translate(1161.57 -799.198)" fill="#192d33"/>
        <path id="Path_3326" data-name="Path 3326" d="M-1133.207,808.634l-.047.019Z" transform="translate(1156.692 -796.636)" fill="#192d33"/>
        <path id="Path_3327" data-name="Path 3327" d="M-1135.859,809.871l-.042.022Z" transform="translate(1159.201 -797.808)" fill="#192d33"/>
        <path id="Path_3328" data-name="Path 3328" d="M-1074.423,773.508l.033.02Z" transform="translate(1100.941 -763.349)" fill="#192d33"/>
        <path id="Path_3329" data-name="Path 3329" d="M-1108.511,761.716l.062.008Z" transform="translate(1133.244 -752.174)" fill="#192d33"/>
        <path id="Path_3330" data-name="Path 3330" d="M-1080.658,954.323q.114.074.243.151Q-1080.544,954.4-1080.658,954.323Z" transform="translate(1106.849 -934.698)" fill="#192d33"/>
        <path id="Path_3331" data-name="Path 3331" d="M-1083.139,768.836l.058.027Z" transform="translate(1109.2 -758.922)" fill="#192d33"/>
        <path id="Path_3332" data-name="Path 3332" d="M-1091.885,765.373l.013,0Z" transform="translate(1117.489 -755.64)" fill="#192d33"/>
        <path id="Path_3333" data-name="Path 3333" d="M-1142.52,933.457a1.784,1.784,0,0,0,.083-.256A1.784,1.784,0,0,1-1142.52,933.457Z" transform="translate(1165.473 -914.682)" fill="#192d33"/>
        <path id="Path_3334" data-name="Path 3334" d="M-1143.941,938.254c.027-.052.052-.1.074-.159C-1143.889,938.149-1143.914,938.2-1143.941,938.254Z" transform="translate(1166.82 -919.32)" fill="#192d33"/>
        <path id="Path_3335" data-name="Path 3335" d="M-1139.563,812.157l-.038.028Z" transform="translate(1162.707 -799.975)" fill="#192d33"/>
        <path id="Path_3336" data-name="Path 3336" d="M-1561.057,1167.494a8.047,8.047,0,0,0-2.542,2.28A8.047,8.047,0,0,1-1561.057,1167.494Z" transform="translate(1564.507 -1136.709)" fill="#192d33"/>
        <path id="Path_3337" data-name="Path 3337" d="M-1095.788,764.2l.047.013Z" transform="translate(1121.187 -754.526)" fill="#192d33"/>
        <path id="Path_3338" data-name="Path 3338" d="M-1086.017,767.57l.057.024Z" transform="translate(1111.928 -757.722)" fill="#192d33"/>
        <path id="Path_3339" data-name="Path 3339" d="M-1146.595,942.729q.052-.071.1-.146Q-1146.543,942.658-1146.595,942.729Z" transform="translate(1169.335 -923.573)" fill="#192d33"/>
        <path id="Path_3340" data-name="Path 3340" d="M-1088.934,766.416l.05.019Z" transform="translate(1114.692 -756.628)" fill="#192d33"/>
        <path id="Path_3341" data-name="Path 3341" d="M-1161.189,956.588c.057-.039.113-.077.166-.117C-1161.076,956.51-1161.131,956.549-1161.189,956.588Z" transform="translate(1183.165 -936.733)" fill="#192d33"/>
        <path id="Path_3342" data-name="Path 3342" d="M-1158.011,954.292c.054-.039.105-.08.155-.12C-1157.906,954.213-1157.957,954.253-1158.011,954.292Z" transform="translate(1180.153 -934.555)" fill="#192d33"/>
        <path id="Path_3343" data-name="Path 3343" d="M-1102.222,762.685l.064.013Z" transform="translate(1127.285 -753.093)" fill="#192d33"/>
        <path id="Path_3344" data-name="Path 3344" d="M-1080.287,770.222l.056.029Z" transform="translate(1106.498 -760.235)" fill="#192d33"/>
        <path id="Path_3345" data-name="Path 3345" d="M-1084.409,828.9a1.938,1.938,0,0,0-.072-.256A1.938,1.938,0,0,1-1084.409,828.9Z" transform="translate(1110.472 -815.599)" fill="#192d33"/>
        <path id="Path_3346" data-name="Path 3346" d="M-1083.052,833.908a2.373,2.373,0,0,0-.049-.378,2.373,2.373,0,0,1,.049.378c0,.033,0,.065,0,.1C-1083.049,833.974-1083.05,833.941-1083.052,833.908Z" transform="translate(1109.165 -820.229)" fill="#192d33"/>
        <path id="Path_3347" data-name="Path 3347" d="M-1120.348,806.393h0Z" transform="translate(1144.462 -794.513)" fill="#192d33"/>
        <path id="Path_3348" data-name="Path 3348" d="M-1105.365,762.139l.065.01Z" transform="translate(1130.263 -752.575)" fill="#192d33"/>
        <path id="Path_3349" data-name="Path 3349" d="M-1152.141,948.033a2.378,2.378,0,0,1-.19.2A2.378,2.378,0,0,0-1152.141,948.033Z" transform="translate(1174.771 -928.737)" fill="#192d33"/>
        <path id="Path_3350" data-name="Path 3350" d="M-1099.06,763.362l.06.014Z" transform="translate(1124.288 -753.734)" fill="#192d33"/>
        <path id="Path_3351" data-name="Path 3351" d="M-1139.973,919.894c.005.074.008.145.007.214C-1139.965,920.039-1139.968,919.968-1139.973,919.894Z" transform="translate(1163.06 -902.072)" fill="#192d33"/>
        <path id="Path_3352" data-name="Path 3352" d="M-1141.048,907.871a2.958,2.958,0,0,0,.032.4c.011.078.02.154.025.228-.005-.074-.013-.15-.025-.228A2.958,2.958,0,0,1-1141.048,907.871Z" transform="translate(1164.078 -890.678)" fill="#192d33"/>
        <path id="Path_3353" data-name="Path 3353" d="M-1118.042,806.44h0Z" transform="translate(1142.309 -794.556)" fill="#192d33"/>
        <path id="Path_3354" data-name="Path 3354" d="M-1150.388,825.388l-.023.044Z" transform="translate(1172.951 -812.513)" fill="#192d33"/>
        <path id="Path_3355" data-name="Path 3355" d="M-1063.727,781.333l.048.042Z" transform="translate(1090.805 -770.764)" fill="#192d33"/>
        <path id="Path_3356" data-name="Path 3356" d="M-1163.941,859.6l-.01.01Z" transform="translate(1185.783 -844.938)" fill="#192d33"/>
        <path id="Path_3357" data-name="Path 3357" d="M-1165.231,860.819l-.011.01Z" transform="translate(1187.005 -846.089)" fill="#192d33"/>
        <path id="Path_3358" data-name="Path 3358" d="M-1052.15,793.667l.036.049Z" transform="translate(1079.834 -782.453)" fill="#192d33"/>
        <path id="Path_3359" data-name="Path 3359" d="M-1166.758,861.954l-.015.01Z" transform="translate(1188.456 -847.165)" fill="#192d33"/>
        <path id="Path_3360" data-name="Path 3360" d="M-1050.294,796.231l.037.054Z" transform="translate(1078.075 -784.883)" fill="#192d33"/>
        <path id="Path_3361" data-name="Path 3361" d="M-1153.1,831.538l-.021.058Z" transform="translate(1175.518 -818.341)" fill="#192d33"/>
        <path id="Path_3362" data-name="Path 3362" d="M-1162.633,858.027l-.012.016Z" transform="translate(1184.545 -843.443)" fill="#192d33"/>
        <path id="Path_3363" data-name="Path 3363" d="M-1181.785,864.317h0Z" transform="translate(1202.684 -849.404)" fill="#192d33"/>
        <path id="Path_3364" data-name="Path 3364" d="M-1185.561,863.078l-.026-.01Z" transform="translate(1206.285 -848.221)" fill="#192d33"/>
        <path id="Path_3365" data-name="Path 3365" d="M-1046.843,801.666l.032.055Z" transform="translate(1074.805 -790.033)" fill="#192d33"/>
        <path id="Path_3366" data-name="Path 3366" d="M-1183.871,863.7l-.025-.008Z" transform="translate(1204.684 -848.813)" fill="#192d33"/>
        <path id="Path_3367" data-name="Path 3367" d="M-1048.526,798.892l.036.056Z" transform="translate(1076.4 -787.404)" fill="#192d33"/>
        <path id="Path_3368" data-name="Path 3368" d="M-1174.849,864.893h0Z" transform="translate(1196.126 -849.95)" fill="#192d33"/>
        <path id="Path_3369" data-name="Path 3369" d="M-1061.362,783.46l.046.043Z" transform="translate(1088.564 -772.78)" fill="#192d33"/>
        <path id="Path_3370" data-name="Path 3370" d="M-1173.037,864.632l-.013,0Z" transform="translate(1194.405 -849.703)" fill="#192d33"/>
        <path id="Path_3371" data-name="Path 3371" d="M-1059.018,785.741l.039.04Z" transform="translate(1086.342 -774.942)" fill="#192d33"/>
        <path id="Path_3372" data-name="Path 3372" d="M-1176.424,864.991h0Z" transform="translate(1197.604 -850.043)" fill="#192d33"/>
        <path id="Path_3373" data-name="Path 3373" d="M-1171.451,864.247l-.012,0Z" transform="translate(1192.902 -849.338)" fill="#192d33"/>
        <path id="Path_3374" data-name="Path 3374" d="M-1054.095,791.193l.029.036Z" transform="translate(1081.677 -780.108)" fill="#192d33"/>
        <path id="Path_3375" data-name="Path 3375" d="M-1056.478,788.429l.018.019Z" transform="translate(1083.936 -777.489)" fill="#192d33"/>
        <path id="Path_3376" data-name="Path 3376" d="M-1169.8,863.623l-.016.007Z" transform="translate(1191.342 -848.746)" fill="#192d33"/>
        <path id="Path_3377" data-name="Path 3377" d="M-1180.14,864.657l-.025,0Z" transform="translate(1201.147 -849.722)" fill="#192d33"/>
        <path id="Path_3378" data-name="Path 3378" d="M-1168.115,862.949h0Z" transform="translate(1189.729 -848.108)" fill="#192d33"/>
        <path id="Path_3379" data-name="Path 3379" d="M-1045.21,804.628l.025.048Z" transform="translate(1073.257 -792.84)" fill="#192d33"/>
        <path id="Path_3380" data-name="Path 3380" d="M-1127.264,761.517l.122-.013Z" transform="translate(1151.016 -751.973)" fill="#192d33"/>
        <path id="Path_3381" data-name="Path 3381" d="M-1146.236,818.578l-.036.046Z" transform="translate(1169.029 -806.06)" fill="#192d33"/>
        <path id="Path_3382" data-name="Path 3382" d="M-1152.456,829.938l-.02.051Z" transform="translate(1174.908 -816.825)" fill="#192d33"/>
        <path id="Path_3383" data-name="Path 3383" d="M-1131.89,761.916c.061-.011.122-.02.182-.028C-1131.768,761.9-1131.829,761.905-1131.89,761.916Z" transform="translate(1155.4 -752.337)" fill="#192d33"/>
        <path id="Path_3384" data-name="Path 3384" d="M-1071.17,775.6l.027.019Z" transform="translate(1097.858 -765.334)" fill="#192d33"/>
        <path id="Path_3385" data-name="Path 3385" d="M-1147.142,819.9l-.031.042Z" transform="translate(1169.883 -807.316)" fill="#192d33"/>
        <path id="Path_3386" data-name="Path 3386" d="M-1119.975,761.19l.1,0Z" transform="translate(1144.108 -751.674)" fill="#192d33"/>
        <path id="Path_3387" data-name="Path 3387" d="M-1140.733,813.033l-.038.031Z" transform="translate(1163.816 -800.805)" fill="#192d33"/>
        <path id="Path_3388" data-name="Path 3388" d="M-1143.05,814.954l-.043.042Z" transform="translate(1166.016 -802.625)" fill="#192d33"/>
        <path id="Path_3389" data-name="Path 3389" d="M-1123.556,761.278l.11-.007Z" transform="translate(1147.502 -751.753)" fill="#192d33"/>
        <path id="Path_3390" data-name="Path 3390" d="M-1141.88,813.965l-.039.035Z" transform="translate(1164.903 -801.688)" fill="#192d33"/>
        <path id="Path_3391" data-name="Path 3391" d="M-1148.009,821.224l-.028.042Z" transform="translate(1170.701 -808.567)" fill="#192d33"/>
        <path id="Path_3392" data-name="Path 3392" d="M-1151.11,826.861l-.021.046Z" transform="translate(1173.634 -813.909)" fill="#192d33"/>
        <path id="Path_3393" data-name="Path 3393" d="M-1095.881,937.078a.646.646,0,0,0,.035.134A.646.646,0,0,1-1095.881,937.078Z" transform="translate(1121.276 -918.356)" fill="#192d33"/>
        <path id="Path_3394" data-name="Path 3394" d="M-1066.147,779.32l.049.04Z" transform="translate(1093.098 -768.857)" fill="#192d33"/>
        <path id="Path_3395" data-name="Path 3395" d="M-1068.627,777.411l.045.034Z" transform="translate(1095.449 -767.048)" fill="#192d33"/>
        <path id="Path_3396" data-name="Path 3396" d="M-1151.8,828.377l-.021.048Z" transform="translate(1174.284 -815.346)" fill="#192d33"/>
        <path id="Path_3397" data-name="Path 3397" d="M-1149.631,823.959l-.024.043Z" transform="translate(1172.234 -811.159)" fill="#192d33"/>
        <path id="Path_3398" data-name="Path 3398" d="M-1148.838,822.573l-.025.042Z" transform="translate(1171.484 -809.846)" fill="#192d33"/>
        <path id="Path_3399" data-name="Path 3399" d="M-1178.464,864.882l-.025,0Z" transform="translate(1199.559 -849.938)" fill="#192d33"/>
        <path id="Path_3400" data-name="Path 3400" d="M-1037.92,824.666q.038.173.062.349Q-1037.882,824.839-1037.92,824.666Z" transform="translate(1066.349 -811.829)" fill="#192d33"/>
        <path id="Path_3401" data-name="Path 3401" d="M-1043.328,808.446q.076.165.136.334Q-1043.252,808.611-1043.328,808.446Z" transform="translate(1071.474 -796.458)" fill="#192d33"/>
        <path id="Path_3402" data-name="Path 3402" d="M-1036.735,831.325a4.432,4.432,0,0,1,.04.526A4.432,4.432,0,0,0-1036.735,831.325Z" transform="translate(1065.226 -818.139)" fill="#192d33"/>
      </g>
      <path id="Path_3403" data-name="Path 3403" d="M-1288.918,1293.289c.029-.4.044-.809.089-1.211.086-.767.5-.954,1.15-.583a11.987,11.987,0,0,1,1.281.815c2.839,2.125,5.834,2.025,8.886.582a24.494,24.494,0,0,1,4.085-1.5c1.816-.492,2.563.173,2.539,2.072a9.211,9.211,0,0,1-6.641,8.51,9.018,9.018,0,0,1-10.186-4.187A8.757,8.757,0,0,1-1288.918,1293.289Zm11.8,6.9c2.483-.551,4.516-2.975,4.366-5.153A9.641,9.641,0,0,1-1277.119,1300.188Zm-.984-3.644c.04-.609-.277-.934-.968-.93-.587,0-1.12.053-1.168.812a1.078,1.078,0,0,0,.97,1.259A1.064,1.064,0,0,0-1278.1,1296.544Zm-7.507-.125c.394-.141.77-.344.8-.882a.841.841,0,0,0-.865-.98.825.825,0,0,0-.865.838C-1286.577,1295.973-1286.225,1296.292-1285.61,1296.418Zm10.013-2.645a.832.832,0,0,0-.867.821.85.85,0,0,0,.828.916.758.758,0,0,0,.877-.814C-1274.733,1294.147-1275.019,1293.855-1275.6,1293.773Zm-5.651,5.643c-.081-.438-.293-.743-.787-.717-.433.022-.606.311-.6.7a.645.645,0,0,0,.744.723C-1281.471,1300.1-1281.326,1299.782-1281.248,1299.416Z" transform="translate(1304.208 -1253.975)" fill="#192d33"/>
      <path id="Path_3404" data-name="Path 3404" d="M-1250.624,1228.769l-1.014-.7c2.85.612,5.157-.5,7.643-.532-.823.31-1.647.618-2.469.932-1.109.425-2.278.378-3.416,1.1-1.7,1.078-5.677-1.288-6.056-3.317a1.768,1.768,0,0,1,1.153-2.2,1.438,1.438,0,0,1,1.955.661,1.451,1.451,0,0,1-.838,2.117c-.705.309-.514.643-.125.982A3.437,3.437,0,0,0-1250.624,1228.769Z" transform="translate(1272.998 -1190.175)" fill="#192d33"/>
      <path id="Path_3405" data-name="Path 3405" d="M-1156.957,1230.34a1.384,1.384,0,0,1,1.363,1.5,1.262,1.262,0,0,1-1.358,1.317,1.279,1.279,0,0,1-1.362-1.46C-1158.306,1230.825-1157.722,1230.488-1156.957,1230.34Z" transform="translate(1180.441 -1196.265)" fill="#192d33"/>
      <path id="Path_3406" data-name="Path 3406" d="M-1132.941,1160.577a.843.843,0,0,1-.964.9.839.839,0,0,1-.906-.966.831.831,0,0,1,.957-.91C-1133.223,1159.6-1132.956,1159.966-1132.941,1160.577Z" transform="translate(1158.168 -1129.227)" fill="#192d33"/>
      <path id="Path_3407" data-name="Path 3407" d="M-1079.808,1212.935c.355.109.654.321.609.727a.646.646,0,0,1-.725.612.616.616,0,0,1-.609-.712A.67.67,0,0,1-1079.808,1212.935Z" transform="translate(1106.737 -1179.772)" fill="#192d33"/>
      <path id="Path_3408" data-name="Path 3408" d="M-1352.818,1087.163a11.038,11.038,0,0,1,4.324.872,11.069,11.069,0,0,1,3.531,2.382,11.067,11.067,0,0,1,2.382,3.531,11.039,11.039,0,0,1,.872,4.324,11.037,11.037,0,0,1-.872,4.324,11.062,11.062,0,0,1-2.382,3.532,11.067,11.067,0,0,1-3.531,2.381,11.034,11.034,0,0,1-4.324.872,11.032,11.032,0,0,1-4.323-.872,11.068,11.068,0,0,1-3.532-2.381,11.065,11.065,0,0,1-2.381-3.532,11.037,11.037,0,0,1-.873-4.324,11.039,11.039,0,0,1,.873-4.324,11.07,11.07,0,0,1,2.381-3.531,11.07,11.07,0,0,1,3.532-2.382,11.036,11.036,0,0,1,4.323-.872m0-1.675a12.784,12.784,0,0,0-12.784,12.784,12.785,12.785,0,0,0,12.784,12.785,12.785,12.785,0,0,0,12.785-12.785,12.785,12.785,0,0,0-12.785-12.784Z" transform="translate(1376.877 -1058.997)" fill="#192d33"/>
    </g>
  </g>
</svg>
