<svg xmlns="http://www.w3.org/2000/svg" xmlns:xlink="http://www.w3.org/1999/xlink" width="300.76" height="149.94" viewBox="0 0 300.76 149.94">
  <defs>
    <filter id="Path_3647" x="89.22" y="0" width="112.915" height="149.94" filterUnits="userSpaceOnUse">
      <feOffset dy="3" input="SourceAlpha"/>
      <feGaussianBlur stdDeviation="3" result="blur"/>
      <feFlood flood-opacity="0.161"/>
      <feComposite operator="in" in2="blur"/>
      <feComposite in="SourceGraphic"/>
    </filter>
    <linearGradient id="linear-gradient" x1="0.5" x2="0.5" y2="1.285" gradientUnits="objectBoundingBox">
      <stop offset="0" stop-color="#14b0f1"/>
      <stop offset="1" stop-color="#0a5879"/>
    </linearGradient>
  </defs>
  <g id="Group_2196" data-name="Group 2196" transform="translate(-37 -113.086)">
    <g id="Group_2035" data-name="Group 2035" transform="translate(-1267.031 -1834.165)">
      <path id="Path_3599" data-name="Path 3599" d="M1583.8,2202.84s-14.261.023-36.011.07c-63.687.116-191.627.325-213.946.22-29.948-.139-50.666-77.634,5.333-72.37,60.823,5.7,16.336-29.194,52.162-34.979,38.991-6.307,46.852,17.948,74.852,8.034,38.272-13.553,59.06-8.835,72.382,1.055,14.609,10.852,20.208,27.93,30.017,33.9q.331.209.661.382c19.061,10.435,27.687,20.533,30.5,29.5C1606.042,2188.533,1583.8,2202.84,1583.8,2202.84Z" transform="translate(0 -117.837)" fill="#ebf3fa"/>
      <path id="Path_3600" data-name="Path 3600" d="M2087.564,2186.981l-144.474,24.567-10.788-12.937,125.24-45.532C2072.152,2163.931,2077.757,2181,2087.564,2186.981Z" transform="translate(-518.967 -166.045)" fill="#f8fbff"/>
      <path id="Path_3601" data-name="Path 3601" d="M1704.636,2172.493l-142.966,46.07c4.212-3.07-5.474-19.714.212-25.238Z" transform="translate(-211.47 -182.082)" fill="#f8fbff"/>
      <path id="Path_3602" data-name="Path 3602" d="M2475.88,2127.827a3.446,3.446,0,1,0,3.446,3.446A3.446,3.446,0,0,0,2475.88,2127.827Z" transform="translate(-965.13 -145.186)" fill="#f8fbff"/>
      <g transform="matrix(1, 0, 0, 1, 1304.03, 1947.25)" filter="url(#Path_3647)">
        <path id="Path_3647-2" data-name="Path 3647" d="M2133.6,2018.375a47.458,47.458,0,0,0-47.458,47.458c0,26.211,47.458,84.482,47.458,84.482s47.458-58.271,47.458-84.482A47.458,47.458,0,0,0,2133.6,2018.375Zm0,69.159a22.183,22.183,0,1,1,22.182-22.183A22.182,22.182,0,0,1,2133.6,2087.533Z" transform="translate(-1987.92 -2012.37)" fill="#f99746"/>
      </g>
      <path id="Rectangle_1813" data-name="Rectangle 1813" d="M.559,0H288.5a.559.559,0,0,1,.559.559v0a.559.559,0,0,1-.559.559H.559A.559.559,0,0,1,0,.559v0A.559.559,0,0,1,.559,0Z" transform="translate(1315.736 2084.853)" fill="#283250"/>
    </g>
    <g id="Group_2036" data-name="Group 2036" transform="translate(-12.656 -175.656)">
      <g id="Group_1349" data-name="Group 1349" transform="translate(172.519 319.163)">
        <path id="Path_3403" data-name="Path 3403" d="M-1288.918,1294.939c.052-.729.078-1.46.16-2.186.155-1.383.894-1.721,2.076-1.051a21.743,21.743,0,0,1,2.312,1.47c5.122,3.833,10.528,3.653,16.034,1.05a44.239,44.239,0,0,1,7.371-2.7c3.277-.887,4.626.313,4.583,3.739a16.621,16.621,0,0,1-11.984,15.355,16.272,16.272,0,0,1-18.38-7.556A15.8,15.8,0,0,1-1288.918,1294.939Zm21.291,12.448c4.48-.993,8.149-5.369,7.879-9.3A17.393,17.393,0,0,1-1267.628,1307.387Zm-1.776-6.576c.072-1.1-.5-1.685-1.747-1.678-1.06.006-2.021.095-2.107,1.465a1.945,1.945,0,0,0,1.751,2.271A1.921,1.921,0,0,0-1269.4,1300.812Zm-13.546-.226c.711-.255,1.39-.621,1.441-1.592a1.519,1.519,0,0,0-1.562-1.769,1.487,1.487,0,0,0-1.561,1.511C-1284.693,1299.782-1284.058,1300.358-1282.949,1300.585Zm18.068-4.772a1.5,1.5,0,0,0-1.565,1.481,1.533,1.533,0,0,0,1.495,1.654,1.368,1.368,0,0,0,1.583-1.469C-1263.323,1296.488-1263.838,1295.959-1264.881,1295.813Zm-10.2,10.182c-.146-.79-.529-1.341-1.419-1.3-.781.041-1.093.561-1.089,1.269a1.163,1.163,0,0,0,1.343,1.3C-1275.479,1307.232-1275.218,1306.655-1275.078,1306Z" transform="translate(1296.163 -1271.802)" fill="url(#linear-gradient)"/>
        <path id="Path_3404" data-name="Path 3404" d="M-1246.311,1232.675l-1.828-1.265c5.143,1.1,9.3-.905,13.791-.961-1.485.56-2.973,1.115-4.455,1.682-2,.766-4.11.682-6.163,1.981-3.073,1.944-10.243-2.324-10.927-5.985a3.19,3.19,0,0,1,2.08-3.962,2.594,2.594,0,0,1,3.528,1.193,2.619,2.619,0,0,1-1.512,3.821c-1.273.558-.927,1.159-.225,1.771A6.2,6.2,0,0,0-1246.311,1232.675Z" transform="translate(1266.34 -1210.837)" fill="#14b0f1"/>
        <path id="Path_3405" data-name="Path 3405" d="M-1155.865,1230.34c1.55.24,2.508,1.071,2.459,2.7a2.278,2.278,0,0,1-2.45,2.377,2.308,2.308,0,0,1-2.457-2.635C-1158.3,1231.215-1157.245,1230.608-1155.865,1230.34Z" transform="translate(1177.896 -1216.657)" fill="#14b0f1"/>
        <path id="Path_3406" data-name="Path 3406" d="M-1131.437,1161.366a1.521,1.521,0,0,1-1.739,1.616,1.514,1.514,0,0,1-1.635-1.743,1.5,1.5,0,0,1,1.728-1.641C-1131.945,1159.611-1131.464,1160.262-1131.437,1161.366Z" transform="translate(1156.613 -1152.597)" fill="#14b0f1"/>
        <path id="Path_3407" data-name="Path 3407" d="M-1079.22,1212.935c.641.2,1.18.579,1.1,1.312a1.165,1.165,0,0,1-1.308,1.1,1.11,1.11,0,0,1-1.1-1.284A1.208,1.208,0,0,1-1079.22,1212.935Z" transform="translate(1107.467 -1200.896)" fill="#14b0f1"/>
        <path id="Path_3408" data-name="Path 3408" d="M-1342.535,1088.511a19.916,19.916,0,0,1,7.8,1.574,19.983,19.983,0,0,1,6.373,4.3,19.981,19.981,0,0,1,4.3,6.373,19.914,19.914,0,0,1,1.574,7.8,19.912,19.912,0,0,1-1.574,7.8,19.977,19.977,0,0,1-4.3,6.373,19.98,19.98,0,0,1-6.373,4.3,19.916,19.916,0,0,1-7.8,1.574,19.916,19.916,0,0,1-7.8-1.574,19.978,19.978,0,0,1-6.372-4.3,19.973,19.973,0,0,1-4.3-6.373,19.917,19.917,0,0,1-1.574-7.8,19.918,19.918,0,0,1,1.574-7.8,19.978,19.978,0,0,1,4.3-6.373,19.981,19.981,0,0,1,6.372-4.3,19.916,19.916,0,0,1,7.8-1.574m0-3.023a23.069,23.069,0,0,0-23.068,23.068,23.068,23.068,0,0,0,23.068,23.069,23.069,23.069,0,0,0,23.069-23.069,23.069,23.069,0,0,0-23.069-23.068Z" transform="translate(1365.603 -1085.488)" fill="#023a49"/>
      </g>
    </g>
  </g>
</svg>
