<svg xmlns="http://www.w3.org/2000/svg" width="18.75" height="15.002" viewBox="0 0 18.75 15.002">
  <path id="Path_5325" data-name="Path 5325" d="M13.81.571,13.781.559,13.751.544A1.325,1.325,0,0,1,13.574.42,1.113,1.113,0,0,1,13.3.469H8A1.058,1.058,0,0,1,7.22.05L3.877-4.986a.7.7,0,0,1,1.151-.806L6.136-4.2a.235.235,0,0,0,.427-.135v-5.745a.7.7,0,0,1,1.406,0v4.219a.234.234,0,0,0,.234.234h.469a.234.234,0,0,0,.234-.234v-5.156a.7.7,0,0,1,1.406,0v5.156a.234.234,0,0,0,.234.234h.469a.234.234,0,0,0,.234-.234v-4.219a.7.7,0,0,1,1.406,0v4.219a.234.234,0,0,0,.234.234h.469a.234.234,0,0,0,.234-.234V-7.734a.7.7,0,0,1,1.406,0v2.587a11.354,11.354,0,0,1-.182,1.84l-.3,1.5.389-.162.458-1.1.012-.029.014-.028a1.149,1.149,0,0,1,.908-.613,13.118,13.118,0,0,0,.106-1.412V-7.736A2.108,2.108,0,0,0,14.3-9.844h0c-.079,0-.158.006-.234.012v-.246a2.113,2.113,0,0,0-2.109-2.109h-.008a2.489,2.489,0,0,0-.537.071,2.342,2.342,0,0,0-1.8-1.008,2.342,2.342,0,0,0-1.8,1.008,2.49,2.49,0,0,0-.537-.071H7.266a2.113,2.113,0,0,0-2.109,2.109v2.7a2.107,2.107,0,0,0-1.913.261,2.369,2.369,0,0,0-.9,1.729,2.476,2.476,0,0,0,.38,1.209L6.05.829A2.611,2.611,0,0,0,8,1.875h5.3a2.683,2.683,0,0,0,1.67-.712l-.056-.134ZM2.52-8.546,3.126-10h0l1.451-.606a.238.238,0,0,0,.108-.176h0a.237.237,0,0,0-.108-.176l-1.452-.6h0L2.52-13.017a.213.213,0,0,0-.176-.111.213.213,0,0,0-.176.111l-.605,1.454h0l-1.453.606A.237.237,0,0,0,0-10.781H0a.238.238,0,0,0,.108.176L1.561-10h0l.605,1.454a.213.213,0,0,0,.175.108.213.213,0,0,0,.175-.108ZM9.011-4.687a.128.128,0,0,0-.1-.065.128.128,0,0,0-.1.065l-.364.873-.873.364a.128.128,0,0,0-.065.1.128.128,0,0,0,.065.1l.873.364.364.872a.128.128,0,0,0,.1.065.128.128,0,0,0,.1-.065l.364-.872.873-.364a.128.128,0,0,0,.065-.1.128.128,0,0,0-.065-.1l-.873-.364ZM18.75-.469a.237.237,0,0,0-.108-.176L17.189-1.25h0L16.582-2.7a.213.213,0,0,0-.175-.108.213.213,0,0,0-.175.108L15.626-1.25h0l-1.454.606a.237.237,0,0,0-.108.176h0a.238.238,0,0,0,.108.176l1.452.606h0l.605,1.454a.195.195,0,0,0,.349,0L17.186.313h0l1.453-.6A.238.238,0,0,0,18.75-.469Z" transform="translate(0 13.127)" fill="#2699fb"/>
</svg>
